<?xml version="1.0" encoding="utf-8"?>
<!-- Generator: Adobe Illustrator 19.2.1, SVG Export Plug-In . SVG Version: 6.00 Build 0)  -->
<svg version="1.1" id="Layer_1" xmlns="http://www.w3.org/2000/svg" xmlns:xlink="http://www.w3.org/1999/xlink" x="0px" y="0px"
	 width="788px" height="300px" viewBox="0 0 788 300" style="enable-background:new 0 0 788 300;" xml:space="preserve">
<style type="text/css">
	.st0{fill:#FFFFFF;}
	.st1{opacity:0.4;fill:#FFFFFF;}
	.st2{opacity:0.3;fill:#FFFFFF;}
	.st3{opacity:0.5;fill:#FFFFFF;}
	.st4{opacity:0.8;fill:#FFFFFF;}
	.st5{opacity:0.6;fill:#FFFFFF;}
</style>
<g>
	<path class="st0" d="M51,234.1c-2.2,0.4-3.3,2-3.3,4.8c0,2.9,1.5,4.8,3.8,4.8c1.1,0,2-0.4,4.1-1.3v2.3c-2.4,1.1-3.9,1.5-5.8,1.5
		c-2.1,0-3.6-0.6-4.8-1.8c-1.3-1.3-1.9-2.9-1.9-4.7c0-4.1,3-6.9,7.5-6.9c2.9,0,5,1.3,5,3.3c0,1.3-0.9,2.1-2.3,2.1
		c-0.7,0-1.3-0.2-2.1-0.6V234.1"/>
	<path class="st0" d="M40.2,239.6c2-2.5,2.7-3.5,2.7-4.7c0-1.2-1-2.2-2.2-2.2c-0.8,0-1.5,0.4-1.8,0.8v5l-3.2,4.3V233h-3.1l-5.1,8.4
		V233h-1.8l-4.6,1.1v1.2l2.5,0.3v10.3h3.3l4.9-8v8h3.6L40.2,239.6"/>
	<path class="st0" d="M11.4,244.3c0.3,0,0.5,0,0.7,0c2.6,0,4-1.6,4-4.8c0-2.7-1.1-4.1-3.3-4.1c-0.4,0-0.7,0-1.5,0.1V244.3
		 M11.4,249.9l2.1,0.5l0,1.2H5.2v-1.2l1.9-0.5v-14.5H5v-1.2l5.1-1.5h1.3v1.7c2.4-1.4,3.2-1.7,4.4-1.7c2.8,0,4.9,2.6,4.9,6.2
		c0,4.1-2.8,6.9-7.1,6.9c-0.5,0-1.3,0-2.2-0.1V249.9z"/>
	<rect x="69.8" y="215.8" class="st1" width="3.2" height="6.3"/>
	<rect x="60.9" y="202.5" class="st2" width="2.5" height="3.9"/>
	<rect x="48.3" y="200" class="st3" width="12.6" height="2.5"/>
	<polyline class="st4" points="48.3,215.8 48.3,202.5 60.9,202.5 60.9,206.3 48.3,206.3 48.3,215.8 	"/>
	<rect x="63.4" y="206.3" class="st1" width="6.4" height="9.5"/>
	<rect x="63.4" y="215.8" class="st5" width="6.4" height="6.3"/>
	<rect x="60.9" y="206.3" class="st4" width="2.5" height="9.5"/>
	<rect x="60.9" y="215.8" class="st4" width="2.5" height="6.3"/>
	<polyline class="st0" points="60.9,215.8 56.2,215.8 56.2,212.7 48.3,212.7 48.3,215.8 48.3,206.3 60.9,206.3 60.9,215.8 	"/>
	<rect x="56.2" y="215.8" class="st4" width="4.7" height="6.3"/>
	<rect x="48.3" y="212.7" class="st0" width="7.9" height="3.2"/>
	<rect x="48.3" y="215.8" class="st0" width="7.9" height="6.3"/>
	<rect x="35.6" y="222.2" class="st0" width="12.7" height="3.2"/>
</g>
<path id="text1" class="st0" d="M16.9,6.8c-0.8-0.2-1.6-0.3-2.4-0.3c-1.9-0.1-3.8,0.5-5.4,1.7C7.8,9.2,7,10.7,7,12.3
	c0,0.9,0.3,1.8,0.8,2.5c0.6,0.8,1.4,1.5,2.3,1.9c0.3,0.1,0.7,0.3,1.2,0.6c1.9,0.9,2.8,1.8,2.8,2.7c0,0.8-0.4,1.6-1.1,2
	c-0.9,0.6-1.9,0.8-3,0.8c-0.2,0-0.4,0-0.6,0c-0.2,0-0.5,0-0.7-0.1l-0.4-0.5v-3.4H6l-1,4.8c0.9,0.3,1.9,0.6,2.8,0.8
	c0.8,0.2,1.7,0.3,2.6,0.3c2.1,0.1,4.2-0.5,5.9-1.8c1.5-1,2.3-2.6,2.3-4.4c0-0.4-0.1-0.8-0.2-1.2c-0.1-0.4-0.4-0.8-0.6-1.1
	c-0.7-0.7-1.5-1.3-2.4-1.7c-0.2-0.1-0.4-0.2-0.5-0.2l-0.2-0.1c-2.2-1.1-3.3-2.1-3.3-3.1c0-0.8,0.3-1.5,1-2c0.8-0.5,1.7-0.8,2.6-0.8
	c0.3,0,0.4,0,0.6,0c0.1,0,0.3,0,0.4,0l0.4,0.4l0.1,3.3h2.2l0.9-4.6C18.7,7.3,17.8,7,16.9,6.8z M25.9,14.1c0.4-0.7,1.2-1.1,2-1.2
	c0.3,0,0.7,0.1,0.9,0.3c0.2,0.2,0.4,0.6,0.3,0.9c0,0.7-0.4,1.4-1.3,2c-0.9,0.6-2,1-3.2,1.1C24.8,16.1,25.3,15,25.9,14.1z M24.8,18.6
	c2.5,0,4.4-0.4,5.7-1.1c1.4-0.7,2-1.8,2-3.1c0-0.9-0.3-1.7-1-2.2c-0.8-0.6-1.7-0.9-2.7-0.8c-1,0-2.1,0.2-3.1,0.5
	c-0.9,0.3-1.8,0.8-2.6,1.4C22.3,14,21.6,14.9,21,16c-0.5,1-0.8,2.2-0.7,3.3c-0.1,1.5,0.4,2.9,1.4,4c1,1,2.4,1.6,3.8,1.5
	c1,0,2-0.2,3-0.6c1.2-0.5,2.3-1.1,3.4-1.8v-2c-0.7,0.5-1.5,1-2.3,1.3c-0.7,0.3-1.4,0.4-2.1,0.5c-0.8,0.1-1.6-0.3-2.2-0.9
	c-0.6-0.7-0.8-1.6-0.8-2.5v-0.2L24.8,18.6L24.8,18.6z M39.3,14.1c0.4-0.7,1.2-1.1,2-1.2c0.3,0,0.7,0.1,0.9,0.3
	c0.2,0.2,0.4,0.6,0.3,0.9c0,0.7-0.4,1.4-1.3,2c-0.9,0.6-2,1-3.2,1.1C38.2,16.1,38.6,15,39.3,14.1L39.3,14.1z M38.2,18.6
	c2.5,0,4.4-0.4,5.7-1.1c1.4-0.7,2-1.8,2-3.1c0-0.9-0.3-1.7-1-2.2c-0.8-0.6-1.7-0.9-2.7-0.8c-1,0-2.1,0.2-3.1,0.5
	c-0.9,0.3-1.8,0.8-2.6,1.4c-0.9,0.7-1.7,1.7-2.2,2.7c-0.5,1-0.8,2.2-0.7,3.3c-0.1,1.5,0.4,2.9,1.4,4c1,1,2.4,1.6,3.8,1.5
	c1,0,2-0.2,3-0.6c1.2-0.5,2.3-1.1,3.4-1.8v-2c-0.7,0.5-1.5,1-2.3,1.3c-0.7,0.3-1.4,0.4-2.1,0.5c-0.8,0.1-1.6-0.3-2.2-0.9
	c-0.6-0.7-0.8-1.6-0.8-2.5v-0.2L38.2,18.6L38.2,18.6z M56.2,6.4l0,1l2.3,0.3l-3.4,16.7h4.3l1.6-8.9c0.6-0.4,1.1-0.7,1.8-1
	c0.4-0.2,0.8-0.3,1.2-0.3c0.3,0,0.7,0.1,0.9,0.4c0.2,0.3,0.4,0.7,0.3,1c0,0.2,0,0.5-0.1,0.7c0,0.3-0.1,0.6-0.2,1l-0.8,3.8
	c0,0,0,0.1,0,0.2C64,21.7,64,22.1,64,22.6c0,0.6,0.2,1.1,0.6,1.5c0.5,0.4,1.1,0.6,1.8,0.5c0.7,0,1.4-0.1,2.1-0.3
	c1-0.2,1.9-0.5,2.8-0.8v-1.2c-0.3,0.1-0.7,0.2-1,0.3c-0.2,0.1-0.5,0.1-0.7,0.1c-0.4,0-0.7-0.1-1-0.4c-0.2-0.3-0.4-0.7-0.3-1.1
	c0-0.3,0-0.6,0.1-0.8c0.1-0.4,0.1-0.8,0.2-1.2l0.7-3.1c0.1-0.4,0.2-0.8,0.2-1.1c0-0.3,0.1-0.5,0.1-0.8c0-0.8-0.3-1.5-0.8-2
	c-0.6-0.5-1.3-0.8-2.1-0.8c-0.8,0-1.6,0.3-2.3,0.7c-1.1,0.6-2.1,1.3-3.1,2l1.9-8.8h-1.5L56.2,6.4z M81.4,13.8
	c0.4,0.8,0.6,1.7,0.5,2.6c0.1,1.6-0.3,3.3-0.9,4.8c-0.6,1.2-1.4,1.9-2.3,1.9c-0.6,0-1.2-0.3-1.6-0.8c-0.4-0.8-0.6-1.7-0.5-2.6
	c-0.1-1.7,0.3-3.3,0.9-4.8c0.6-1.2,1.4-1.8,2.4-1.8C80.5,13,81.1,13.3,81.4,13.8L81.4,13.8z M77.1,11.8c-0.9,0.3-1.8,0.8-2.5,1.4
	c-0.8,0.7-1.5,1.6-2,2.6c-0.4,1-0.7,2-0.7,3.1c0,1.8,0.5,3.3,1.6,4.3c1.1,1,2.6,1.5,4.5,1.5c2.2,0.1,4.4-0.7,6-2.2
	c1.6-1.5,2.4-3.5,2.3-5.7c0.1-1.5-0.5-3.1-1.7-4.1c-1.1-1-2.7-1.5-4.7-1.5C79.1,11.3,78.1,11.5,77.1,11.8L77.1,11.8z M87.1,12.4v1.1
	l2.6,0.4l0.4,9.3l-0.3,1.2h3.3l4.9-8.9l0.6,8.9h3.1c3.1-3.7,5.1-6.2,5.9-7.6c0.9-1.4,1.3-2.5,1.3-3.4c0-0.6-0.2-1.1-0.6-1.5
	c-0.4-0.4-1-0.6-1.6-0.6c-0.3,0-0.7,0.1-1,0.2c-0.3,0.1-0.7,0.3-0.9,0.6l0.7,4.8l-3.4,4.6l-0.5-9.8L97.8,12v0.7L94,19.9l-0.3-6.3
	c0-0.3-0.1-0.6-0.1-1c0-0.4-0.1-0.8-0.2-1.3h-1.5L87.1,12.4z M117.2,12.4v1.1l2.6,0.4l0.4,9.3l-0.3,1.2h3.3l4.9-8.9l0.6,8.9h3.1
	c3.1-3.7,5.1-6.2,5.9-7.6c0.9-1.4,1.3-2.5,1.3-3.4c0-0.6-0.2-1.1-0.6-1.5c-0.4-0.4-1-0.6-1.6-0.6c-0.3,0-0.7,0.1-1,0.2
	c-0.3,0.1-0.7,0.3-0.9,0.6l0.7,4.8l-3.4,4.6l-0.5-9.8l-3.9,0.3v0.7l-3.8,7.1l-0.3-6.3c0-0.3-0.1-0.6-0.1-1c0-0.4-0.1-0.8-0.2-1.3
	h-1.5L117.2,12.4z M145,14.1c0.4-0.7,1.2-1.1,2-1.2c0.3,0,0.7,0.1,0.9,0.3c0.2,0.2,0.4,0.6,0.3,0.9c0,0.7-0.4,1.4-1.3,2
	c-0.9,0.6-2,1-3.2,1.1C143.9,16.1,144.4,15,145,14.1L145,14.1z M143.9,18.6c2.5,0,4.4-0.4,5.7-1.1c1.4-0.7,2-1.8,2-3.1
	c0-0.9-0.3-1.7-1-2.2c-0.8-0.6-1.7-0.9-2.7-0.8c-1,0-2.1,0.2-3.1,0.5c-0.9,0.3-1.8,0.8-2.6,1.4c-0.9,0.7-1.7,1.7-2.2,2.7
	c-0.5,1-0.8,2.2-0.7,3.3c-0.1,1.5,0.4,2.9,1.4,4c1,1,2.4,1.6,3.8,1.5c1,0,2-0.2,3-0.6c1.2-0.5,2.3-1.1,3.4-1.8v-2
	c-0.7,0.5-1.5,1-2.3,1.3c-0.7,0.3-1.4,0.4-2.1,0.5c-0.8,0.1-1.6-0.3-2.2-0.9c-0.6-0.7-0.8-1.6-0.8-2.5v-0.2L143.9,18.6L143.9,18.6z
	 M162,6.4l0,1l2.3,0.3l-3.4,16.7h4.3l1.6-8.9c0.6-0.4,1.1-0.7,1.8-1c0.4-0.2,0.8-0.3,1.2-0.3c0.3,0,0.7,0.1,0.9,0.4
	c0.2,0.3,0.4,0.7,0.3,1c0,0.2,0,0.5-0.1,0.7c0,0.3-0.1,0.6-0.2,1l-0.8,3.8c0,0,0,0.1,0,0.2c-0.1,0.4-0.2,0.9-0.2,1.3
	c0,0.6,0.2,1.1,0.6,1.5c0.5,0.4,1.1,0.6,1.8,0.5c0.7,0,1.4-0.1,2.1-0.3c1-0.2,1.9-0.5,2.8-0.8v-1.2c-0.3,0.1-0.7,0.2-1,0.3
	c-0.2,0.1-0.5,0.1-0.7,0.1c-0.4,0-0.7-0.1-1-0.4c-0.2-0.3-0.4-0.7-0.3-1.1c0-0.3,0-0.6,0.1-0.8c0.1-0.4,0.1-0.8,0.2-1.2l0.7-3.1
	c0.1-0.4,0.2-0.8,0.2-1.1c0-0.3,0.1-0.5,0.1-0.8c0-0.8-0.3-1.5-0.8-2c-0.6-0.5-1.3-0.8-2.1-0.8c-0.8,0-1.6,0.3-2.3,0.7
	c-1.1,0.6-2.1,1.3-3.1,2l1.9-8.8h-1.5L162,6.4z M183.4,14.1c0.4-0.7,1.2-1.1,2-1.2c0.3,0,0.7,0.1,0.9,0.3c0.2,0.2,0.4,0.6,0.3,0.9
	c0,0.7-0.4,1.4-1.3,2c-0.9,0.6-2,1-3.2,1.1C182.3,16.1,182.8,15,183.4,14.1z M182.3,18.6c2.5,0,4.4-0.4,5.7-1.1c1.4-0.7,2-1.8,2-3.1
	c0-0.9-0.3-1.7-1-2.2c-0.8-0.6-1.7-0.9-2.7-0.8c-1,0-2.1,0.2-3.1,0.5c-0.9,0.3-1.8,0.8-2.6,1.4c-0.9,0.7-1.7,1.7-2.2,2.7
	c-0.5,1-0.8,2.2-0.7,3.3c-0.1,1.5,0.4,2.9,1.4,4c1,1,2.4,1.6,3.8,1.5c1,0,2-0.2,3-0.6c1.2-0.5,2.3-1.1,3.4-1.8v-2
	c-0.7,0.5-1.5,1-2.3,1.3c-0.7,0.3-1.4,0.4-2.1,0.5c-0.8,0.1-1.6-0.3-2.2-0.9c-0.6-0.7-0.8-1.6-0.8-2.5v-0.2L182.3,18.6L182.3,18.6z
	 M192,6.5v1.1l2.3,0.3l-2.4,11.9c-0.1,0.5-0.2,1-0.2,1.5c-0.1,0.4-0.1,0.7-0.1,1.1c0,0.6,0.2,1.3,0.7,1.7c0.5,0.4,1.2,0.7,1.9,0.6
	c0.7,0,1.3-0.1,2-0.3c0.8-0.2,1.8-0.5,3.1-0.9v-1.2c-0.4,0.1-0.8,0.2-1.2,0.3c-0.3,0.1-0.6,0.1-0.9,0.1c-0.3,0-0.6-0.1-0.9-0.3
	c-0.2-0.3-0.3-0.6-0.3-0.9c0-0.3,0-0.5,0.1-0.8c0.1-0.3,0.1-0.8,0.3-1.5L199,5.3h-1.6L192,6.5z M205.8,24.4c0.3,0.1,0.6,0.1,0.9,0.1
	c2.2,0.1,4.3-0.8,5.9-2.4c1.6-1.6,2.4-3.8,2.3-6c0.1-1.2-0.3-2.5-1.1-3.4c-0.7-0.9-1.8-1.3-2.9-1.3c-0.8,0-1.5,0.2-2.2,0.5
	c-0.8,0.4-1.6,0.9-2.3,1.5l0.4-2h-1.6l-5.2,1.2v1.2l2.1,0.2l-2.4,13.9l-0.2,0.4l-1.7,0.5v1.3h8.5v-1.2l-2.5-0.5l0.7-4.2
	C205.1,24.2,205.5,24.3,205.8,24.4z M206.2,14.7c0.4-0.3,0.8-0.5,1.3-0.7c0.3-0.1,0.7-0.2,1.1-0.2c0.5,0,1.1,0.2,1.4,0.7
	c0.4,0.6,0.5,1.2,0.5,1.9c0.1,1.6-0.4,3.2-1.2,4.6c-0.6,1.1-1.8,1.8-3.1,1.8c-0.5,0-0.9-0.1-1.3-0.3L206.2,14.7z M221.7,14.1
	c0.4-0.7,1.2-1.1,2-1.2c0.3,0,0.7,0.1,0.9,0.3c0.2,0.2,0.4,0.6,0.3,0.9c0,0.7-0.4,1.4-1.3,2c-0.9,0.6-2,1-3.2,1.1
	C220.7,16.1,221.1,15,221.7,14.1L221.7,14.1z M220.7,18.6c2.5,0,4.4-0.4,5.7-1.1c1.4-0.7,2-1.8,2-3.1c0-0.9-0.3-1.7-1-2.2
	c-0.8-0.6-1.7-0.9-2.7-0.8c-1,0-2.1,0.2-3.1,0.5c-0.9,0.3-1.8,0.8-2.6,1.4c-0.9,0.7-1.7,1.7-2.2,2.7c-0.5,1-0.8,2.2-0.7,3.3
	c-0.1,1.5,0.4,2.9,1.4,4c1,1,2.4,1.6,3.8,1.5c1,0,2-0.2,3-0.6c1.2-0.5,2.3-1.1,3.4-1.8v-2c-0.7,0.5-1.5,1-2.3,1.3
	c-0.7,0.3-1.4,0.4-2.1,0.5c-0.8,0.1-1.6-0.3-2.2-0.9c-0.6-0.7-0.8-1.6-0.8-2.5v-0.2L220.7,18.6L220.7,18.6z M239.6,14.3l-1.2,6.9
	c-0.4,0.2-0.8,0.4-1.3,0.6c-0.3,0.1-0.7,0.2-1,0.2c-0.6,0-1.2-0.2-1.5-0.7c-0.4-0.6-0.6-1.3-0.5-2.1c0-1.1,0.2-2.2,0.6-3.3
	c0.3-1,0.9-1.8,1.6-2.6c0.2-0.2,0.5-0.4,0.9-0.6c0.3-0.1,0.7-0.2,1-0.2c0.1,0,0.2,0,0.3,0s0.1,0,0.2,0L239.6,14.3z M238.4,6.5v1
	l2.3,0.4l-0.7,3.8c-0.5-0.1-0.9-0.2-1.4-0.3c-0.4-0.1-0.9-0.1-1.3-0.1c-1,0-1.9,0.2-2.8,0.5c-0.9,0.3-1.7,0.9-2.3,1.6
	c-0.8,0.8-1.4,1.8-1.9,2.8c-0.4,1.1-0.7,2.2-0.7,3.4c-0.1,1.3,0.4,2.6,1.2,3.6c0.7,0.9,1.8,1.4,3,1.4c0.7,0,1.4-0.2,2-0.5
	c0.9-0.4,1.8-1,2.6-1.6c0,0.6,0.3,1.1,0.8,1.5c0.5,0.4,1.2,0.5,1.8,0.5c0.7,0,1.4-0.1,2.2-0.3c0.9-0.2,1.8-0.5,2.6-0.9v-1.3
	c-0.4,0.1-0.8,0.2-1.1,0.3c-0.2,0.1-0.5,0.1-0.7,0.1c-0.4,0-0.7-0.1-1-0.3c-0.2-0.3-0.3-0.6-0.3-1c0-0.3,0.1-0.7,0.1-1
	c0-0.1,0-0.2,0-0.2l2.6-14.7h-1.5L238.4,6.5z M264.6,14.4l-1.2,6.8c-0.5,0.2-0.9,0.4-1.4,0.6c-0.3,0.1-0.6,0.2-1,0.2
	c-0.6,0-1.2-0.2-1.5-0.7c-0.4-0.7-0.6-1.4-0.5-2.2c-0.1-1.6,0.4-3.2,1.2-4.5c0.8-1.2,1.8-1.8,2.9-1.8c0.1,0,0.2,0,0.2,0
	c0,0,0.1,0,0.1,0L264.6,14.4z M264.1,11.5c-0.5-0.1-1.1-0.2-1.7-0.2c-0.9,0-1.9,0.1-2.8,0.5c-0.8,0.3-1.6,0.7-2.3,1.3
	c-1.9,1.6-3,4-2.9,6.5c-0.1,1.3,0.3,2.6,1.1,3.7c0.7,0.9,1.8,1.4,3,1.3c0.8,0,1.6-0.2,2.3-0.5c0.9-0.4,1.7-0.9,2.5-1.5
	c0,0.6,0.2,1.1,0.6,1.5c0.5,0.4,1.2,0.6,1.8,0.5c0.8,0,1.6-0.1,2.3-0.3c0.9-0.2,1.7-0.5,2.5-0.8l0.1-1.3c-0.3,0.1-0.7,0.2-1.1,0.3
	c-0.3,0.1-0.6,0.1-0.8,0.1c-0.3,0-0.7-0.1-0.9-0.4c-0.2-0.3-0.3-0.7-0.3-1.1c0-0.2,0-0.5,0-0.7c0-0.3,0.1-0.5,0.1-0.8l1.7-8.4h-1.8
	l-1.5,0.7C265.5,11.8,264.8,11.6,264.1,11.5L264.1,11.5z M285,24.4c0.3,0.1,0.6,0.1,0.9,0.1c2.2,0.1,4.3-0.8,5.9-2.4
	c1.6-1.6,2.4-3.8,2.3-6c0.1-1.2-0.3-2.5-1.1-3.4c-0.7-0.8-1.8-1.3-2.9-1.3c-0.8,0-1.5,0.2-2.2,0.5c-0.8,0.4-1.6,0.9-2.3,1.5l0.4-2
	h-1.6l-5.2,1.2v1.2l2.1,0.2l-2.4,13.9l-0.2,0.4l-1.7,0.5v1.3h8.5v-1.2l-2.5-0.5l0.7-4.2C284.2,24.2,284.6,24.3,285,24.4z
	 M285.4,14.7c0.4-0.3,0.8-0.5,1.3-0.7c0.3-0.1,0.7-0.2,1.1-0.2c0.5,0,1.1,0.2,1.4,0.7c0.4,0.6,0.5,1.2,0.5,1.9
	c0.1,1.6-0.4,3.2-1.2,4.6c-0.6,1.1-1.8,1.8-3.1,1.8c-0.5,0-0.9-0.1-1.3-0.3L285.4,14.7z M307.5,15.7c0.6-0.6,1-1.4,0.9-2.2
	c0-0.6-0.2-1.2-0.6-1.7c-0.4-0.4-1-0.7-1.6-0.7c-0.8,0-1.6,0.3-2.2,0.8c-1,0.8-2,1.8-2.8,2.9l0.7-3.6h-1.2l-5.3,1.3v1.1l2.3,0.2
	l-2.1,10.5h4.3l1-5.9c0.1-1,0.5-2,1.1-2.8c0.6-0.8,1.4-1.4,2.2-1.7l0.8,2.5C305.9,16.6,306.8,16.3,307.5,15.7L307.5,15.7z
	 M309.2,12.4v1.2l2.2,0.3l-1.3,6.2c-0.1,0.5-0.2,1-0.3,1.4c0,0.3-0.1,0.6-0.1,0.9c0,0.6,0.2,1.2,0.6,1.7c0.6,0.4,1.3,0.6,1.9,0.6
	c0.7,0,1.5-0.1,2.2-0.3c1-0.2,2-0.5,2.9-0.9v-1.3c-0.5,0.1-1,0.2-1.3,0.3c-0.3,0.1-0.5,0.1-0.8,0.1c-0.3,0-0.6-0.1-0.8-0.3
	c-0.2-0.2-0.3-0.5-0.3-0.9c0-0.3,0-0.6,0.1-1c0-0.4,0.1-0.8,0.2-1.2l1.6-7.8h-1.6L309.2,12.4z M313.1,5.7c-0.5,0.5-0.8,1.1-0.8,1.8
	c0,0.5,0.2,1,0.6,1.4c0.4,0.4,1,0.6,1.5,0.5c0.7,0,1.4-0.2,2-0.7c0.5-0.5,0.8-1.1,0.8-1.8c0-0.5-0.2-1.1-0.6-1.4
	c-0.5-0.4-1-0.5-1.6-0.5C314.3,5,313.6,5.2,313.1,5.7L313.1,5.7z M329.3,17.8c1.4-2,2.1-3.5,2.1-4.6c0-0.5-0.2-1-0.5-1.4
	c-0.4-0.4-0.9-0.6-1.5-0.5c-0.4,0-0.7,0.1-1.1,0.2c-0.4,0.2-0.8,0.4-1.1,0.6l0.7,4.6c-0.6,0.8-1.1,1.6-1.7,2.4s-1.2,1.5-1.8,2.2
	l-0.7-7.6c0-0.5-0.1-1-0.2-1.5c-0.1-0.3-0.2-0.6-0.4-0.9h-1.2l-4.6,1.1v1l2.3,0.3l0.9,9.5l-0.2,1.1h3.3
	C325.7,22.4,327.6,20.2,329.3,17.8z M341.8,14.4l-1.2,6.8c-0.5,0.2-0.9,0.4-1.4,0.6c-0.3,0.1-0.6,0.2-1,0.2c-0.6,0-1.2-0.2-1.5-0.7
	c-0.4-0.7-0.6-1.4-0.5-2.2c-0.1-1.6,0.4-3.2,1.2-4.5c0.8-1.2,1.8-1.8,2.9-1.8c0.1,0,0.2,0,0.2,0c0,0,0.1,0,0.1,0L341.8,14.4z
	 M341.3,11.5c-0.5-0.1-1.1-0.2-1.7-0.2c-0.9,0-1.9,0.1-2.8,0.5c-0.8,0.3-1.6,0.7-2.3,1.3c-1.9,1.6-3,4-2.9,6.5
	c-0.1,1.3,0.3,2.6,1.1,3.7c0.7,0.9,1.8,1.4,3,1.3c0.8,0,1.6-0.2,2.3-0.5c0.9-0.4,1.7-0.9,2.5-1.5c0,0.6,0.2,1.1,0.6,1.5
	c0.5,0.4,1.2,0.6,1.8,0.5c0.8,0,1.6-0.1,2.3-0.3c0.9-0.2,1.7-0.5,2.5-0.8l0.1-1.3c-0.3,0.1-0.7,0.2-1.1,0.3
	c-0.3,0.1-0.6,0.1-0.8,0.1c-0.3,0-0.7-0.1-0.9-0.4c-0.2-0.3-0.3-0.7-0.3-1.1c0-0.2,0-0.5,0-0.7c0-0.3,0.1-0.5,0.1-0.8l1.7-8.4h-1.8
	l-1.5,0.7C342.6,11.8,342,11.6,341.3,11.5z M351.4,11.3l-2.7,1.4v1.1h1.9l-1.2,6.7c-0.1,0.4-0.1,0.7-0.1,0.9c0,0.2,0,0.4,0,0.7
	c0,0.7,0.2,1.4,0.8,1.9c0.6,0.5,1.4,0.7,2.2,0.7c0.7,0,1.3-0.1,2-0.3c0.8-0.2,1.9-0.5,3.2-0.8v-1.5c-0.6,0.2-1.1,0.3-1.5,0.4
	c-0.3,0.1-0.6,0.1-0.9,0.1c-0.4,0-0.7-0.1-1-0.3c-0.2-0.3-0.4-0.6-0.4-0.9c0-0.3,0-0.5,0-0.8c0-0.3,0.1-0.6,0.1-0.9l1.1-5.8h3.9
	v-1.9h-3.5l0.7-3.7h-2.2L351.4,11.3z M363.9,14.1c0.4-0.7,1.2-1.1,2-1.2c0.3,0,0.7,0.1,0.9,0.3c0.2,0.2,0.4,0.6,0.3,0.9
	c0,0.7-0.4,1.4-1.3,2c-0.9,0.6-2,1-3.2,1.1C362.9,16.1,363.3,15,363.9,14.1z M362.9,18.6c2.5,0,4.4-0.4,5.7-1.1c1.4-0.7,2-1.8,2-3.1
	c0-0.9-0.3-1.7-1-2.2c-0.8-0.6-1.7-0.9-2.7-0.8c-1,0-2.1,0.2-3.1,0.5c-0.9,0.3-1.8,0.8-2.6,1.4c-0.9,0.7-1.7,1.7-2.2,2.7
	c-0.5,1-0.8,2.2-0.7,3.3c-0.1,1.5,0.4,2.9,1.4,4c1,1,2.4,1.6,3.8,1.5c1,0,2-0.2,3-0.6c1.2-0.5,2.3-1.1,3.4-1.8v-2
	c-0.7,0.5-1.5,1-2.3,1.3c-0.7,0.3-1.4,0.4-2.1,0.5c-0.8,0.1-1.6-0.3-2.2-0.9c-0.6-0.7-0.8-1.6-0.8-2.5v-0.2L362.9,18.6L362.9,18.6z
	 M392.1,8.6c0.4-0.3,0.6-0.8,0.6-1.3c0-0.6-0.3-1.2-0.9-1.5c-0.7-0.4-1.5-0.6-2.3-0.6c-1.7,0-3.3,0.6-4.5,1.7
	c-1.3,1.2-2.2,2.9-2.4,4.7l-2.2,1v1.4l1.8-0.2l-1.2,8.5l0,0.3c-0.4,2.7-0.8,4.6-1.3,5.6l-3-2.2c-0.5,0.1-0.9,0.4-1.3,0.8
	c-0.3,0.4-0.4,0.8-0.4,1.3c0,0.6,0.2,1.2,0.7,1.6c0.5,0.4,1.1,0.6,1.7,0.6c0.8,0,1.7-0.2,2.4-0.6c0.9-0.5,1.6-1.1,2.3-1.8
	c0.9-1,1.7-2.1,2.2-3.4c0.6-1.4,1-2.8,1.2-4.3l0.9-6.2h3.9v-1.9h-3.6c0.2-0.9,0.4-1.8,0.7-2.6c0.3-0.9,0.6-1.8,1-2.7l2.4,2.9
	C391.1,9.3,391.7,9,392.1,8.6z M398.9,13.8c0.4,0.8,0.6,1.7,0.5,2.6c0.1,1.6-0.3,3.3-0.9,4.8c-0.6,1.2-1.4,1.9-2.3,1.9
	c-0.6,0-1.2-0.3-1.6-0.8c-0.4-0.8-0.6-1.7-0.5-2.6c-0.1-1.7,0.3-3.3,0.9-4.8c0.6-1.2,1.4-1.8,2.4-1.8
	C397.9,13,398.5,13.3,398.9,13.8L398.9,13.8z M394.6,11.8c-0.9,0.3-1.8,0.8-2.5,1.4c-0.8,0.7-1.5,1.6-2,2.6c-0.4,1-0.7,2-0.7,3.1
	c0,1.8,0.5,3.3,1.6,4.3c1.1,1,2.6,1.5,4.5,1.5c2.2,0.1,4.4-0.7,6-2.2c1.6-1.5,2.4-3.5,2.3-5.7c0.1-1.5-0.5-3.1-1.7-4.1
	c-1.1-1-2.7-1.5-4.7-1.5C396.6,11.3,395.5,11.5,394.6,11.8L394.6,11.8z M414.6,13.8c0.4,0.8,0.6,1.7,0.5,2.6
	c0.1,1.6-0.3,3.3-0.9,4.8c-0.6,1.2-1.4,1.9-2.3,1.9c-0.6,0-1.2-0.3-1.6-0.8c-0.4-0.8-0.6-1.7-0.5-2.6c-0.1-1.7,0.3-3.3,0.9-4.8
	c0.6-1.2,1.4-1.8,2.4-1.8C413.7,13,414.3,13.3,414.6,13.8L414.6,13.8z M410.4,11.8c-2,0.7-3.6,2.1-4.5,4c-0.4,1-0.7,2-0.7,3.1
	c0,1.8,0.5,3.3,1.6,4.3s2.6,1.5,4.5,1.5c2.2,0.1,4.4-0.7,6-2.2c1.6-1.5,2.4-3.5,2.3-5.7c0.1-1.5-0.5-3.1-1.7-4.1
	c-1.1-1-2.7-1.5-4.7-1.5C412.3,11.3,411.3,11.5,410.4,11.8L410.4,11.8z M431.1,14.3l-1.2,6.9c-0.4,0.2-0.8,0.4-1.3,0.6
	c-0.3,0.1-0.7,0.2-1,0.2c-0.6,0-1.2-0.2-1.5-0.7c-0.4-0.6-0.6-1.3-0.5-2.1c0-1.1,0.2-2.2,0.6-3.3c0.3-1,0.9-1.8,1.6-2.6
	c0.2-0.2,0.5-0.4,0.9-0.6c0.3-0.1,0.7-0.2,1.1-0.2c0.1,0,0.2,0,0.3,0s0.1,0,0.2,0L431.1,14.3z M429.9,6.5v1l2.3,0.4l-0.7,3.8
	c-0.5-0.1-0.9-0.2-1.4-0.3c-0.4-0.1-0.9-0.1-1.3-0.1c-1,0-1.9,0.2-2.8,0.5c-0.9,0.3-1.7,0.9-2.3,1.6c-0.8,0.8-1.4,1.8-1.9,2.8
	c-0.4,1.1-0.7,2.2-0.7,3.4c-0.1,1.3,0.4,2.6,1.2,3.6c0.7,0.9,1.8,1.4,3,1.4c0.7,0,1.4-0.2,2-0.5c0.9-0.4,1.8-1,2.6-1.6
	c0,0.6,0.3,1.1,0.8,1.5c0.5,0.4,1.2,0.5,1.8,0.5c0.7,0,1.4-0.1,2.2-0.3c0.9-0.2,1.8-0.5,2.6-0.9v-1.3c-0.4,0.1-0.8,0.2-1.1,0.3
	c-0.2,0.1-0.5,0.1-0.7,0.1c-0.4,0-0.7-0.1-1-0.3c-0.2-0.3-0.3-0.6-0.3-1c0-0.3,0.1-0.7,0.1-1c0-0.1,0-0.2,0-0.2l2.6-14.7h-1.5
	L429.9,6.5z M456,21.2c-0.3,0.2-0.7,0.4-1,0.5c-0.3,0.1-0.7,0.2-1,0.3c-0.3,0.1-0.6,0.1-0.9,0.1c-0.8,0-1.5-0.3-2-0.9
	c-0.5-0.7-0.8-1.6-0.7-2.5c0-1.2,0.2-2.4,0.7-3.5c0.4-1,1-1.8,1.8-2.4l1.9,3.4c0.8,0,1.5-0.3,2.1-0.8c0.5-0.4,0.8-1.1,0.8-1.7
	c0-0.7-0.3-1.4-0.9-1.8c-0.8-0.5-1.7-0.7-2.7-0.6c-1.2,0-2.3,0.2-3.4,0.7c-1.1,0.4-2,1.1-2.8,1.9c-0.7,0.7-1.2,1.5-1.5,2.4
	c-0.4,0.9-0.5,1.9-0.5,2.9c-0.1,1.4,0.4,2.8,1.4,3.9c0.9,1,2.3,1.5,3.6,1.5c1.1,0,2.1-0.2,3.1-0.6c1.2-0.5,2.2-1.1,3.2-1.8v-1.8
	C456.8,20.7,456.4,21,456,21.2L456,21.2z M468.1,13.8c0.4,0.8,0.6,1.7,0.5,2.6c0.1,1.6-0.3,3.3-0.9,4.8c-0.6,1.2-1.4,1.9-2.3,1.9
	c-0.6,0-1.2-0.3-1.6-0.8c-0.4-0.8-0.6-1.7-0.5-2.6c-0.1-1.7,0.3-3.3,0.9-4.8c0.6-1.2,1.4-1.8,2.4-1.8
	C467.2,13,467.8,13.3,468.1,13.8L468.1,13.8z M463.9,11.8c-0.9,0.3-1.8,0.8-2.5,1.4c-0.8,0.7-1.5,1.6-2,2.6c-0.4,1-0.7,2-0.7,3.1
	c0,1.8,0.5,3.3,1.6,4.3c1.1,1,2.6,1.5,4.5,1.5c2.2,0.1,4.4-0.7,6-2.2c1.6-1.5,2.4-3.5,2.3-5.7c0.1-1.5-0.5-3.1-1.7-4.1
	c-1.1-1-2.7-1.5-4.7-1.5C465.8,11.3,464.8,11.5,463.9,11.8L463.9,11.8z M474.6,12.6v1.2l2.1,0.2l-2,10.4h4.2l1.6-9.2
	c0.5-0.3,1-0.6,1.5-0.8c0.4-0.2,0.8-0.3,1.3-0.3c0.4,0,0.7,0.1,1,0.3c0.3,0.3,0.4,0.6,0.4,1c0,0.1,0,0.2,0,0.3
	c0,0.1-0.1,0.4-0.1,0.7l-1.5,8h4.3l1.5-9.1c0.5-0.3,1-0.6,1.5-0.8c0.4-0.2,0.8-0.3,1.3-0.3c0.7-0.1,1.3,0.3,1.4,1c0,0.1,0,0.3,0,0.4
	c0,0.2,0,0.3,0,0.5c0,0.2-0.1,0.4-0.1,0.7l-1,4.3c-0.1,0.2-0.1,0.5-0.1,0.7c0,0.2,0,0.5,0,0.7c0,0.6,0.2,1.2,0.6,1.6
	c0.5,0.4,1.1,0.6,1.7,0.6c0.7,0,1.5-0.1,2.2-0.3c1-0.2,2-0.5,2.9-0.9v-1.3c-0.4,0.1-0.8,0.2-1.1,0.3c-0.2,0.1-0.5,0.1-0.7,0.1
	c-0.4,0-0.7-0.1-1-0.3c-0.2-0.3-0.3-0.6-0.3-1c0-0.4,0-0.7,0.1-1.1c0.1-0.5,0.2-1,0.3-1.6l0.7-3.1c0.1-0.2,0.1-0.5,0.1-0.7
	c0-0.2,0-0.4,0-0.5c0-0.8-0.3-1.6-0.8-2.1c-0.6-0.6-1.3-0.8-2.1-0.8c-0.9,0-1.8,0.3-2.5,0.7c-1,0.5-2,1.2-2.9,2c0-0.7-0.3-1.5-0.8-2
	c-0.6-0.5-1.3-0.7-2.1-0.7c-0.9,0-1.8,0.3-2.5,0.7c-1,0.5-2,1.2-2.8,2l0.6-2.7h-1.4L474.6,12.6z M505.6,24.4
	c0.3,0.1,0.6,0.1,0.9,0.1c2.2,0.1,4.3-0.8,5.9-2.4c1.6-1.6,2.4-3.8,2.3-6c0.1-1.2-0.3-2.5-1.1-3.4c-0.7-0.8-1.8-1.3-2.9-1.3
	c-0.8,0-1.5,0.2-2.2,0.5c-0.8,0.4-1.6,0.9-2.3,1.5l0.4-2H505l-5.2,1.2v1.2l2.1,0.2l-2.4,13.9l-0.2,0.4l-1.7,0.5v1.3h8.5v-1.2
	l-2.5-0.5l0.7-4.2C504.8,24.2,505.2,24.3,505.6,24.4L505.6,24.4z M506,14.7c0.4-0.3,0.8-0.5,1.3-0.7c0.3-0.1,0.7-0.2,1.1-0.2
	c0.5,0,1.1,0.2,1.4,0.7c0.4,0.6,0.5,1.2,0.5,1.9c0.1,1.6-0.4,3.2-1.2,4.6c-0.8,1.2-1.9,1.8-3.1,1.8c-0.2,0-0.5,0-0.7-0.1
	c-0.2,0-0.5-0.1-0.7-0.2L506,14.7z M526.2,14.4l-1.2,6.8c-0.5,0.2-0.9,0.4-1.4,0.6c-0.3,0.1-0.6,0.2-1,0.2c-0.6,0-1.2-0.2-1.5-0.7
	c-0.4-0.7-0.6-1.4-0.5-2.2c-0.1-1.6,0.4-3.2,1.2-4.5c0.8-1.2,1.8-1.8,2.9-1.8c0.1,0,0.2,0,0.2,0c0,0,0.1,0,0.1,0L526.2,14.4z
	 M525.6,11.5c-0.5-0.1-1.1-0.2-1.7-0.2c-0.9,0-1.9,0.1-2.8,0.5c-0.8,0.3-1.6,0.7-2.3,1.3c-1.9,1.6-3,4-2.9,6.5
	c-0.1,1.3,0.3,2.6,1.1,3.7c0.7,0.9,1.8,1.4,3,1.3c0.8,0,1.6-0.2,2.3-0.5c0.9-0.4,1.7-0.9,2.5-1.5c0,0.6,0.2,1.1,0.6,1.5
	c0.5,0.4,1.2,0.6,1.8,0.5c0.8,0,1.6-0.1,2.3-0.3c0.9-0.2,1.7-0.5,2.5-0.8l0.1-1.3c-0.3,0.1-0.7,0.2-1.1,0.3
	c-0.3,0.1-0.6,0.1-0.8,0.1c-0.3,0-0.7-0.1-0.9-0.4c-0.2-0.3-0.3-0.7-0.3-1.1c0-0.2,0-0.5,0-0.7c0-0.3,0.1-0.5,0.1-0.8l1.7-8.4h-1.8
	l-1.5,0.7C527,11.8,526.3,11.6,525.6,11.5L525.6,11.5z M532.9,12.7v1.1l2.2,0.2l-2.1,10.4h4.5l1.5-9c0.6-0.4,1.1-0.7,1.8-1
	c0.3-0.2,0.7-0.3,1.1-0.3c0.3,0,0.7,0.1,0.9,0.4c0.2,0.3,0.4,0.7,0.3,1c0,0.3,0,0.5-0.1,0.8c0,0.3-0.1,0.6-0.2,1l-0.8,3.8
	c0,0,0,0.1,0,0.2c-0.1,0.4-0.2,0.9-0.2,1.3c0,0.6,0.2,1.1,0.6,1.5c0.5,0.4,1.1,0.6,1.8,0.5c0.7,0,1.4-0.1,2.1-0.3
	c1-0.2,1.9-0.5,2.8-0.8v-1.2c-0.3,0.1-0.7,0.2-1,0.3c-0.2,0.1-0.5,0.1-0.7,0.1c-0.4,0-0.7-0.1-1-0.4c-0.2-0.3-0.4-0.7-0.3-1.1
	c0-0.3,0-0.6,0.1-0.8c0.1-0.4,0.1-0.8,0.2-1.2l0.7-3.1c0.1-0.4,0.2-0.8,0.2-1.1c0-0.3,0.1-0.6,0.1-0.9c0-0.8-0.3-1.5-0.8-2
	c-0.6-0.5-1.3-0.8-2.1-0.8c-0.8,0-1.6,0.3-2.3,0.7c-1.1,0.6-2.1,1.3-3.1,2.1l0.6-2.7h-1.4L532.9,12.7z M548.9,12.4v1.1l2.5,0.3
	l1.8,9.8h2c-0.5,1-1.2,1.9-1.9,2.8c-0.4,0.5-1,0.9-1.6,1.1l-2-1.8c-0.5,0.1-1,0.4-1.3,0.9c-0.3,0.4-0.5,0.9-0.5,1.5
	c0,0.6,0.2,1.1,0.6,1.6c0.4,0.4,1,0.6,1.7,0.6c1.1-0.1,2.2-0.5,3-1.3c1.2-1.1,2.3-2.4,3.1-3.8c1-1.8,1.9-3.6,2.7-5.5
	c0.9-2,1.9-3.9,3.1-5.8l1.8-0.9V12l-2.2-0.7h-1.1c-1,2.3-2.3,5.1-3.7,8.6l-0.4,1l-1-7.1c-0.1-0.5-0.2-0.9-0.3-1.4
	c-0.1-0.4-0.3-0.7-0.6-1.1h-1.5L548.9,12.4z M117.8,46.1c0.4-0.7,1.2-1.1,2-1.2c0.3,0,0.7,0.1,0.9,0.3c0.2,0.2,0.4,0.6,0.3,0.9
	c0,0.7-0.4,1.4-1.3,2c-0.9,0.6-2,1-3.2,1.1C116.7,48.1,117.1,47,117.8,46.1L117.8,46.1z M116.7,50.6c2.5,0,4.4-0.4,5.7-1.1
	c1.4-0.7,2-1.8,2-3.1c0-0.9-0.3-1.7-1-2.2c-0.8-0.6-1.7-0.9-2.7-0.8c-1,0-2.1,0.2-3.1,0.5c-0.9,0.3-1.8,0.8-2.6,1.4
	c-0.9,0.7-1.7,1.7-2.2,2.7c-0.5,1-0.8,2.2-0.7,3.3c-0.1,1.5,0.4,2.9,1.4,4c1,1,2.4,1.6,3.8,1.5c1,0,2-0.2,3-0.6
	c1.2-0.5,2.3-1.1,3.4-1.8v-2c-0.7,0.5-1.5,1-2.3,1.3c-0.7,0.3-1.4,0.4-2.1,0.5c-0.8,0.1-1.6-0.3-2.2-0.9c-0.6-0.7-0.8-1.6-0.8-2.5
	v-0.2L116.7,50.6L116.7,50.6z M139.6,47.1c0.4-0.5,0.7-1.1,0.6-1.8c0-0.5-0.2-1-0.5-1.4c-0.4-0.4-0.8-0.5-1.3-0.5
	c-0.8,0-1.6,0.4-2.2,1c-1,1-1.8,2.1-2.4,3.3c-0.2-0.8-0.5-1.5-0.8-2.2c-0.3-0.7-0.5-1.3-0.9-2h-1.3l-4.6,1.4v1.2l2.7,0.1
	c0.3,0.7,0.6,1.5,0.9,2.3c0.3,0.8,0.6,1.6,0.9,2.4c-0.4,0.5-0.8,1.1-1.2,1.5c-0.4,0.5-0.9,0.9-1.4,1.3l-1.1-1.6
	c-0.7,0.2-1.3,0.6-1.7,1.1c-0.4,0.4-0.6,1-0.6,1.6c0,0.5,0.2,1.1,0.6,1.4c0.4,0.4,0.9,0.6,1.4,0.6c0.7,0,1.5-0.3,2-0.9
	c1.1-1.1,2-2.3,2.8-3.6c0.4,1.8,0.9,3,1.4,3.6c0.6,0.6,1.4,1,2.3,0.9c0.6,0,1.2-0.1,1.9-0.2c0.8-0.1,1.7-0.3,2.8-0.5v-1.3
	c-0.2,0-0.4,0.1-0.7,0.1c-0.2,0-0.4,0-0.7,0c-0.6,0-1.2-0.1-1.7-0.5c-0.5-0.4-0.8-1-1-1.6l-1.2-3.8c0.3-0.5,0.7-1,1.1-1.4
	c0.4-0.4,0.9-0.8,1.4-1.2l1,1.8C138.5,48,139.1,47.6,139.6,47.1L139.6,47.1z M146.8,56.4c0.3,0.1,0.6,0.1,0.9,0.1
	c2.2,0.1,4.3-0.8,5.9-2.4c1.6-1.6,2.4-3.8,2.3-6c0.1-1.2-0.3-2.5-1.1-3.4c-0.7-0.8-1.8-1.3-2.9-1.3c-0.8,0-1.5,0.2-2.2,0.5
	c-0.8,0.4-1.6,0.9-2.3,1.5l0.4-2h-1.6l-5.2,1.2v1.2l2.1,0.2l-2.4,13.9l-0.2,0.4l-1.7,0.5v1.3h8.5v-1.2l-2.5-0.6l0.7-4.2
	C146,56.3,146.4,56.3,146.8,56.4z M147.2,46.8c0.4-0.3,0.8-0.5,1.3-0.7c0.3-0.1,0.7-0.2,1.1-0.2c0.5,0,1.1,0.2,1.4,0.7
	c0.4,0.6,0.5,1.2,0.5,1.9c0.1,1.6-0.4,3.2-1.2,4.6c-0.6,1.1-1.8,1.8-3.1,1.8c-0.5,0-0.9-0.1-1.3-0.3L147.2,46.8z M162.7,46.1
	c0.4-0.7,1.2-1.1,2-1.2c0.3,0,0.7,0.1,0.9,0.3c0.2,0.2,0.4,0.6,0.3,0.9c0,0.7-0.4,1.4-1.3,2c-0.9,0.6-2,1-3.2,1.1
	C161.6,48.1,162.1,47,162.7,46.1L162.7,46.1z M161.6,50.6c2.5,0,4.4-0.4,5.7-1.1c1.4-0.7,2-1.8,2-3.1c0-0.9-0.3-1.7-1-2.2
	c-0.8-0.6-1.7-0.9-2.7-0.8c-1,0-2.1,0.2-3.1,0.5c-0.9,0.3-1.8,0.8-2.6,1.4c-0.9,0.7-1.7,1.7-2.2,2.7c-0.5,1-0.8,2.2-0.7,3.3
	c-0.1,1.5,0.4,2.9,1.4,4c1,1,2.4,1.6,3.8,1.5c1,0,2-0.2,3-0.6c1.2-0.5,2.3-1.1,3.4-1.8v-2c-0.7,0.5-1.5,1-2.3,1.3
	c-0.7,0.3-1.4,0.4-2.1,0.5c-0.8,0.1-1.6-0.3-2.2-0.9c-0.6-0.7-0.8-1.6-0.8-2.5v-0.2L161.6,50.6L161.6,50.6z M182.7,47.8
	c0.6-0.6,1-1.4,0.9-2.2c0-0.6-0.2-1.2-0.6-1.7c-0.4-0.4-1-0.7-1.6-0.7c-0.8,0-1.6,0.3-2.2,0.8c-1,0.8-2,1.8-2.8,2.9l0.7-3.6h-1.2
	l-5.3,1.3v1.1l2.3,0.2l-2.1,10.5h4.3l1-5.9c0.1-1,0.5-2,1.1-2.8c0.6-0.8,1.4-1.4,2.2-1.7l0.8,2.5C181.2,48.6,182,48.3,182.7,47.8
	L182.7,47.8z M184.4,44.5v1.2l2.2,0.3l-1.3,6.2c-0.1,0.5-0.2,1-0.3,1.4c0,0.3-0.1,0.6-0.1,0.9c0,0.6,0.2,1.2,0.6,1.7
	c0.6,0.4,1.3,0.6,1.9,0.6c0.7,0,1.5-0.1,2.2-0.3c1-0.2,2-0.5,2.9-0.9v-1.3c-0.5,0.1-1,0.2-1.3,0.3c-0.3,0.1-0.5,0.1-0.8,0.1
	c-0.3,0-0.6-0.1-0.8-0.3c-0.2-0.2-0.3-0.5-0.3-0.9c0-0.3,0-0.6,0.1-1c0-0.4,0.1-0.8,0.2-1.2l1.6-7.8h-1.6L184.4,44.5z M188.3,37.8
	c-0.5,0.5-0.8,1.1-0.8,1.8c0,0.5,0.2,1,0.6,1.4c0.4,0.4,1,0.6,1.5,0.5c0.7,0,1.4-0.2,2-0.7c0.5-0.5,0.8-1.1,0.8-1.8
	c0-0.5-0.2-1.1-0.6-1.4c-0.5-0.4-1-0.5-1.6-0.5C189.5,37,188.8,37.3,188.3,37.8L188.3,37.8z M199,46.1c0.4-0.7,1.2-1.1,2-1.2
	c0.3,0,0.7,0.1,0.9,0.3c0.2,0.2,0.4,0.6,0.3,0.9c0,0.7-0.4,1.4-1.3,2c-0.9,0.6-2,1-3.2,1.1C197.9,48.1,198.4,47,199,46.1L199,46.1z
	 M197.9,50.6c2.5,0,4.4-0.4,5.7-1.1c1.4-0.7,2-1.8,2-3.1c0-0.9-0.3-1.7-1-2.2c-0.8-0.6-1.7-0.9-2.7-0.8c-1,0-2.1,0.2-3.1,0.5
	c-0.9,0.3-1.8,0.8-2.6,1.4c-0.9,0.7-1.7,1.7-2.2,2.7c-0.5,1-0.8,2.2-0.7,3.3c-0.1,1.5,0.4,2.9,1.4,4c1,1,2.4,1.6,3.8,1.5
	c1,0,2-0.2,3-0.6c1.2-0.5,2.3-1.1,3.4-1.8v-2c-0.7,0.5-1.5,1-2.3,1.3c-0.7,0.3-1.4,0.4-2.1,0.5c-0.8,0.1-1.6-0.3-2.2-0.9
	c-0.6-0.7-0.8-1.6-0.8-2.5v-0.2L197.9,50.6L197.9,50.6z M207,44.8v1.1l2.2,0.2l-2.1,10.4h4.5l1.5-9c0.6-0.4,1.1-0.7,1.8-1
	c0.3-0.2,0.7-0.3,1.1-0.3c0.3,0,0.7,0.1,0.9,0.4c0.2,0.3,0.4,0.7,0.3,1c0,0.3,0,0.5-0.1,0.8c0,0.3-0.1,0.6-0.2,1l-0.8,3.8
	c0,0,0,0.1,0,0.2c-0.1,0.4-0.2,0.9-0.2,1.3c0,0.6,0.2,1.1,0.6,1.5c0.5,0.4,1.1,0.6,1.8,0.5c0.7,0,1.4-0.1,2.1-0.3
	c1-0.2,1.9-0.5,2.8-0.8v-1.2c-0.3,0.1-0.7,0.2-1,0.3c-0.2,0.1-0.5,0.1-0.7,0.1c-0.4,0-0.7-0.1-1-0.4c-0.2-0.3-0.4-0.7-0.3-1.1
	c0-0.3,0-0.6,0.1-0.8c0.1-0.4,0.1-0.8,0.2-1.2l0.7-3.1c0.1-0.4,0.2-0.8,0.2-1.1c0-0.3,0.1-0.6,0.1-0.9c0-0.8-0.3-1.5-0.8-2
	c-0.6-0.5-1.3-0.8-2.1-0.8c-0.8,0-1.6,0.3-2.3,0.7c-1.1,0.6-2.1,1.3-3.1,2.1l0.6-2.7h-1.4L207,44.8z M234.1,53.2
	c-0.3,0.2-0.7,0.4-1,0.5c-0.3,0.1-0.7,0.2-1,0.3c-0.3,0.1-0.6,0.1-0.9,0.1c-0.8,0-1.5-0.3-2-0.9c-0.5-0.7-0.8-1.6-0.7-2.5
	c0-1.2,0.2-2.4,0.7-3.5c0.4-1,1-1.8,1.8-2.4l1.9,3.4c0.8,0,1.5-0.3,2.1-0.8c0.5-0.4,0.8-1.1,0.8-1.7c0-0.7-0.3-1.4-0.9-1.8
	c-0.8-0.5-1.7-0.7-2.7-0.6c-1.2,0-2.3,0.2-3.4,0.7c-1.1,0.4-2,1.1-2.8,1.9c-0.7,0.7-1.2,1.5-1.5,2.4c-0.4,0.9-0.5,1.9-0.5,2.9
	c-0.1,1.4,0.4,2.8,1.4,3.9c0.9,1,2.3,1.5,3.6,1.5c1.1,0,2.1-0.2,3.1-0.6c1.2-0.5,2.2-1.1,3.2-1.8v-1.8
	C234.9,52.8,234.5,53,234.1,53.2L234.1,53.2z M242.3,46.1c0.4-0.7,1.2-1.1,2-1.2c0.3,0,0.7,0.1,0.9,0.3c0.2,0.2,0.4,0.6,0.3,0.9
	c0,0.7-0.4,1.4-1.3,2c-0.9,0.6-2,1-3.2,1.1C241.3,48.1,241.7,47,242.3,46.1L242.3,46.1z M241.2,50.6c2.5,0,4.4-0.4,5.7-1.1
	c1.4-0.7,2-1.8,2-3.1c0-0.9-0.3-1.7-1-2.2c-0.8-0.6-1.7-0.9-2.7-0.8c-1,0-2.1,0.2-3.1,0.5c-0.9,0.3-1.8,0.8-2.6,1.4
	c-0.9,0.7-1.7,1.7-2.2,2.7c-0.5,1-0.8,2.2-0.7,3.3c-0.1,1.5,0.4,2.9,1.4,4c1,1,2.4,1.6,3.8,1.5c1,0,2-0.2,3-0.6
	c1.2-0.5,2.3-1.1,3.4-1.8v-2c-0.7,0.5-1.5,1-2.3,1.3c-0.7,0.3-1.4,0.4-2.1,0.5c-0.8,0.1-1.6-0.3-2.2-0.9c-0.6-0.7-0.8-1.6-0.8-2.5
	v-0.2L241.2,50.6L241.2,50.6z M259.3,38.5l0,1l2.3,0.3l-3.4,16.7h4.3l1.6-8.9c0.6-0.4,1.1-0.7,1.8-1c0.4-0.2,0.8-0.3,1.2-0.3
	c0.3,0,0.7,0.1,0.9,0.4c0.2,0.3,0.4,0.7,0.3,1c0,0.2,0,0.5-0.1,0.7c0,0.3-0.1,0.6-0.2,1l-0.8,3.8c0,0,0,0.1,0,0.2
	c-0.1,0.4-0.2,0.9-0.2,1.3c0,0.6,0.2,1.1,0.6,1.5c0.5,0.4,1.1,0.6,1.8,0.5c0.7,0,1.4-0.1,2.1-0.3c1-0.2,1.9-0.5,2.8-0.8v-1.2
	c-0.3,0.1-0.7,0.2-1,0.3c-0.2,0.1-0.5,0.1-0.7,0.1c-0.4,0-0.7-0.1-1-0.4c-0.2-0.3-0.4-0.7-0.3-1.1c0-0.3,0-0.6,0.1-0.8
	c0.1-0.4,0.1-0.8,0.2-1.2l0.7-3.1c0.1-0.4,0.2-0.8,0.2-1.1c0-0.3,0.1-0.5,0.1-0.8c0-0.8-0.3-1.5-0.8-2c-0.6-0.5-1.3-0.8-2.1-0.8
	c-0.8,0-1.6,0.3-2.3,0.7c-1.1,0.6-2.1,1.3-3.1,2l1.9-8.8h-1.5L259.3,38.5z M280.7,46.1c0.4-0.7,1.2-1.1,2-1.2c0.3,0,0.7,0.1,0.9,0.3
	c0.2,0.2,0.4,0.6,0.3,0.9c0,0.7-0.4,1.4-1.3,2c-0.9,0.6-2,1-3.2,1.1C279.7,48.1,280.1,47,280.7,46.1L280.7,46.1z M279.7,50.6
	c2.5,0,4.4-0.4,5.7-1.1c1.4-0.7,2-1.8,2-3.1c0-0.9-0.3-1.7-1-2.2c-0.8-0.6-1.7-0.9-2.7-0.8c-1,0-2.1,0.2-3.1,0.5
	c-0.9,0.3-1.8,0.8-2.6,1.4c-0.9,0.7-1.7,1.7-2.2,2.7c-0.5,1-0.8,2.2-0.7,3.3c-0.1,1.5,0.4,2.9,1.4,4c1,1,2.4,1.6,3.8,1.5
	c1,0,2-0.2,3-0.6c1.2-0.5,2.3-1.1,3.4-1.8v-2c-0.7,0.5-1.5,1-2.3,1.3c-0.7,0.3-1.4,0.4-2.1,0.5c-0.8,0.1-1.6-0.3-2.2-0.9
	c-0.6-0.7-0.8-1.6-0.8-2.5v-0.2L279.7,50.6L279.7,50.6z M298.7,46.4l-1.2,6.8c-0.5,0.2-0.9,0.4-1.4,0.6c-0.3,0.1-0.6,0.2-1,0.2
	c-0.6,0-1.2-0.2-1.5-0.7c-0.4-0.7-0.6-1.4-0.5-2.2c-0.1-1.6,0.4-3.2,1.2-4.5c0.8-1.2,1.8-1.8,2.9-1.8c0.1,0,0.2,0,0.2,0
	c0,0,0.1,0,0.1,0L298.7,46.4z M298.1,43.5c-0.5-0.1-1.1-0.2-1.7-0.2c-0.9,0-1.9,0.1-2.8,0.5c-0.8,0.3-1.6,0.7-2.3,1.3
	c-1.9,1.6-3,4-2.9,6.5c-0.1,1.3,0.3,2.6,1.1,3.7c0.7,0.9,1.8,1.4,3,1.3c0.8,0,1.6-0.2,2.3-0.5c0.9-0.4,1.7-0.9,2.5-1.5
	c0,0.6,0.2,1.1,0.6,1.5c0.5,0.4,1.2,0.6,1.8,0.5c0.8,0,1.6-0.1,2.3-0.3c0.9-0.2,1.7-0.5,2.5-0.8l0.1-1.3c-0.3,0.1-0.7,0.2-1.1,0.3
	c-0.3,0.1-0.6,0.1-0.8,0.1c-0.3,0-0.7-0.1-0.9-0.4c-0.2-0.3-0.3-0.7-0.3-1.1c0-0.2,0-0.5,0-0.7c0-0.3,0.1-0.5,0.1-0.8l1.7-8.4h-1.8
	l-1.5,0.7C299.5,43.9,298.8,43.7,298.1,43.5L298.1,43.5z M306.2,38.5v1.1l2.3,0.3l-2.4,11.9c-0.1,0.5-0.2,1-0.2,1.5
	c-0.1,0.4-0.1,0.7-0.1,1.1c0,0.6,0.2,1.3,0.7,1.7c0.5,0.4,1.2,0.7,1.9,0.6c0.7,0,1.3-0.1,2-0.3c0.8-0.2,1.8-0.5,3.1-0.9v-1.2
	c-0.4,0.1-0.8,0.2-1.2,0.3c-0.3,0.1-0.6,0.1-0.9,0.1c-0.3,0-0.6-0.1-0.9-0.3c-0.2-0.3-0.3-0.6-0.3-0.9c0-0.3,0-0.5,0.1-0.8
	c0.1-0.3,0.1-0.8,0.3-1.5l2.6-13.8h-1.6L306.2,38.5z M317.1,43.3l-2.7,1.4v1.1h1.9l-1.2,6.7c-0.1,0.4-0.1,0.7-0.1,0.9
	c0,0.2,0,0.4,0,0.7c0,0.7,0.2,1.4,0.8,1.9c0.6,0.5,1.4,0.7,2.2,0.7c0.7,0,1.3-0.1,2-0.3c0.8-0.2,1.9-0.5,3.2-0.8v-1.5
	c-0.6,0.2-1.1,0.3-1.5,0.4c-0.3,0.1-0.6,0.1-0.9,0.1c-0.4,0-0.7-0.1-1-0.3c-0.2-0.3-0.4-0.6-0.4-0.9c0-0.3,0-0.5,0-0.8
	c0-0.3,0.1-0.6,0.1-0.9l1.1-5.8h3.9v-1.9h-3.5l0.7-3.7h-2.2L317.1,43.3z M325.4,38.5l0,1l2.3,0.3l-3.4,16.7h4.3l1.6-8.9
	c0.6-0.4,1.1-0.7,1.8-1c0.4-0.2,0.8-0.3,1.2-0.3c0.3,0,0.7,0.1,0.9,0.4c0.2,0.3,0.4,0.7,0.3,1c0,0.2,0,0.5-0.1,0.7
	c0,0.3-0.1,0.6-0.2,1l-0.8,3.8c0,0,0,0.1,0,0.2c-0.1,0.4-0.2,0.9-0.2,1.3c0,0.6,0.2,1.1,0.6,1.5c0.5,0.4,1.1,0.6,1.8,0.5
	c0.7,0,1.4-0.1,2.1-0.3c1-0.2,1.9-0.5,2.8-0.8v-1.2c-0.3,0.1-0.7,0.2-1,0.3c-0.2,0.1-0.5,0.1-0.7,0.1c-0.4,0-0.7-0.1-1-0.4
	c-0.2-0.3-0.4-0.7-0.3-1.1c0-0.3,0-0.6,0.1-0.8c0.1-0.4,0.1-0.8,0.2-1.2l0.7-3.1c0.1-0.4,0.2-0.8,0.2-1.1c0-0.3,0.1-0.5,0.1-0.8
	c0-0.8-0.3-1.5-0.8-2c-0.6-0.5-1.3-0.8-2.1-0.8c-0.8,0-1.6,0.3-2.3,0.7c-1.1,0.6-2.1,1.3-3.1,2l1.9-8.8h-1.5L325.4,38.5z
	 M340.2,44.4v1.1l2.5,0.3l1.8,9.8h2c-0.5,1-1.2,1.9-1.9,2.8c-0.4,0.5-1,0.9-1.6,1.1l-2-1.8c-0.5,0.1-1,0.4-1.3,0.9
	c-0.3,0.4-0.5,0.9-0.5,1.5c0,0.6,0.2,1.1,0.6,1.6c0.5,0.4,1.1,0.6,1.7,0.6c1.1-0.1,2.2-0.5,3-1.3c1.2-1.1,2.3-2.4,3.1-3.8
	c1-1.8,1.9-3.6,2.8-5.5c0.9-2,1.9-3.9,3.1-5.8l1.8-0.9v-0.9l-2.2-0.7H352c-1,2.3-2.2,5.1-3.7,8.6l-0.4,1l-1-7.1
	c-0.1-0.5-0.2-0.9-0.3-1.4c-0.1-0.4-0.3-0.7-0.6-1.1h-1.5L340.2,44.4z M369.3,57.2c0.5,0.2,1,0.5,1.4,0.8c0.3,0.2,0.4,0.5,0.4,0.9
	c0,0.5-0.3,1-0.8,1.3c-0.6,0.4-1.2,0.5-1.9,0.5c-0.9,0-1.7-0.3-2.3-0.8c-0.6-0.4-1-1.1-1-1.9c0-0.4,0.1-0.7,0.3-1.1
	c0.2-0.4,0.5-0.7,0.8-1.1L369.3,57.2z M370.5,49.4c-0.5,0.9-1,1.3-1.7,1.3c-0.4,0-0.7-0.1-0.9-0.4c-0.2-0.3-0.4-0.8-0.3-1.2
	c0-1.1,0.2-2.1,0.7-3.1c0.5-0.9,1-1.3,1.6-1.3c0.4,0,0.7,0.1,0.9,0.4c0.2,0.3,0.3,0.7,0.3,1.1C371.3,47.3,371,48.4,370.5,49.4
	L370.5,49.4z M372.2,43.6c-0.7-0.1-1.4-0.2-2.2-0.2c-1.7-0.1-3.4,0.4-4.8,1.4c-1.2,0.8-1.9,2.1-1.8,3.6c0,0.9,0.3,1.9,1,2.5
	c0.8,0.7,1.7,1.1,2.8,1.2c-0.3,0.3-0.6,0.7-0.8,1.2c-0.2,0.4-0.3,0.9-0.4,1.4c-1.2,0.4-2.3,1-3.3,1.9c-0.6,0.5-1,1.3-1,2.2
	c0,1.1,0.6,2.1,1.6,2.5c1.1,0.6,2.6,0.9,4.7,0.9c1.1,0,2.3-0.2,3.3-0.5c1-0.3,1.9-0.7,2.8-1.4c0.4-0.3,0.8-0.7,1-1.1
	c0.2-0.4,0.4-0.9,0.4-1.4c0-0.6-0.2-1.1-0.6-1.6c-0.6-0.6-1.4-1.1-2.2-1.5l-4-1.9l0.3-0.7c2-0.1,3.5-0.6,4.7-1.6
	c1.1-0.8,1.8-2.2,1.7-3.6c0-0.2,0-0.4,0-0.6c0-0.2-0.1-0.4-0.1-0.6l2.8,0v-1.6h-3.6C373.6,43.9,372.9,43.7,372.2,43.6L372.2,43.6z
	 M390.5,47.8c0.6-0.6,1-1.4,0.9-2.2c0-0.6-0.2-1.2-0.6-1.7c-0.4-0.4-1-0.7-1.6-0.7c-0.8,0-1.6,0.3-2.2,0.8c-1,0.8-2,1.8-2.8,2.9
	l0.7-3.6h-1.2l-5.3,1.3v1.1l2.3,0.2l-2.1,10.5h4.3l1-5.9c0.1-1,0.5-2,1.1-2.8c0.6-0.8,1.4-1.4,2.2-1.7l0.8,2.5
	C388.9,48.6,389.8,48.3,390.5,47.8L390.5,47.8z M400.9,45.9c0.4,0.8,0.6,1.7,0.5,2.6c0.1,1.6-0.3,3.3-0.9,4.8
	c-0.6,1.2-1.4,1.9-2.3,1.9c-0.6,0-1.2-0.3-1.6-0.8c-0.4-0.8-0.6-1.7-0.5-2.6c-0.1-1.7,0.3-3.3,0.9-4.8c0.6-1.2,1.4-1.8,2.4-1.8
	C400,45,400.6,45.3,400.9,45.9L400.9,45.9z M396.6,43.9c-0.9,0.3-1.8,0.8-2.5,1.4c-0.8,0.7-1.5,1.6-2,2.6c-0.4,1-0.7,2-0.7,3.1
	c0,1.8,0.5,3.3,1.6,4.3c1.1,1,2.6,1.5,4.5,1.5c2.2,0.1,4.4-0.7,6-2.2c1.6-1.5,2.4-3.5,2.3-5.7c0.1-1.5-0.5-3.1-1.7-4.1
	c-1.1-1-2.7-1.5-4.7-1.5C398.6,43.4,397.6,43.5,396.6,43.9L396.6,43.9z M406.6,44.5v1.1l2.6,0.4l0.4,9.3l-0.3,1.2h3.3l4.9-8.9
	l0.6,8.9h3.1c3.1-3.7,5.1-6.2,5.9-7.6c0.9-1.4,1.3-2.5,1.3-3.4c0-0.6-0.2-1.1-0.6-1.5c-0.4-0.4-1-0.6-1.6-0.6c-0.3,0-0.7,0.1-1,0.2
	c-0.3,0.1-0.7,0.3-0.9,0.6l0.7,4.8l-3.4,4.6l-0.5-9.8l-3.9,0.3v0.7l-3.8,7.1l-0.3-6.3c0-0.3-0.1-0.6-0.1-1c0-0.4-0.1-0.8-0.2-1.3
	h-1.5L406.6,44.5z M432.5,43.3l-2.7,1.4v1.1h1.9l-1.2,6.7c-0.1,0.4-0.1,0.7-0.1,0.9c0,0.2,0,0.4,0,0.7c0,0.7,0.2,1.4,0.8,1.9
	c0.6,0.5,1.4,0.7,2.2,0.7c0.7,0,1.3-0.1,2-0.3c0.8-0.2,1.9-0.5,3.2-0.8v-1.5c-0.6,0.2-1.1,0.3-1.5,0.4c-0.3,0.1-0.6,0.1-0.9,0.1
	c-0.4,0-0.7-0.1-1-0.3c-0.2-0.3-0.4-0.6-0.4-0.9c0-0.2,0-0.5,0-0.8c0-0.3,0.1-0.6,0.1-0.9l1.1-5.8h3.9v-1.9h-3.5l0.7-3.7h-2.2
	L432.5,43.3z M440.7,38.5l0,1l2.3,0.3l-3.4,16.7h4.3l1.6-8.9c0.6-0.4,1.1-0.7,1.8-1c0.4-0.2,0.8-0.3,1.2-0.3c0.3,0,0.7,0.1,0.9,0.4
	c0.2,0.3,0.4,0.7,0.3,1c0,0.2,0,0.5-0.1,0.7c0,0.3-0.1,0.6-0.2,1l-0.8,3.8c0,0,0,0.1,0,0.2c-0.1,0.4-0.2,0.9-0.2,1.3
	c0,0.6,0.2,1.1,0.6,1.5c0.5,0.4,1.1,0.6,1.8,0.5c0.7,0,1.4-0.1,2.1-0.3c1-0.2,1.9-0.5,2.8-0.8v-1.2c-0.3,0.1-0.7,0.2-1,0.3
	c-0.2,0.1-0.5,0.1-0.7,0.1c-0.4,0-0.7-0.1-1-0.4c-0.2-0.3-0.4-0.7-0.3-1.1c0-0.3,0-0.6,0.1-0.8c0.1-0.4,0.1-0.8,0.2-1.2l0.7-3.1
	c0.1-0.4,0.2-0.8,0.2-1.1c0-0.3,0.1-0.5,0.1-0.8c0-0.8-0.3-1.5-0.8-2c-0.6-0.5-1.3-0.8-2.1-0.8c-0.8,0-1.6,0.3-2.3,0.7
	c-1.1,0.6-2.1,1.3-3.1,2l1.9-8.8h-1.5L440.7,38.5z"/>
</svg>
