<?xml version="1.0" encoding="utf-8"?>
<!-- Generator: Adobe Illustrator 16.0.4, SVG Export Plug-In . SVG Version: 6.00 Build 0)  -->
<!DOCTYPE svg PUBLIC "-//W3C//DTD SVG 1.1//EN" "http://www.w3.org/Graphics/SVG/1.1/DTD/svg11.dtd">
<svg version="1.1" id="Layer_1" xmlns="http://www.w3.org/2000/svg" xmlns:xlink="http://www.w3.org/1999/xlink" x="0px" y="0px"
	 width="217px" height="180px" viewBox="0 0 217 180" enable-background="new 0 0 217 180" xml:space="preserve">
<rect x="1.67" y="71.67" fill="#08314E" width="113.33" height="28.33"/>
<rect x="113.33" y="70" fill="#97C1D5" width="1.67" height="1.67"/>
<rect y="98.33" fill="#79A9BF" width="1.67" height="1.67"/>
<g>
	<rect y="70" fill="#06699C" width="113.33" height="28.33"/>
	<g>
		<path fill="#FFFFFF" d="M23.22,78.85v10.88h-1.29V78.85H23.22z"/>
		<path fill="#FFFFFF" d="M30.72,89.22c-0.59,0.45-1.33,0.67-2.22,0.67c-0.63,0-1.18-0.1-1.64-0.3S26,89.1,25.69,88.74
			c-0.31-0.37-0.55-0.8-0.71-1.31c-0.16-0.51-0.25-1.06-0.27-1.66c0-0.6,0.09-1.15,0.27-1.65c0.18-0.5,0.44-0.93,0.77-1.3
			c0.33-0.37,0.72-0.65,1.17-0.85s0.95-0.3,1.48-0.3c0.7,0,1.28,0.14,1.74,0.43c0.46,0.29,0.83,0.66,1.11,1.1
			c0.28,0.45,0.47,0.94,0.58,1.46c0.11,0.53,0.15,1.03,0.13,1.51h-5.89c-0.01,0.34,0.03,0.67,0.12,0.98
			c0.09,0.31,0.24,0.58,0.44,0.82c0.2,0.24,0.46,0.43,0.78,0.57c0.31,0.14,0.69,0.21,1.11,0.21c0.55,0,1-0.13,1.35-0.38
			c0.35-0.25,0.58-0.64,0.69-1.16h1.28C31.69,88.11,31.3,88.78,30.72,89.22z M30.4,84.16c-0.12-0.27-0.27-0.51-0.47-0.71
			c-0.2-0.2-0.43-0.36-0.7-0.47s-0.57-0.18-0.89-0.18c-0.33,0-0.64,0.06-0.91,0.18s-0.5,0.28-0.69,0.48s-0.35,0.44-0.46,0.71
			c-0.11,0.27-0.18,0.56-0.2,0.86h4.52C30.59,84.73,30.52,84.44,30.4,84.16z"/>
		<path fill="#FFFFFF" d="M39.27,89.9c-0.33,0-0.6-0.09-0.8-0.28c-0.2-0.19-0.3-0.5-0.3-0.92c-0.36,0.43-0.77,0.73-1.24,0.92
			s-0.98,0.28-1.53,0.28c-0.36,0-0.69-0.04-1.01-0.11c-0.31-0.08-0.59-0.2-0.83-0.38c-0.24-0.18-0.43-0.41-0.56-0.69
			S32.8,88.1,32.8,87.7c0-0.45,0.08-0.81,0.23-1.1c0.15-0.29,0.35-0.52,0.6-0.69c0.25-0.18,0.53-0.31,0.85-0.4s0.65-0.17,0.98-0.23
			c0.36-0.07,0.69-0.12,1.01-0.16c0.32-0.04,0.6-0.09,0.85-0.15s0.44-0.16,0.58-0.29c0.14-0.13,0.21-0.31,0.21-0.56
			c0-0.28-0.05-0.51-0.16-0.69c-0.11-0.17-0.24-0.3-0.41-0.4c-0.17-0.09-0.36-0.15-0.56-0.18c-0.21-0.03-0.41-0.05-0.62-0.05
			c-0.55,0-1.01,0.1-1.37,0.31c-0.37,0.21-0.56,0.6-0.59,1.18h-1.29c0.02-0.49,0.12-0.9,0.3-1.23c0.18-0.34,0.43-0.61,0.73-0.82
			c0.3-0.21,0.65-0.36,1.05-0.45c0.4-0.09,0.81-0.14,1.25-0.14c0.35,0,0.71,0.03,1.06,0.08c0.35,0.05,0.67,0.16,0.95,0.31
			c0.28,0.16,0.51,0.38,0.69,0.66s0.26,0.66,0.26,1.11v4.05c0,0.3,0.02,0.53,0.05,0.67c0.04,0.14,0.15,0.21,0.36,0.21
			c0.11,0,0.24-0.03,0.4-0.08v1.01C39.98,89.83,39.67,89.9,39.27,89.9z M37.46,85.92c-0.26,0.06-0.54,0.1-0.83,0.14
			c-0.29,0.04-0.58,0.08-0.88,0.12c-0.29,0.05-0.56,0.12-0.79,0.22c-0.23,0.1-0.42,0.25-0.57,0.43c-0.15,0.19-0.22,0.45-0.22,0.77
			c0,0.21,0.04,0.39,0.13,0.54s0.2,0.27,0.33,0.36c0.14,0.09,0.3,0.16,0.49,0.2c0.19,0.04,0.38,0.06,0.57,0.06
			c0.43,0,0.79-0.06,1.1-0.18c0.3-0.12,0.55-0.26,0.75-0.44s0.33-0.37,0.43-0.58c0.09-0.21,0.14-0.4,0.14-0.59v-1.33
			C37.94,85.78,37.73,85.87,37.46,85.92z"/>
		<path fill="#FFFFFF" d="M42.49,81.85v1.66h0.03c0.31-0.64,0.7-1.11,1.16-1.42s1.04-0.45,1.74-0.43v1.37
			c-0.52,0-0.96,0.07-1.33,0.21s-0.66,0.35-0.88,0.62c-0.22,0.27-0.39,0.61-0.49,1c-0.1,0.39-0.15,0.84-0.15,1.35v3.51h-1.29v-7.88
			H42.49z"/>
		<path fill="#FFFFFF" d="M47.51,81.85v1.25h0.03c0.54-0.96,1.39-1.43,2.56-1.43c0.52,0,0.95,0.07,1.29,0.21
			c0.35,0.14,0.62,0.34,0.84,0.59c0.21,0.25,0.36,0.56,0.45,0.91c0.09,0.35,0.13,0.74,0.13,1.17v5.18h-1.29v-5.33
			c0-0.49-0.14-0.87-0.43-1.16c-0.28-0.28-0.68-0.43-1.17-0.43c-0.4,0-0.74,0.06-1.03,0.18c-0.29,0.12-0.53,0.29-0.72,0.52
			c-0.19,0.22-0.34,0.49-0.43,0.79c-0.1,0.3-0.15,0.63-0.15,0.98v4.45h-1.29v-7.88H47.51z"/>
		<path fill="#FFFFFF" d="M60.03,81.85v1.16h0.03c0.59-0.89,1.44-1.34,2.54-1.34c0.49,0,0.93,0.1,1.32,0.3s0.68,0.55,0.84,1.04
			c0.26-0.43,0.61-0.76,1.04-0.99s0.91-0.35,1.42-0.35c0.4,0,0.75,0.04,1.07,0.13c0.32,0.09,0.59,0.22,0.82,0.4s0.41,0.42,0.53,0.71
			c0.13,0.29,0.19,0.64,0.19,1.04v5.78h-1.29v-5.17c0-0.24-0.02-0.47-0.06-0.69c-0.04-0.21-0.12-0.4-0.23-0.56
			c-0.11-0.16-0.27-0.28-0.46-0.37c-0.2-0.09-0.45-0.14-0.77-0.14c-0.64,0-1.14,0.18-1.51,0.55c-0.37,0.37-0.55,0.85-0.55,1.46v4.91
			h-1.29v-5.17c0-0.25-0.02-0.49-0.07-0.7c-0.05-0.21-0.12-0.4-0.24-0.56c-0.11-0.16-0.26-0.28-0.45-0.37
			c-0.19-0.09-0.43-0.13-0.72-0.13c-0.38,0-0.7,0.08-0.97,0.23s-0.49,0.33-0.65,0.55c-0.17,0.21-0.29,0.43-0.37,0.66
			s-0.11,0.42-0.11,0.57v4.91h-1.29v-7.88H60.03z"/>
		<path fill="#FFFFFF" d="M71.53,84.17c0.16-0.5,0.41-0.94,0.73-1.31c0.32-0.37,0.73-0.66,1.2-0.88c0.48-0.21,1.03-0.32,1.65-0.32
			c0.63,0,1.18,0.11,1.65,0.32c0.47,0.21,0.87,0.5,1.2,0.88c0.32,0.37,0.57,0.81,0.73,1.31c0.16,0.5,0.24,1.04,0.24,1.62
			s-0.08,1.12-0.24,1.62c-0.16,0.5-0.41,0.93-0.73,1.3c-0.33,0.37-0.72,0.66-1.2,0.87s-1.02,0.31-1.65,0.31
			c-0.62,0-1.17-0.1-1.65-0.31s-0.88-0.5-1.2-0.87c-0.33-0.37-0.57-0.8-0.73-1.3c-0.16-0.5-0.24-1.04-0.24-1.62
			S71.37,84.67,71.53,84.17z M72.85,87.07c0.13,0.37,0.3,0.68,0.53,0.93c0.22,0.25,0.48,0.44,0.78,0.57s0.62,0.2,0.95,0.2
			s0.65-0.07,0.95-0.2s0.56-0.32,0.78-0.57c0.22-0.25,0.4-0.56,0.53-0.93c0.13-0.37,0.19-0.79,0.19-1.27c0-0.48-0.06-0.9-0.19-1.27
			c-0.13-0.37-0.3-0.68-0.53-0.94c-0.22-0.25-0.49-0.45-0.78-0.58c-0.3-0.13-0.62-0.2-0.95-0.2s-0.65,0.07-0.95,0.2
			c-0.3,0.13-0.56,0.33-0.78,0.58c-0.22,0.25-0.4,0.57-0.53,0.94c-0.13,0.37-0.19,0.79-0.19,1.27
			C72.66,86.27,72.72,86.7,72.85,87.07z"/>
		<path fill="#FFFFFF" d="M81.54,81.85v1.66h0.03c0.31-0.64,0.7-1.11,1.16-1.42c0.46-0.3,1.04-0.45,1.74-0.43v1.37
			c-0.52,0-0.96,0.07-1.33,0.21c-0.37,0.14-0.66,0.35-0.88,0.62c-0.22,0.27-0.39,0.61-0.49,1c-0.1,0.39-0.15,0.84-0.15,1.35v3.51
			h-1.29v-7.88H81.54z"/>
		<path fill="#FFFFFF" d="M90.92,89.22c-0.59,0.45-1.33,0.67-2.22,0.67c-0.63,0-1.18-0.1-1.64-0.3c-0.46-0.2-0.85-0.49-1.17-0.85
			c-0.31-0.37-0.55-0.8-0.71-1.31c-0.16-0.51-0.25-1.06-0.27-1.66c0-0.6,0.09-1.15,0.27-1.65c0.18-0.5,0.44-0.93,0.77-1.3
			c0.33-0.37,0.72-0.65,1.17-0.85c0.45-0.2,0.95-0.3,1.48-0.3c0.7,0,1.28,0.14,1.74,0.43c0.46,0.29,0.83,0.66,1.11,1.1
			c0.28,0.45,0.47,0.94,0.58,1.46c0.11,0.53,0.15,1.03,0.13,1.51h-5.89c-0.01,0.34,0.03,0.67,0.12,0.98
			c0.09,0.31,0.24,0.58,0.44,0.82c0.2,0.24,0.46,0.43,0.78,0.57c0.31,0.14,0.69,0.21,1.11,0.21c0.55,0,1-0.13,1.35-0.38
			c0.35-0.25,0.58-0.64,0.69-1.16h1.28C91.89,88.11,91.51,88.78,90.92,89.22z M90.61,84.16c-0.12-0.27-0.27-0.51-0.47-0.71
			c-0.2-0.2-0.43-0.36-0.7-0.47s-0.57-0.18-0.89-0.18c-0.34,0-0.64,0.06-0.91,0.18s-0.5,0.28-0.69,0.48s-0.35,0.44-0.46,0.71
			c-0.11,0.27-0.18,0.56-0.2,0.86h4.52C90.79,84.73,90.72,84.44,90.61,84.16z"/>
	</g>
</g>
<polygon fill="#B4B4B4" points="93,123 93,153 68,138 "/>
<polygon fill="#B4B4B4" points="95,153 95,123 120,138 "/>
<path fill="#631F60" d="M2.94,63.64v-3.63L0,55.09h1.94l1.95,3.33l1.96-3.33h1.92l-2.95,4.92v3.63H2.94z M7.4,60.57
	c0,2.39,1.66,3.2,3.15,3.2c1.49,0,3.14-0.81,3.14-3.2c0-2.42-1.65-3.21-3.14-3.21C9.05,57.36,7.4,58.16,7.4,60.57 M11.83,60.58
	c0,1.12-0.4,1.88-1.28,1.88c-0.95,0-1.29-0.85-1.29-1.88c0-1.11,0.4-1.86,1.29-1.86C11.47,58.72,11.83,59.55,11.83,60.58
	 M14.77,61.98c0,1.27,0.75,1.79,1.8,1.79c1.07,0,1.75-0.61,2.12-1.08v0.96h1.86v-6.16h-1.86v4.18c-0.42,0.36-0.84,0.62-1.34,0.62
	c-0.52,0-0.73-0.3-0.73-0.85v-3.95h-1.86V61.98 M23.85,63.64v-3.82c0.35-0.45,0.9-0.84,1.64-0.84c0.11,0,0.41,0.02,0.49,0.04
	L26,57.36h-0.06c-1.15,0-1.74,0.64-2.08,1.16h-0.01v-1.03h-1.86v6.16H23.85z M31.84,63.64v-4.13c0.42-0.36,0.78-0.61,1.25-0.61
	c0.54,0,0.67,0.29,0.67,0.84v3.9h1.86v-4.13c0.4-0.36,0.77-0.61,1.23-0.61c0.54,0,0.67,0.29,0.67,0.84v3.9h1.86v-4.4
	c0-1.1-0.55-1.88-1.8-1.88c-0.97,0-1.66,0.62-2.03,1.1c-0.17-0.67-0.66-1.1-1.68-1.1c-0.97,0-1.65,0.61-2.02,1.1v-0.97h-1.86v6.16
	H31.84z M40.49,60.57c0,2.39,1.66,3.2,3.15,3.2c1.49,0,3.14-0.81,3.14-3.2c0-2.42-1.65-3.21-3.14-3.21
	C42.14,57.36,40.49,58.16,40.49,60.57 M44.92,60.58c0,1.12-0.4,1.88-1.28,1.88c-0.95,0-1.29-0.85-1.29-1.88
	c0-1.11,0.4-1.86,1.29-1.86C44.56,58.72,44.92,59.55,44.92,60.58 M49.79,63.64v-4.13c0.42-0.36,0.84-0.61,1.34-0.61
	c0.52,0,0.73,0.29,0.73,0.84v3.9h1.85v-4.49c0-1.27-0.75-1.79-1.79-1.79c-1.07,0-1.75,0.61-2.12,1.1v-0.97h-1.86v6.16H49.79z
	 M54.8,60.57c0,2.38,1.54,3.2,3.14,3.2c1.07,0,1.96-0.31,2.68-0.92l-0.72-1.11c-0.41,0.38-1.1,0.74-1.82,0.74
	c-0.77,0-1.34-0.39-1.43-1.41h4.07v-0.28c0-2.8-1.56-3.43-2.83-3.43C56.62,57.36,54.8,58.18,54.8,60.57 M56.67,59.97
	c0.14-0.9,0.63-1.28,1.21-1.28c0.69,0,1.08,0.42,1.18,1.28H56.67z M60.83,65.61C61.19,65.83,61.76,66,62.4,66
	c1.44,0,2.04-0.64,2.44-1.71l2.59-6.8h-1.8l-1.36,4h-0.02l-1.35-4h-1.92l2.35,6.19l-0.12,0.3c-0.15,0.38-0.38,0.53-0.85,0.53
	c-0.36,0-0.63-0.09-0.89-0.24L60.83,65.61 M73.1,63.64v-4.13c0.42-0.36,0.84-0.61,1.34-0.61c0.52,0,0.73,0.29,0.73,0.84v3.9h1.85
	v-4.49c0-1.27-0.75-1.79-1.79-1.79c-1.08,0-1.75,0.61-2.12,1.1v-0.97h-1.86v6.16H73.1z M78.11,60.57c0,2.38,1.54,3.2,3.14,3.2
	c1.07,0,1.96-0.31,2.68-0.92l-0.72-1.11c-0.42,0.38-1.1,0.74-1.82,0.74c-0.77,0-1.34-0.39-1.43-1.41h4.07v-0.28
	c0-2.8-1.56-3.43-2.83-3.43C79.93,57.36,78.11,58.18,78.11,60.57 M79.98,59.97c0.14-0.9,0.63-1.28,1.21-1.28
	c0.69,0,1.08,0.42,1.18,1.28H79.98z M84.86,60.57c0,2.38,1.54,3.2,3.14,3.2c1.07,0,1.96-0.31,2.68-0.92l-0.72-1.11
	c-0.42,0.38-1.1,0.74-1.82,0.74c-0.77,0-1.34-0.39-1.43-1.41h4.07v-0.28c0-2.8-1.56-3.43-2.83-3.43
	C86.68,57.36,84.86,58.18,84.86,60.57 M86.73,59.97c0.14-0.9,0.63-1.28,1.21-1.28c0.69,0,1.08,0.42,1.18,1.28H86.73z M91.63,60.62
	c0,2.13,0.97,3.12,2.37,3.12c0.91,0,1.49-0.46,1.89-1.02v0.92h1.86v-8.55h-1.86v3.17c-0.44-0.6-1.04-0.9-1.87-0.9
	C92.61,57.36,91.63,58.49,91.63,60.62 M95.89,61.74c-0.3,0.31-0.73,0.6-1.2,0.6c-0.83,0-1.2-0.71-1.2-1.74
	c0-1.12,0.41-1.71,1.18-1.71c0.49,0,0.82,0.18,1.22,0.57V61.74 M98.75,62.82c0.62,0.53,1.52,0.95,2.87,0.95
	c1.42,0,2.71-0.59,2.71-2.08c0-1.4-1.28-1.68-2.49-1.88c-0.76-0.14-1.1-0.29-1.1-0.66c0-0.33,0.3-0.54,0.83-0.54
	c0.58,0,1.19,0.24,1.81,0.67l0.73-1.05c-0.68-0.54-1.44-0.87-2.7-0.87c-1.37,0-2.39,0.71-2.39,1.95c0,1.44,1.25,1.72,2.41,1.93
	c0.84,0.15,1.16,0.31,1.16,0.74c0,0.41-0.4,0.6-0.98,0.6c-0.75,0-1.58-0.31-2.13-0.8L98.75,62.82 M108.06,62.07
	c0,1.05,0.81,1.66,1.76,1.66c0.91,0,1.58-0.36,2.14-0.99v0.9h1.81v-3.87c0-1.58-0.69-2.41-2.38-2.41c-1.53,0-2.46,0.54-3.07,1.1
	l0.79,1.06c0.57-0.44,1.23-0.76,2.02-0.76c0.6,0,0.83,0.29,0.83,0.74v0.15C109.27,59.87,108.06,60.65,108.06,62.07 M111.96,61.81
	c-0.31,0.31-0.76,0.53-1.41,0.53c-0.41,0-0.68-0.2-0.68-0.59c0-0.57,0.62-0.94,2.09-1.09V61.81 M117.04,63.64v-4.13
	c0.42-0.36,0.84-0.61,1.34-0.61c0.52,0,0.73,0.29,0.73,0.84v3.9h1.84v-4.49c0-1.27-0.75-1.79-1.78-1.79c-1.08,0-1.76,0.61-2.12,1.1
	v-0.97h-1.86v6.16H117.04z M126.63,63.64l0.66-1.91h2.91l0.63,1.91h1.9l-3.02-8.58h-1.79l-3.02,8.58H126.63z M128.75,57.46h0.02
	l0.98,2.91h-2.01L128.75,57.46z M133.71,63.64h1.85v-8.55h-1.85V63.64z M137.09,63.64h1.85v-8.55h-1.85V63.64z M139.61,65.61
	c0.36,0.22,0.92,0.39,1.57,0.39c1.44,0,2.04-0.64,2.44-1.71l2.59-6.8h-1.8l-1.36,4h-0.02l-1.35-4h-1.92l2.35,6.19l-0.12,0.3
	c-0.15,0.38-0.38,0.53-0.85,0.53c-0.36,0-0.64-0.09-0.89-0.24L139.61,65.61 M146.39,63.64h1.98v-1.79h-1.98V63.64z M151.23,35.6
	c0.96,0,1.77,0.76,1.77,1.76c0,1.01-0.81,1.77-1.77,1.77c-0.96,0-1.77-0.76-1.77-1.77C149.46,36.36,150.27,35.6,151.23,35.6
	 M151.23,38.87c0.82,0,1.45-0.65,1.45-1.51c0-0.84-0.63-1.5-1.45-1.5c-0.82,0-1.46,0.65-1.46,1.5
	C149.77,38.22,150.41,38.87,151.23,38.87 M152.06,37.02c0,0.37-0.24,0.53-0.54,0.56l0.59,0.91h-0.35l-0.56-0.89h-0.34v0.89h-0.32
	v-2.06h0.8C151.83,36.44,152.06,36.63,152.06,37.02 M151.2,37.35c0.28,0,0.54-0.01,0.54-0.34c0-0.27-0.23-0.32-0.45-0.32h-0.42v0.66
	H151.2 M11.29,10.33c-7.67,1.62-13.7,10.43-9.64,19.61c2.44,5.17,7.52,7.71,11.11,7.9c1.43-1.55,5.9-6.31,7.39-7.92
	c-6,0-7.25,0.15-8.56-0.56C7,26.85,6.94,20.24,12.44,18.26c3.19-1,7.75,0.97,7.75,6.16c0,1.89,0.05-0.04-0.03,5.49v7.38h8.03V23.77
	C28.2,16.18,21.17,8.53,11.29,10.33 M44.27,37.41h8.33V0h-8.33V37.41z M31.91,37.41h8.34V0h-8.34V37.41z M20.15,29.92h0.01V29.9
	C20.16,29.91,20.16,29.91,20.15,29.92 M74.87,10.5l-5.43,16.47l-5.7-16.47h-8.71l10.16,26.91L61,47.58h8.66L83.58,10.5H74.87z
	 M95.29,37.27h4.03c1.92,0,3.71-0.82,3.71-3.11c0-1.88-0.91-2.54-2.12-2.78v-0.03c0.95-0.26,1.86-0.96,1.86-2.62
	c0-2.26-1.66-2.85-3.59-2.85h-3.89V37.27z M97.57,30.62v-2.83h1.48c1.06,0,1.54,0.42,1.54,1.42c0,0.98-0.52,1.42-1.56,1.42H97.57z
	 M97.57,35.43v-3.17h1.49c1.12,0,1.74,0.49,1.74,1.59c0,1.01-0.51,1.58-1.63,1.58H97.57z M110.89,34.86h3.14l0.62,2.4h2.35
	l-3.33-11.44h-2.25l-3.33,11.44h2.18L110.89,34.86z M113.55,33.05h-2.19l0.31-1.17c0.32-1.2,0.58-2.02,0.78-3.09h0.03
	c0.22,1.06,0.46,1.91,0.77,3.11L113.55,33.05z M122.72,37.26h2.12v-7.22h0.03c0.34,0.75,0.51,1.08,0.83,1.69l2.96,5.52h2.17V25.87
	h-2.12v7.07h-0.03c-0.37-0.86-0.56-1.23-0.92-1.96l-2.62-5.11h-2.41V37.26z M137.36,37.26h2.33v-3.49l1.03-1.42l2.4,4.91h2.52
	l-3.42-6.91l3.05-4.48h-2.49l-2.11,3.33c-0.34,0.51-0.78,1.26-0.98,1.63v-4.96h-2.33V37.26z M148.64,56.63
	c0.11,0.37,0.4,0.6,0.83,0.6c0.45,0,0.78-0.24,0.78-0.61c0-0.36-0.23-0.52-0.7-0.67c-0.47-0.15-0.62-0.24-0.62-0.49
	c0-0.21,0.18-0.37,0.48-0.37c0.28,0,0.48,0.12,0.59,0.41l0.18-0.09c-0.1-0.3-0.35-0.52-0.77-0.52c-0.41,0-0.7,0.26-0.7,0.58
	c0,0.37,0.25,0.5,0.73,0.65c0.48,0.15,0.59,0.27,0.59,0.5c0,0.25-0.22,0.41-0.56,0.41c-0.32,0-0.55-0.16-0.65-0.47L148.64,56.63
	 M150.73,57.18h0.2v-1.89h0.01c0.05,0.16,0.08,0.26,0.14,0.4l0.59,1.49h0.2l0.59-1.49c0.05-0.15,0.11-0.29,0.14-0.4h0v1.89h0.22
	v-2.25h-0.29l-0.75,1.97h-0.01l-0.75-1.97h-0.28V57.18z"/>
<g>
	<polygon fill="#9E9E9E" points="4.49,140.37 4.49,143.21 9.32,143.21 9.32,146.91 4.49,146.91 4.49,153.55 0.08,153.55 
		0.08,136.66 9.82,136.66 9.82,140.37 	"/>
	<path fill="#9E9E9E" d="M10.64,136.66v16.89h4.37v-13.19h1.03c2.85,0,4.83,1.69,4.83,4.74c0,3.29-2.23,4.7-4.87,4.7h-0.99v3.76
		h1.86c4.66,0,8.57-3.71,8.57-8.45c0-4.78-3.87-8.44-8.57-8.44H10.64z"/>
	<rect x="26.06" y="136.66" fill="#9E9E9E" width="4.41" height="16.89"/>
	<path fill="#9E9E9E" d="M44,142.3c-0.91-1.2-2.35-1.86-3.87-1.86c-2.68,0-4.5,2.07-4.5,4.7c0,2.67,1.86,4.58,4.58,4.58
		c1.44,0,2.89-0.7,3.79-1.77v5.28c-1.45,0.41-2.51,0.78-3.87,0.78c-2.35,0-4.62-0.9-6.35-2.51c-1.85-1.7-2.72-3.88-2.72-6.39
		c0-2.3,0.9-4.53,2.52-6.18c1.64-1.69,4.04-2.72,6.43-2.72c1.4,0,2.68,0.33,4,0.87V142.3z"/>
	<path fill="#9E9E9E" d="M0,134.24V126h2.4l1.84,6.05h0.02L5.97,126h2.45v8.24H6.67v-5.62H6.65c-0.12,0.71-0.27,1.24-0.45,1.83
		l-1.23,3.79h-1.6l-1.23-3.79c-0.19-0.62-0.3-0.97-0.48-1.92H1.62v5.72H0z"/>
	<path fill="#9E9E9E" d="M13.73,130.7c-0.09-0.84-0.46-1.24-1.14-1.24c-0.56,0-1.04,0.37-1.17,1.24H13.73z M9.63,131.28
		c0-2.3,1.76-3.09,2.98-3.09c1.22,0,2.73,0.61,2.73,3.3v0.27H11.4c0.09,0.98,0.64,1.36,1.38,1.36c0.7,0,1.36-0.34,1.76-0.71
		l0.69,1.07c-0.69,0.59-1.55,0.89-2.58,0.89C11.1,134.36,9.63,133.57,9.63,131.28"/>
	<path fill="#9E9E9E" d="M16.37,134.24v-5.94h1.8v0.94c0.36-0.46,1.02-1.05,1.95-1.05c0.99,0,1.46,0.41,1.63,1.05
		c0.35-0.46,1.02-1.05,1.96-1.05c1.2,0,1.73,0.75,1.73,1.81v4.24h-1.78v-3.77c0-0.53-0.12-0.81-0.65-0.81
		c-0.45,0-0.8,0.24-1.19,0.59v3.99h-1.79v-3.77c0-0.53-0.13-0.81-0.65-0.81c-0.44,0-0.8,0.24-1.21,0.59v3.99H16.37z"/>
	<path fill="#9E9E9E" d="M30.87,131.28c0-1-0.34-1.62-1.15-1.62c-0.46,0-0.87,0.28-1.17,0.58v2.19c0.39,0.37,0.71,0.55,1.19,0.55
		C30.49,132.98,30.87,132.35,30.87,131.28 M28.55,133.53v0.71h-1.79V126h1.79v3.21c0.39-0.54,0.95-1.03,1.83-1.03
		c1.35,0,2.28,1.03,2.28,3.08c0,2.05-0.95,3.07-2.31,3.07C29.55,134.33,29,134.04,28.55,133.53"/>
	<path fill="#9E9E9E" d="M37.49,130.7c-0.09-0.84-0.47-1.24-1.13-1.24c-0.56,0-1.04,0.37-1.17,1.24H37.49z M33.38,131.28
		c0-2.3,1.76-3.09,2.99-3.09c1.23,0,2.73,0.61,2.73,3.3v0.27h-3.93c0.09,0.98,0.63,1.36,1.38,1.36c0.7,0,1.36-0.34,1.75-0.71
		l0.7,1.07c-0.7,0.59-1.55,0.89-2.59,0.89C34.86,134.36,33.38,133.57,33.38,131.28"/>
	<path fill="#9E9E9E" d="M40.13,134.24v-5.94h1.79v0.99h0.01c0.32-0.5,0.89-1.1,2-1.1H44l-0.02,1.59c-0.07-0.01-0.35-0.04-0.46-0.04
		c-0.72,0-1.25,0.38-1.59,0.81v3.69H40.13z"/>
</g>
<g>
	<path fill="#787777" d="M2.55,117.42c-1.36-1.42-2.1-3.11-2.1-4.97c0-3,1.52-5,4.13-6.95l0.3,0.45c-2.06,1.64-3.51,3.87-3.51,6.57
		c0,1.74,0.63,3.34,1.64,4.49L2.55,117.42z"/>
	<path fill="#787777" d="M5.14,112.58l0.82-0.16c0.18,1.3,0.91,1.85,2.39,1.85c1.26,0,2.26-0.58,2.26-1.88
		c0-2.34-4.42-1.61-4.42-4.29c0-1.66,1.32-2.65,2.86-2.65c1.94,0,2.69,0.86,2.97,2.11l-0.81,0.22c-0.22-1.14-0.99-1.54-2.22-1.54
		c-1.13,0-1.93,0.69-1.93,1.72c0,2.11,4.42,1.46,4.42,4.27c0,1.94-1.53,2.8-3.2,2.8C6.26,115.05,5.35,114.12,5.14,112.58z"/>
	<path fill="#787777" d="M13.82,114.88l-0.76-6.59h0.83l0.3,3.26c0.06,0.72,0.16,1.41,0.21,2.24h0.02c0.39-0.94,0.59-1.4,0.94-2.24
		l1.42-3.26h0.77l0.31,3.32l0.19,2.17h0.02c0.36-0.88,0.58-1.35,0.92-2.15l1.46-3.35h0.82l-3.02,6.59H17.5l-0.53-5.41h-0.02
		l-2.37,5.41H13.82z"/>
	<path fill="#787777" d="M21.59,114.88l1.12-6.59h0.83l-1.12,6.59H21.59z M22.94,106.76l0.16-0.92h0.88l-0.16,0.92H22.94z"/>
	<path fill="#787777" d="M24.05,117.37l1.54-9.08h0.83l-0.17,0.94c0.43-0.54,1.24-1.06,2.03-1.06c1.39,0,2.28,0.96,2.28,2.66
		c0,2.94-1.67,4.16-3.11,4.16c-0.84,0-1.5-0.39-2-0.95l-0.57,3.34H24.05z M29.73,110.95c0-1.33-0.68-2.05-1.64-2.05
		c-0.69,0-1.45,0.47-1.94,1.08l-0.58,3.36c0.51,0.58,0.99,0.92,1.85,0.92C28.39,114.26,29.73,113.43,29.73,110.95z"/>
	<path fill="#787777" d="M31.69,112.24c0-3,1.99-4.07,3.21-4.07c1.88,0,2.46,1.54,2.14,3.42l-0.02,0.16h-4.49
		c-0.01,0.15-0.01,0.31-0.01,0.47c0,1.57,0.97,2.06,1.69,2.06c0.96,0,1.53-0.5,2-1.21l0.59,0.41c-0.6,0.92-1.46,1.52-2.7,1.52
		C32.67,115.01,31.69,113.96,31.69,112.24z M36.32,111.06c0.14-1.14-0.21-2.17-1.49-2.17c-0.92,0-1.86,0.73-2.2,2.17H36.32z"/>
	<path fill="#787777" d="M41.6,113.19l0.71-4.16h-1.1l0.12-0.74h1.11l0.39-2.36h0.83l-0.39,2.36h1.54l-0.13,0.74h-1.54l-0.7,4.09
		c-0.13,0.76-0.07,1.12,0.76,1.12c0.18,0,0.4-0.02,0.58-0.07l0.05,0.71c-0.21,0.05-0.6,0.09-0.84,0.09
		C41.67,114.96,41.41,114.33,41.6,113.19z"/>
	<path fill="#787777" d="M45.26,112.19c0-2.74,1.76-4.02,3.29-4.02c1.5,0,2.49,1.1,2.49,2.82c0,2.71-1.74,4.02-3.29,4.02
		C46.25,115.01,45.26,113.91,45.26,112.19z M50.21,111.01c0-1.15-0.51-2.12-1.71-2.12c-1.3,0-2.39,1.3-2.39,3.29
		c0,1.16,0.5,2.11,1.7,2.11C49.1,114.29,50.21,113.03,50.21,111.01z"/>
	<path fill="#787777" d="M55.29,114.88l1-5.85h-1.11l0.13-0.74h1.1l0.19-1.11c0.17-1.11,0.8-1.56,1.73-1.56
		c0.17,0,0.58,0.05,0.68,0.07l-0.13,0.71c-0.11-0.03-0.33-0.06-0.51-0.06c-0.56,0-0.82,0.2-0.94,0.91l-0.18,1.04h1.26l-0.13,0.74
		h-1.24l-1,5.85H55.29z M58.67,114.88l1.12-6.59h0.83l-1.12,6.59H58.67z M60.02,106.76l0.16-0.92h0.88l-0.16,0.92H60.02z"/>
	<path fill="#787777" d="M61.56,114.88l1.12-6.59h0.83l-0.18,1.05c0.54-0.59,1.52-1.17,2.37-1.17c1.4,0,1.88,0.85,1.68,2.07
		l-0.79,4.64h-0.83l0.76-4.54c0.17-0.92-0.13-1.44-1.13-1.44c-0.7,0-1.46,0.46-2.17,1.14l-0.82,4.84H61.56z"/>
	<path fill="#787777" d="M73.63,114.88H72.8l0.16-0.95c-0.47,0.58-1.24,1.06-2.04,1.06c-1.34,0-2.28-0.91-2.28-2.65
		c0-3,1.71-4.17,3.11-4.17c0.98,0,1.65,0.54,2.03,0.94l0.58-3.47h0.83L73.63,114.88z M73.08,113.2l0.58-3.36
		c-0.43-0.55-1.03-0.94-1.86-0.94c-0.97,0-2.32,0.84-2.32,3.35c0,1.31,0.66,2.01,1.64,2.01C71.8,114.26,72.43,113.9,73.08,113.2z"/>
	<path fill="#787777" d="M78.52,112.19c0-2.74,1.76-4.02,3.29-4.02c1.5,0,2.49,1.1,2.49,2.82c0,2.71-1.74,4.02-3.29,4.02
		C79.51,115.01,78.52,113.91,78.52,112.19z M83.47,111.01c0-1.15-0.51-2.12-1.71-2.12c-1.3,0-2.39,1.3-2.39,3.29
		c0,1.16,0.5,2.11,1.7,2.11C82.36,114.29,83.47,113.03,83.47,111.01z"/>
	<path fill="#787777" d="M85.58,112.94l0.78-4.65h0.83l-0.77,4.55c-0.16,0.92,0.14,1.44,1.13,1.44c0.7,0,1.44-0.46,2.15-1.14
		l0.82-4.85h0.83l-1.12,6.59h-0.83l0.18-1.05c-0.54,0.59-1.48,1.19-2.34,1.19C85.86,115.01,85.38,114.16,85.58,112.94z"/>
	<path fill="#787777" d="M92.94,113.19l0.71-4.16h-1.1l0.12-0.74h1.11l0.38-2.36h0.83l-0.39,2.36h1.54l-0.13,0.74h-1.54l-0.7,4.09
		c-0.13,0.76-0.07,1.12,0.76,1.12c0.18,0,0.4-0.02,0.58-0.07l0.05,0.71c-0.21,0.05-0.6,0.09-0.84,0.09
		C93.01,114.96,92.75,114.33,92.94,113.19z"/>
	<path fill="#787777" d="M100.63,114.88l-0.76-6.59h0.83l0.3,3.26c0.06,0.72,0.16,1.41,0.21,2.24h0.02c0.39-0.94,0.59-1.4,0.94-2.24
		l1.42-3.26h0.77l0.31,3.32l0.19,2.17h0.03c0.36-0.88,0.58-1.35,0.92-2.15l1.46-3.35h0.82l-3.02,6.59h-0.77l-0.53-5.41h-0.02
		l-2.37,5.41H100.63z"/>
	<path fill="#787777" d="M108.33,114.88l1.57-9.25h0.83l-0.63,3.71c0.54-0.59,1.52-1.17,2.37-1.17c1.4,0,1.88,0.85,1.68,2.07
		l-0.79,4.64h-0.83l0.76-4.54c0.17-0.92-0.13-1.44-1.13-1.44c-0.7,0-1.46,0.46-2.17,1.14l-0.82,4.84H108.33z"/>
	<path fill="#787777" d="M115.14,113.53c0-1.47,1.25-2.62,4.77-2.9l0.06-0.34c0.17-0.89-0.18-1.4-1.21-1.4
		c-0.87,0-1.79,0.46-2.28,0.91l-0.42-0.56c0.62-0.53,1.57-1.08,2.81-1.08c1.64,0,2.12,0.92,1.91,2.24l-0.75,4.47h-0.83l0.16-0.94
		c-0.84,0.69-1.72,1.05-2.49,1.05C115.74,114.99,115.14,114.39,115.14,113.53z M119.46,113.24l0.34-2
		c-3.08,0.33-3.81,1.17-3.81,2.12c0,0.56,0.39,0.91,1.12,0.91C117.88,114.28,118.7,113.89,119.46,113.24z"/>
	<path fill="#787777" d="M122.64,113.19l0.71-4.16h-1.1l0.12-0.74h1.11l0.38-2.36h0.83l-0.39,2.36h1.54l-0.13,0.74h-1.54l-0.7,4.09
		c-0.13,0.76-0.07,1.12,0.76,1.12c0.18,0,0.4-0.02,0.58-0.07l0.05,0.71c-0.21,0.05-0.6,0.09-0.84,0.09
		C122.72,114.96,122.45,114.33,122.64,113.19z"/>
	<path fill="#787777" d="M129.2,112.24c0-3,1.99-4.07,3.21-4.07c1.88,0,2.46,1.54,2.13,3.42l-0.02,0.16h-4.49
		c-0.01,0.15-0.01,0.31-0.01,0.47c0,1.57,0.96,2.06,1.69,2.06c0.96,0,1.53-0.5,2-1.21l0.59,0.41c-0.6,0.92-1.46,1.52-2.71,1.52
		C130.17,115.01,129.2,113.96,129.2,112.24z M133.82,111.06c0.14-1.14-0.21-2.17-1.49-2.17c-0.92,0-1.86,0.73-2.2,2.17H133.82z"/>
	<path fill="#787777" d="M135.68,114.88l1.57-9.25h0.83l-1.57,9.25H135.68z"/>
	<path fill="#787777" d="M138.27,113.71l0.66-0.41c0.31,0.55,0.9,0.97,1.91,0.99c0.97,0,1.65-0.34,1.65-1.23
		c0-1.51-3.34-0.97-3.34-2.99c0-1.16,0.86-1.91,2.17-1.91c1.3,0,1.98,0.46,2.4,1.04l-0.6,0.51c-0.36-0.53-0.98-0.84-1.82-0.84
		c-0.88,0-1.31,0.46-1.31,1.06c0,1.55,3.33,0.95,3.33,2.99c0,1.55-1.23,2.06-2.52,2.06C139.41,114.99,138.71,114.49,138.27,113.71z"
		/>
	<path fill="#787777" d="M144.62,112.24c0-3,1.99-4.07,3.21-4.07c1.88,0,2.46,1.54,2.13,3.42l-0.02,0.16h-4.49
		c-0.01,0.15-0.01,0.31-0.01,0.47c0,1.57,0.96,2.06,1.69,2.06c0.96,0,1.53-0.5,2-1.21l0.59,0.41c-0.6,0.92-1.46,1.52-2.71,1.52
		C145.6,115.01,144.62,113.96,144.62,112.24z M149.25,111.06c0.14-1.14-0.21-2.17-1.49-2.17c-0.92,0-1.86,0.73-2.2,2.17H149.25z"/>
	<path fill="#787777" d="M152.92,114.88l4.68-9.29h0.93l1.52,9.29h-0.86l-0.45-2.89h-3.51l-1.44,2.89H152.92z M155.62,111.21h3.02
		l-0.71-4.57h-0.02L155.62,111.21z"/>
	<path fill="#787777" d="M161.59,114.88l1.57-9.25h0.83l-1.57,9.25H161.59z"/>
	<path fill="#787777" d="M164.55,114.88l1.57-9.25h0.83l-1.57,9.25H164.55z"/>
	<path fill="#787777" d="M169.39,115.99c-0.63,1.17-1.12,1.41-1.94,1.41c-0.33,0-0.72-0.09-1-0.24l0.35-0.67
		c0.22,0.12,0.51,0.17,0.72,0.17c0.53,0,0.82-0.24,1.23-0.99l0.41-0.76l-1.24-6.62h0.87l0.96,5.56h0.02l2.86-5.56h0.88
		L169.39,115.99z"/>
	<path fill="#787777" d="M176.64,112.24c0-3,1.99-4.07,3.21-4.07c1.88,0,2.46,1.54,2.14,3.42l-0.03,0.16h-4.49
		c-0.01,0.15-0.01,0.31-0.01,0.47c0,1.57,0.97,2.06,1.69,2.06c0.96,0,1.53-0.5,2-1.21l0.59,0.41c-0.6,0.92-1.46,1.52-2.7,1.52
		C177.62,115.01,176.64,113.96,176.64,112.24z M181.26,111.06c0.14-1.14-0.21-2.17-1.48-2.17c-0.92,0-1.86,0.73-2.2,2.17H181.26z"/>
	<path fill="#787777" d="M186.9,117.37l0.59-3.45c-0.47,0.59-1.24,1.06-2.04,1.06c-1.38,0-2.28-0.95-2.28-2.65
		c0-3.01,1.71-4.17,3.12-4.17c1.01,0,1.66,0.54,2.03,0.94l0.13-0.81h0.83l-1.54,9.08H186.9z M187.61,113.2l0.58-3.36
		c-0.43-0.55-1.03-0.94-1.86-0.94c-0.96,0-2.32,0.84-2.32,3.35c0,1.31,0.66,2.01,1.64,2.01C186.33,114.26,186.96,113.9,187.61,113.2
		z"/>
	<path fill="#787777" d="M190.42,112.94l0.79-4.65h0.83l-0.77,4.55c-0.16,0.92,0.14,1.44,1.13,1.44c0.7,0,1.44-0.46,2.15-1.14
		l0.82-4.85h0.83l-1.12,6.59h-0.83l0.18-1.05c-0.54,0.59-1.48,1.19-2.34,1.19C190.7,115.01,190.22,114.16,190.42,112.94z"/>
	<path fill="#787777" d="M196.93,113.53c0-1.47,1.26-2.62,4.77-2.9l0.06-0.34c0.17-0.89-0.18-1.4-1.21-1.4
		c-0.87,0-1.79,0.46-2.28,0.91l-0.42-0.56c0.62-0.53,1.57-1.08,2.81-1.08c1.64,0,2.12,0.92,1.91,2.24l-0.75,4.47h-0.83l0.16-0.94
		c-0.85,0.69-1.73,1.05-2.49,1.05C197.53,114.99,196.93,114.39,196.93,113.53z M201.25,113.24l0.34-2
		c-3.08,0.33-3.81,1.17-3.81,2.12c0,0.56,0.39,0.91,1.12,0.91C199.67,114.28,200.49,113.89,201.25,113.24z"/>
	<path fill="#787777" d="M203.8,114.88l1.57-9.25h0.83l-1.57,9.25H203.8z"/>
	<path fill="#787777" d="M206.39,113.71l0.66-0.41c0.31,0.55,0.9,0.97,1.91,0.99c0.96,0,1.65-0.34,1.65-1.23
		c0-1.51-3.34-0.97-3.34-2.99c0-1.16,0.86-1.91,2.17-1.91c1.3,0,1.98,0.46,2.4,1.04l-0.6,0.51c-0.36-0.53-0.98-0.84-1.82-0.84
		c-0.88,0-1.32,0.46-1.32,1.06c0,1.55,3.33,0.95,3.33,2.99c0,1.55-1.23,2.06-2.52,2.06C207.52,114.99,206.82,114.49,206.39,113.71z"
		/>
	<path fill="#787777" d="M211.8,116.99c2.06-1.64,3.54-3.9,3.54-6.6c0-1.72-0.62-3.3-1.63-4.46l0.43-0.41
		c1.38,1.41,2.11,3.09,2.11,4.95c0,2.99-1.53,5.01-4.14,6.96L211.8,116.99z"/>
</g>
<g>
	<path fill="#787777" d="M2.55,174.42c-1.36-1.42-2.1-3.11-2.1-4.97c0-3,1.52-5,4.13-6.95l0.3,0.45c-2.06,1.64-3.51,3.87-3.51,6.57
		c0,1.74,0.63,3.34,1.64,4.49L2.55,174.42z"/>
	<path fill="#787777" d="M5.14,169.58l0.82-0.16c0.18,1.3,0.91,1.85,2.39,1.85c1.26,0,2.26-0.58,2.26-1.88
		c0-2.34-4.42-1.61-4.42-4.29c0-1.66,1.32-2.65,2.86-2.65c1.94,0,2.69,0.86,2.97,2.11l-0.81,0.22c-0.22-1.14-0.99-1.54-2.22-1.54
		c-1.13,0-1.93,0.69-1.93,1.72c0,2.11,4.42,1.46,4.42,4.27c0,1.94-1.53,2.8-3.2,2.8C6.26,172.05,5.35,171.12,5.14,169.58z"/>
	<path fill="#787777" d="M13.82,171.88l-0.76-6.59h0.83l0.3,3.26c0.06,0.72,0.16,1.41,0.21,2.24h0.02c0.39-0.94,0.59-1.4,0.94-2.24
		l1.42-3.26h0.77l0.31,3.32l0.19,2.17h0.02c0.36-0.88,0.58-1.35,0.92-2.15l1.46-3.35h0.82l-3.02,6.59H17.5l-0.53-5.41h-0.02
		l-2.37,5.41H13.82z"/>
	<path fill="#787777" d="M21.59,171.88l1.12-6.59h0.83l-1.12,6.59H21.59z M22.94,163.76l0.16-0.92h0.88l-0.16,0.92H22.94z"/>
	<path fill="#787777" d="M24.05,174.37l1.54-9.08h0.83l-0.17,0.94c0.43-0.54,1.24-1.06,2.03-1.06c1.39,0,2.28,0.96,2.28,2.66
		c0,2.94-1.67,4.16-3.11,4.16c-0.84,0-1.5-0.39-2-0.95l-0.57,3.34H24.05z M29.73,167.95c0-1.33-0.68-2.05-1.64-2.05
		c-0.69,0-1.45,0.47-1.94,1.08l-0.58,3.36c0.51,0.58,0.99,0.92,1.85,0.92C28.39,171.26,29.73,170.43,29.73,167.95z"/>
	<path fill="#787777" d="M31.69,169.24c0-3,1.99-4.07,3.21-4.07c1.88,0,2.46,1.54,2.14,3.42l-0.02,0.16h-4.49
		c-0.01,0.15-0.01,0.31-0.01,0.47c0,1.57,0.97,2.06,1.69,2.06c0.96,0,1.53-0.5,2-1.21l0.59,0.41c-0.6,0.92-1.46,1.52-2.7,1.52
		C32.67,172.01,31.69,170.96,31.69,169.24z M36.32,168.06c0.14-1.14-0.21-2.17-1.49-2.17c-0.92,0-1.86,0.73-2.2,2.17H36.32z"/>
	<path fill="#787777" d="M40.74,170.53c0-1.47,1.25-2.62,4.77-2.9l0.06-0.34c0.17-0.89-0.18-1.4-1.21-1.4
		c-0.87,0-1.79,0.46-2.28,0.91l-0.42-0.56c0.62-0.53,1.57-1.08,2.81-1.08c1.64,0,2.12,0.92,1.91,2.24l-0.75,4.47H44.8l0.16-0.94
		c-0.85,0.69-1.73,1.05-2.49,1.05C41.35,171.99,40.74,171.39,40.74,170.53z M45.07,170.24l0.34-2c-3.08,0.33-3.81,1.17-3.81,2.12
		c0,0.56,0.39,0.91,1.12,0.91C43.48,171.28,44.31,170.89,45.07,170.24z"/>
	<path fill="#787777" d="M49.05,169.61c-0.36,0.14-0.53,0.32-0.53,0.52c0,0.45,0.54,0.54,1.83,0.75c1.24,0.21,2.29,0.51,2.29,1.61
		c0,1.41-1.41,1.9-2.82,1.9c-2.28,0-3.16-0.76-3.16-1.66c0-1.01,0.89-1.47,1.48-1.66c-0.28-0.15-0.43-0.38-0.43-0.69
		c0-0.44,0.27-0.82,0.89-1.09c-0.42-0.38-0.64-0.91-0.64-1.54c0-1.69,1.39-2.6,2.72-2.6c0.77,0,1.34,0.28,1.7,0.67l1.7-0.6
		l-0.14,0.81l-1.24,0.22c0.16,0.31,0.24,0.67,0.24,1.05c0,1.72-1.36,2.55-2.69,2.55C49.78,169.88,49.39,169.79,49.05,169.61z
		 M49.93,173.72c1.04,0,1.89-0.3,1.89-1.08c0-0.69-0.68-0.89-1.68-1.06c-0.52-0.09-1-0.16-1.39-0.28c-0.66,0.19-1.24,0.61-1.24,1.29
		C47.52,173.22,48.11,173.72,49.93,173.72z M52.15,167.3c0-0.85-0.48-1.45-1.52-1.45c-1.01,0-1.87,0.67-1.87,1.92
		c0,0.84,0.52,1.44,1.53,1.44C51.33,169.21,52.15,168.59,52.15,167.3z"/>
	<path fill="#787777" d="M53.8,170.53c0-1.47,1.25-2.62,4.77-2.9l0.06-0.34c0.17-0.89-0.18-1.4-1.21-1.4
		c-0.87,0-1.79,0.46-2.28,0.91l-0.42-0.56c0.62-0.53,1.57-1.08,2.81-1.08c1.64,0,2.12,0.92,1.91,2.24l-0.75,4.47h-0.83l0.16-0.94
		c-0.85,0.69-1.73,1.05-2.49,1.05C54.41,171.99,53.8,171.39,53.8,170.53z M58.12,170.24l0.34-2c-3.08,0.33-3.81,1.17-3.81,2.12
		c0,0.56,0.39,0.91,1.12,0.91C56.54,171.28,57.36,170.89,58.12,170.24z"/>
	<path fill="#787777" d="M60.67,171.88l1.12-6.59h0.83l-1.12,6.59H60.67z M62.02,163.76l0.16-0.92h0.88l-0.16,0.92H62.02z"/>
	<path fill="#787777" d="M63.55,171.88l1.12-6.59h0.83l-0.18,1.05c0.54-0.59,1.52-1.17,2.37-1.17c1.4,0,1.88,0.85,1.68,2.07
		l-0.79,4.64h-0.83l0.76-4.54c0.17-0.92-0.13-1.44-1.13-1.44c-0.7,0-1.46,0.46-2.17,1.14l-0.82,4.84H63.55z"/>
	<path fill="#787777" d="M69.82,173.99c2.06-1.64,3.54-3.9,3.54-6.6c0-1.72-0.62-3.3-1.63-4.46l0.43-0.41
		c1.38,1.41,2.11,3.09,2.11,4.95c0,2.99-1.53,5.01-4.14,6.96L69.82,173.99z"/>
</g>
<g>
</g>
<g>
</g>
<g>
</g>
<g>
</g>
<g>
</g>
<g>
</g>
</svg>
