<?xml version="1.0" encoding="utf-8"?>
<!-- Generator: Adobe Illustrator 16.0.4, SVG Export Plug-In . SVG Version: 6.00 Build 0)  -->
<!DOCTYPE svg PUBLIC "-//W3C//DTD SVG 1.1//EN" "http://www.w3.org/Graphics/SVG/1.1/DTD/svg11.dtd">
<svg version="1.1" id="Layer_1" xmlns="http://www.w3.org/2000/svg" xmlns:xlink="http://www.w3.org/1999/xlink" x="0px" y="0px"
	 width="53px" height="96px" viewBox="0 0 53 96" enable-background="new 0 0 53 96" xml:space="preserve">
<g>
	<path fill="#E0DB1F" d="M48.78,92.62c-0.09,0.01-0.18,0.02-0.26,0.04L48.78,92.62z"/>
	<path fill="#FFFFFF" d="M51.64,56.56c-0.26-3.43-2.64-6.56-5.88-7.65c-0.39-0.13-0.79-0.27-1.19-0.36
		c-1.49-0.35-2.79-0.92-3.88-2.13c-1.5-1.65-3.57-2.27-5.71-2.62c-0.26-0.04-0.51-0.1-0.77-0.13c-2.79-0.38-4.95-1.71-6.4-4.22
		c-1.02-1.76-2.35-3.22-4.39-3.81c-1.14-0.33-2.21-0.36-3.06,0.68c-0.46,0.57-1.01,1.02-1.81,0.74c-0.94-0.33-1.46-1.03-1.52-2.01
		c-0.12-1.92-0.16-3.84-0.25-5.76c-0.06-1.34-0.15-2.68-0.2-4.03l-0.06-1.21c-0.06-1.33-0.1-2.57-0.17-3.82
		c-0.24-4.34-0.56-8.68-0.56-13.03c0-0.1,0-0.31-0.01-0.55c0.17-1.06,0.17-2.35,0.02-3.26c-0.21-1.37-2.21-2.26-3.59-2.04
		c-1.22,0.2-2.55,2-2.92,3.51C9.14,5.53,9.09,6.23,9.15,6.85C9.1,7.12,9.05,7.4,9,7.67c-0.75,3.84-0.73,7.74-0.85,11.63
		c-0.18,6.29,0.14,12.58-0.31,18.86c-0.16,2.17-0.42,4.32-0.76,6.45L5.57,45.3c-0.77,0.33-1.62,0.37-2.42,0.6
		c-1.02,0.29-1.5,0.94-1.7,1.93c-0.21,1.05-0.23,2.11-0.07,3.14c0.39,2.62,0.42,5.25,0.41,7.88c-0.02,2.26,0.3,4.42,1.17,6.55
		c1.2,2.94,1.99,6.06,2.71,9.15c1.23,5.24,3.57,9.9,6.55,14.29c1.37,2.03,2.42,4.22,3.24,6.53c0.11,0.31,0.21,0.55-0.24,0.62
		l33.3-3.34c-0.34,0.08-0.39-0.08-0.43-0.36c-0.14-1.04,0.04-2.05,0.26-3.05c0.27-1.26,0.56-2.51,0.93-3.74
		c1.74-5.82,2.22-11.75,1.68-17.79c-0.2-2.24,0.35-4.45,0.48-6.68C51.52,59.55,51.76,58.07,51.64,56.56z"/>
	<path fill="#252526" d="M48.78,92.62c0.08-0.01,0.16-0.02,0.23-0.04L48.78,92.62z"/>
	<path fill="#252526" d="M49.35,92.23c-0.03-2.12,0.53-4.12,1.14-6.09c1.42-4.67,1.96-9.45,2.01-14.31
		c0.02-1.69-0.33-3.37-0.24-5.05c0.14-2.73,0.46-5.44,0.69-8.17c0.38-4.44-1.31-7.84-5.05-10.19c-1.24-0.78-2.64-1.09-4.01-1.48
		c-0.71-0.2-1.31-0.53-1.84-1.1c-1.52-1.63-3.41-2.65-5.58-3.12c-1.21-0.26-2.43-0.52-3.65-0.76c-0.15-0.03-0.27-0.08-0.37-0.13
		c-0.06-0.01-0.11-0.03-0.16-0.05c-0.11-0.01-0.21-0.03-0.3-0.08c-0.09-0.02-0.19-0.05-0.28-0.09c-0.46-0.2-0.93-0.52-1.27-0.93
		c-0.11-0.06-0.19-0.15-0.26-0.25c-0.16-0.11-0.26-0.28-0.36-0.43c-0.56-0.79-1.09-1.6-1.65-2.39c-0.45-0.65-0.93-1.3-1.59-1.72
		l-1.77-1.2c-0.65-0.24-1.26-0.44-1.91-0.55c-1.35-0.24-2.45,0.13-3.39,1.13c-0.18,0.19-0.31,0.62-0.73,0.4
		c-0.34-0.17-0.45-0.49-0.47-0.85c-0.13-2.74-0.24-5.48-0.37-8.21c-0.18-3.68-0.35-7.37-0.57-11.05c-0.17-2.76-0.21-5.53-0.3-8.29
		c-0.05-1.79-0.24-3.58-1.07-5.22C14.75-0.41,11.3-0.8,9.73,1.66C8.58,3.44,8.1,5.45,7.7,7.49c-0.75,3.86-0.73,7.79-0.84,11.7
		C6.7,25.01,6.93,30.83,6.64,36.64c-0.01,0.29-0.04,0.58-0.06,0.87C6.53,38,6.47,38.5,6.42,38.99c-0.06,1.34-0.2,2.67-0.44,3.99
		c-0.12,0.67-0.47,1.08-1.16,1.18c-0.49,0.07-0.97,0.19-1.45,0.31c-2.16,0.51-3.01,1.49-3.27,3.73c-0.12,1-0.12,2,0.02,2.99
		c0.33,2.33,0.4,4.66,0.38,7.01c-0.02,2.21-0.04,4.46,0.83,6.55c1.27,3.05,2.08,6.24,2.9,9.42c1.08,4.2,2.51,8.23,4.74,11.96
		c1.9,3.17,4.2,6.12,5.3,9.75L15.22,96c0.45-0.08,0.35-0.31,0.24-0.62c-0.82-2.31-1.86-4.5-3.24-6.53
		c-2.98-4.39-5.32-9.05-6.55-14.29c-0.73-3.1-1.51-6.21-2.71-9.15c-0.87-2.13-1.19-4.29-1.17-6.55c0.02-2.64-0.01-5.27-0.41-7.88
		c-0.16-1.03-0.14-2.1,0.07-3.14c0.2-0.99,0.68-1.63,1.7-1.93c0.8-0.23,1.65-0.28,2.42-0.6c0.67-0.29,0.69,0.05,0.59,0.55
		c-0.44,2.21-0.85,4.43-1.33,6.64c-0.54,2.5-0.98,5-0.91,7.57c0.01,0.24-0.18,0.7,0.36,0.71c0.58,0.01,0.34-0.44,0.33-0.68
		c-0.04-2.2,0.26-4.35,0.72-6.49c1.12-5.1,2.14-10.21,2.52-15.43c0.45-6.28,0.13-12.57,0.31-18.86C8.27,15.4,8.25,11.51,9,7.67
		c0.14-0.72,0.21-1.48,0.63-2.28c0.1,0.32,0.15,0.52,0.23,0.7c0.28,0.71,0.65,1.36,1.43,1.54c0.86,0.21,1.75,0.27,2.63,0.11
		c0.5-0.09,0.7-0.38,1.05-0.76c0.33-0.36,0.58-0.97,0.76-1.24c0.06,0.41,0.06,1.24,0.06,1.46c0,4.35,0.32,8.69,0.56,13.03
		c0.07,1.25,0.11,2.5,0.17,3.82c-1.52-1.39-4.53-1.75-6.21-0.82c-0.23,0.13-0.3,0.27-0.24,0.5c0.07,0.26,0.27,0.19,0.45,0.16
		c0.43-0.09,0.86-0.24,1.29-0.29c1.49-0.18,3.03-0.5,4.11,1.03c0.06,0.08,0.17,0.17,0.25,0.16c0.36-0.04,0.39,0.14,0.4,0.46
		c0.05,1.34,0.14,2.68,0.2,4.03c0.09,1.92,0.13,3.84,0.25,5.76c0.06,0.98,0.58,1.68,1.52,2.01c0.8,0.28,1.35-0.17,1.81-0.74
		c0.85-1.04,1.92-1.01,3.06-0.68c2.04,0.59,3.37,2.06,4.39,3.81c1.46,2.51,3.61,3.84,6.4,4.22c0.26,0.04,0.51,0.09,0.77,0.13
		c2.14,0.35,4.21,0.97,5.71,2.62c1.09,1.21,2.4,1.78,3.88,2.13c0.4,0.09,0.8,0.23,1.19,0.36c3.25,1.1,5.62,4.22,5.88,7.65
		c0.12,1.51-0.12,2.99-0.21,4.49c-0.13,2.23-0.68,4.43-0.48,6.68c0.54,6.04,0.05,11.97-1.68,17.79c-0.37,1.23-0.65,2.48-0.93,3.74
		c-0.22,1-0.4,2.01-0.26,3.05c0.04,0.28,0.09,0.44,0.43,0.36c0.08-0.02,0.17-0.03,0.26-0.04l0.23-0.04
		C49.2,92.54,49.36,92.46,49.35,92.23z M13.61,7.1c-2.14,0.09-3,0.11-3.35-2.28C10.03,3.28,11,1.55,12.22,1.35
		c1.38-0.23,2.7,0.71,2.91,2.08C15.41,5.23,14.71,7.05,13.61,7.1z"/>
	<path fill="#323231" d="M11.91,13.3c0.81-0.11,1.59-0.05,2.36,0.24c0.15,0.06,0.33,0.14,0.41-0.04c0.09-0.21-0.05-0.32-0.25-0.4
		c-0.74-0.28-1.49-0.41-2.27-0.27c-0.1,0.01-0.22-0.02-0.31,0.03c-0.18,0.09-0.57,0-0.48,0.35C11.43,13.46,11.72,13.32,11.91,13.3z"
		/>
</g>
<g>
</g>
<g>
</g>
<g>
</g>
<g>
</g>
<g>
</g>
<g>
</g>
</svg>
