<?xml version="1.0" encoding="utf-8"?>
<!-- Generator: Adobe Illustrator 19.2.0, SVG Export Plug-In . SVG Version: 6.00 Build 0)  -->
<svg version="1.1" id="Layer_1" xmlns="http://www.w3.org/2000/svg" xmlns:xlink="http://www.w3.org/1999/xlink" x="0px" y="0px"
	 width="127px" height="96.4px" viewBox="0 0 127 96.4" style="enable-background:new 0 0 127 96.4;" xml:space="preserve">
<style type="text/css">
	.st0{fill:#AD1B02;}
	.st1{fill:#EE9C34;}
	.st2{fill:#F2BB8B;}
	.st3{fill:#E1732B;}
	.st4{fill:#F2BD3A;}
	.st5{fill:#E68B2A;}
	.st6{fill:#D6561B;}
	.st7{fill:#BF4417;}
	.st8{fill:#E46BA2;}
	.st9{fill:#D94F25;}
	.st10{fill:#CF3A1D;}
	.st11{fill:#C02515;}
	.st12{fill:#AB1D11;}
</style>
<path d="M86,63.7c-4.1,0.7-6.2,3.7-6.2,9c0,5.3,2.8,8.9,7.1,8.9c2,0,3.8-0.7,7.6-2.5v4.3c-4.6,2.1-7.2,2.7-10.9,2.7
	c-4,0-6.8-1.1-9-3.4c-2.3-2.3-3.5-5.4-3.5-8.9C71,66.2,76.7,61,84.9,61c5.5,0,9.3,2.5,9.3,6.2c0,2.4-1.8,4-4.4,4
	c-1.3,0-2.4-0.4-3.8-1.2V63.7z"/>
<path d="M65.8,73.9c3.7-4.6,5-6.5,5-8.8c0-2.3-1.8-4.1-4.2-4.1c-1.5,0-2.8,0.7-3.5,1.4v9.4l-6,8V61.6h-5.7l-9.5,15.7V61.6h-3.3
	L30,63.7v2.2l4.7,0.5v19.3h6.1l9.1-15v15h6.7L65.8,73.9z"/>
<path d="M11.9,82.7c0.6,0,0.9,0,1.3,0c4.9,0,7.5-3.1,7.5-8.9c0-5-2.1-7.6-6.1-7.6c-0.7,0-1.4,0.1-2.7,0.2V82.7z M11.9,93.3l3.9,0.9
	l0,2.2H0.4v-2.2l3.5-0.9v-27H0V64l9.5-2.9h2.5v3.2c4.4-2.6,5.9-3.1,8.2-3.1c5.2,0,9.1,4.8,9.1,11.5c0,7.7-5.2,12.9-13.3,12.9
	c-0.9,0-2.5-0.1-4-0.2V93.3z"/>
<rect x="57.2" y="41.4" class="st0" width="23.7" height="5.9"/>
<rect x="80.8" class="st1" width="23.6" height="5.3"/>
<rect x="103.6" y="4.6" class="st2" width="5.4" height="7.9"/>
<rect x="80.8" y="4.6" class="st3" width="23.6" height="7.9"/>
<rect x="108.2" y="11.8" class="st4" width="12.8" height="18.3"/>
<rect x="103.6" y="11.8" class="st5" width="5.4" height="18.3"/>
<rect x="80.8" y="11.8" class="st6" width="23.6" height="18.3"/>
<rect x="80.8" y="23.6" class="st7" width="14.8" height="6.5"/>
<rect x="120.5" y="29.6" class="st8" width="6.5" height="11.8"/>
<rect x="108.2" y="29.6" class="st9" width="12.8" height="11.8"/>
<rect x="103.6" y="29.6" class="st10" width="5.4" height="11.8"/>
<rect x="80.8" y="29.6" class="st11" width="23.6" height="11.8"/>
<rect x="80.8" y="29.6" class="st12" width="14.8" height="11.8"/>
</svg>
