<?xml version="1.0" encoding="utf-8"?>
<!-- Generator: Adobe Illustrator 19.1.0, SVG Export Plug-In . SVG Version: 6.00 Build 0)  -->
<svg version="1.1" id="Layer_1" xmlns="http://www.w3.org/2000/svg" xmlns:xlink="http://www.w3.org/1999/xlink" x="0px" y="0px"
	 viewBox="0 0 95 35.56" style="enable-background:new 0 0 95 35.56;" xml:space="preserve">
<path d="M86.49,2.64c-4.11,0.66-6.21,3.7-6.21,9.04c0,5.38,2.8,8.97,7.09,8.97c2,0,3.81-0.66,7.63-2.53v4.35
	c-4.58,2.1-7.27,2.75-10.96,2.75c-3.99,0-6.8-1.06-9.1-3.4c-2.35-2.35-3.53-5.46-3.53-8.92c0-7.7,5.7-12.9,14.02-12.9
	c5.53,0,9.33,2.53,9.33,6.23c0,2.39-1.77,4.03-4.39,4.03c-1.35,0-2.45-0.35-3.87-1.17V2.64"/>
<path d="M66.21,12.9c3.69-4.65,4.99-6.52,4.99-8.8c0-2.27-1.8-4.1-4.21-4.1c-1.48,0-2.82,0.7-3.47,1.43v9.47l-6.04,8.05V0.6h-5.74
	l-9.55,15.82V0.6h-3.3l-8.66,2.11v2.21l4.73,0.48v19.41h6.11l9.16-15.05v15.05h6.69L66.21,12.9"/>
<path d="M11.97,21.82c0.65,0.03,0.94,0.03,1.35,0.03c4.92,0,7.56-3.07,7.56-8.95c0-4.98-2.16-7.63-6.14-7.63
	c-0.66,0-1.36,0.08-2.76,0.25V21.82 M11.97,32.43l3.96,0.88l0,2.25H0.4v-2.25l3.54-0.88V5.28H0V2.95l9.51-2.89h2.47V3.3
	c4.45-2.65,5.98-3.12,8.27-3.12c5.27,0,9.17,4.86,9.17,11.6c0,7.79-5.19,13.03-13.38,13.03c-0.93,0-2.47-0.06-4.05-0.24V32.43z"/>
</svg>
