<?xml version="1.0" encoding="utf-8"?>
<!-- Generator: Adobe Illustrator 19.2.1, SVG Export Plug-In . SVG Version: 6.00 Build 0)  -->
<svg version="1.1" id="Layer_1" xmlns="http://www.w3.org/2000/svg" xmlns:xlink="http://www.w3.org/1999/xlink" x="0px" y="0px"
	 width="578px" height="300px" viewBox="0 0 578 300" style="enable-background:new 0 0 578 300;" xml:space="preserve">
<style type="text/css">
	.st0{fill:#FFFFFF;}
	.st1{opacity:0.4;fill:#FFFFFF;enable-background:new    ;}
	.st2{opacity:0.3;fill:#FFFFFF;enable-background:new    ;}
	.st3{opacity:0.5;fill:#FFFFFF;enable-background:new    ;}
	.st4{opacity:0.8;fill:#FFFFFF;enable-background:new    ;}
	.st5{opacity:0.6;fill:#FFFFFF;enable-background:new    ;}
</style>
<g>
	<path class="st0" d="M51,234.1c-2.2,0.4-3.3,2-3.3,4.8c0,2.9,1.5,4.8,3.8,4.8c1.1,0,2-0.4,4.1-1.3v2.3c-2.4,1.1-3.9,1.5-5.8,1.5
		c-2.1,0-3.6-0.6-4.8-1.8c-1.3-1.3-1.9-2.9-1.9-4.7c0-4.1,3-6.9,7.5-6.9c2.9,0,5,1.3,5,3.3c0,1.3-0.9,2.1-2.3,2.1
		c-0.7,0-1.3-0.2-2.1-0.6v-3.5"/>
	<path class="st0" d="M40.2,239.6c2-2.5,2.7-3.5,2.7-4.7s-1-2.2-2.2-2.2c-0.8,0-1.5,0.4-1.8,0.8v5l-3.2,4.3V233h-3.1l-5.1,8.4V233
		h-1.8l-4.6,1.1v1.2l2.5,0.3v10.3h3.3l4.9-8v8h3.6L40.2,239.6"/>
	<path class="st0" d="M11.4,244.3c0.3,0,0.5,0,0.7,0c2.6,0,4-1.6,4-4.8c0-2.7-1.1-4.1-3.3-4.1c-0.4,0-0.7,0-1.5,0.1v8.8 M11.4,249.9
		l2.1,0.5v1.2H5.2v-1.2l1.9-0.5v-14.5H5v-1.2l5.1-1.5h1.3v1.7c2.4-1.4,3.2-1.7,4.4-1.7c2.8,0,4.9,2.6,4.9,6.2c0,4.1-2.8,6.9-7.1,6.9
		c-0.5,0-1.3,0-2.2-0.1C11.4,245.7,11.4,249.9,11.4,249.9z"/>
	<rect x="69.8" y="215.8" class="st1" width="3.2" height="6.3"/>
	<rect x="60.9" y="202.5" class="st2" width="2.5" height="3.9"/>
	<rect x="48.3" y="200" class="st3" width="12.6" height="2.5"/>
	<polyline class="st4" points="48.3,215.8 48.3,202.5 60.9,202.5 60.9,206.3 48.3,206.3 48.3,215.8 	"/>
	<rect x="63.4" y="206.3" class="st1" width="6.4" height="9.5"/>
	<rect x="63.4" y="215.8" class="st5" width="6.4" height="6.3"/>
	<rect x="60.9" y="206.3" class="st4" width="2.5" height="9.5"/>
	<rect x="60.9" y="215.8" class="st4" width="2.5" height="6.3"/>
	<polyline class="st0" points="60.9,215.8 56.2,215.8 56.2,212.7 48.3,212.7 48.3,215.8 48.3,206.3 60.9,206.3 60.9,215.8 	"/>
	<rect x="56.2" y="215.8" class="st4" width="4.7" height="6.3"/>
	<rect x="48.3" y="212.7" class="st0" width="7.9" height="3.2"/>
	<rect x="48.3" y="215.8" class="st0" width="7.9" height="6.3"/>
	<rect x="35.6" y="222.2" class="st0" width="12.7" height="3.2"/>
</g>
<g>
	<path class="st0" d="M16.9,6.8c-0.8-0.2-1.6-0.3-2.4-0.3c-2.1,0-3.9,0.6-5.4,1.7C7.8,9.3,7,10.7,7,12.3c0,0.9,0.3,1.8,0.8,2.5
		c0.5,0.8,1.3,1.4,2.3,1.9c0.3,0.1,0.7,0.3,1.2,0.6c1.9,0.9,2.8,1.8,2.8,2.7c0,0.8-0.4,1.5-1.1,2c-0.7,0.5-1.7,0.8-3,0.8
		c-0.2,0-0.4,0-0.6,0c-0.2,0-0.5,0-0.7-0.1l-0.4-0.5v-3.4H6l-1,4.8c1,0.4,1.9,0.6,2.8,0.8c0.9,0.2,1.8,0.3,2.6,0.3
		c2.4,0,4.3-0.6,5.9-1.8c1.6-1.2,2.3-2.6,2.3-4.4c0-0.4-0.1-0.8-0.2-1.2c-0.1-0.4-0.3-0.8-0.6-1.1c-0.5-0.6-1.3-1.1-2.4-1.7
		c-0.2-0.1-0.4-0.2-0.5-0.2l-0.2-0.1c-2.2-1.1-3.3-2.1-3.3-3.1c0-0.8,0.3-1.5,1-2C13,8.7,13.9,8.4,15,8.4c0.3,0,0.4,0,0.6,0
		c0.1,0,0.3,0,0.4,0l0.4,0.4l0.1,3.3h2.2l0.9-4.6C18.7,7.2,17.8,7,16.9,6.8z"/>
	<path class="st0" d="M25.9,14c0.6-0.8,1.2-1.2,2-1.2c0.4,0,0.7,0.1,0.9,0.3c0.2,0.2,0.3,0.5,0.3,0.9c0,0.7-0.4,1.4-1.3,2
		c-0.8,0.6-1.9,1-3.2,1.1C24.9,15.9,25.3,14.8,25.9,14z M24.8,18.6c2.5,0,4.4-0.4,5.7-1.1c1.4-0.7,2-1.8,2-3.1c0-0.9-0.3-1.7-1-2.2
		s-1.6-0.8-2.7-0.8s-2.1,0.2-3.1,0.5s-1.8,0.8-2.6,1.4C22.2,14,21.5,15,21,16s-0.7,2.1-0.7,3.3c0,1.7,0.5,3,1.4,4s2.2,1.5,3.8,1.5
		c0.9,0,1.9-0.2,3-0.6s2.2-1,3.4-1.8v-2c-0.8,0.6-1.6,1-2.3,1.3c-0.7,0.3-1.4,0.5-2.1,0.5c-1,0-1.7-0.3-2.2-0.9s-0.8-1.4-0.8-2.5
		v-0.2C24.5,18.6,24.8,18.6,24.8,18.6z"/>
	<path class="st0" d="M39.3,14c0.6-0.8,1.2-1.2,2-1.2c0.4,0,0.7,0.1,0.9,0.3s0.3,0.5,0.3,0.9c0,0.7-0.4,1.4-1.3,2
		c-0.8,0.6-1.9,1-3.2,1.1C38.3,15.9,38.7,14.8,39.3,14z M38.2,18.6c2.5,0,4.4-0.4,5.7-1.1c1.4-0.7,2-1.8,2-3.1c0-0.9-0.3-1.7-1-2.2
		s-1.6-0.8-2.7-0.8c-1.1,0-2.1,0.2-3.1,0.5s-1.8,0.8-2.6,1.4c-1,0.8-1.7,1.7-2.2,2.7s-0.7,2.1-0.7,3.3c0,1.7,0.5,3,1.4,4
		s2.2,1.5,3.8,1.5c0.9,0,1.9-0.2,3-0.6s2.2-1,3.4-1.8v-2c-0.8,0.6-1.6,1-2.3,1.3s-1.4,0.5-2.1,0.5c-1,0-1.7-0.3-2.2-0.9
		s-0.8-1.4-0.8-2.5v-0.2C37.8,18.6,38.2,18.6,38.2,18.6z"/>
	<path class="st0" d="M56.2,6.4v1l2.3,0.3l-3.4,16.7h4.3l1.6-8.9c0.7-0.5,1.3-0.8,1.8-1s0.8-0.3,1.2-0.3c0.4,0,0.7,0.1,0.9,0.4
		c0.2,0.3,0.3,0.6,0.3,1c0,0.2,0,0.4-0.1,0.7c0,0.3-0.1,0.6-0.2,1l-0.8,3.8c0,0,0,0.1,0,0.2c-0.1,0.6-0.2,1-0.2,1.3
		c0,0.7,0.2,1.2,0.6,1.5c0.4,0.4,1,0.5,1.8,0.5c0.6,0,1.2-0.1,2.1-0.3c0.8-0.2,1.8-0.4,2.8-0.8v-1.2c-0.4,0.1-0.7,0.2-1,0.3
		c-0.3,0.1-0.5,0.1-0.7,0.1c-0.5,0-0.8-0.1-1-0.4c-0.2-0.2-0.3-0.6-0.3-1.1c0-0.2,0-0.5,0.1-0.8c0.1-0.4,0.1-0.8,0.2-1.2l0.7-3.1
		c0.1-0.4,0.2-0.8,0.2-1.1c0.1-0.3,0.1-0.6,0.1-0.8c0-0.8-0.3-1.5-0.8-2c-0.6-0.5-1.3-0.8-2.1-0.8c-0.7,0-1.4,0.2-2.3,0.7
		c-0.9,0.4-1.9,1.1-3,2l1.9-8.8h-1.5L56.2,6.4z"/>
	<path class="st0" d="M81.4,13.8c0.3,0.6,0.5,1.4,0.5,2.6c0,1.9-0.3,3.5-0.9,4.8c-0.6,1.2-1.4,1.9-2.3,1.9c-0.7,0-1.2-0.3-1.6-0.8
		c-0.3-0.6-0.5-1.4-0.5-2.6c0-2,0.3-3.6,0.9-4.8s1.4-1.8,2.4-1.8C80.6,13,81.1,13.3,81.4,13.8z M77.1,11.8c-1,0.3-1.8,0.8-2.5,1.4
		c-0.9,0.7-1.5,1.6-2,2.6c-0.4,1-0.7,2-0.7,3.1c0,1.8,0.5,3.3,1.6,4.3c1.1,1,2.6,1.5,4.5,1.5c2.4,0,4.4-0.7,6-2.2s2.3-3.4,2.3-5.7
		c0-1.8-0.6-3.1-1.7-4.1s-2.7-1.5-4.7-1.5C79.1,11.3,78.1,11.5,77.1,11.8z"/>
	<path class="st0" d="M87.1,12.4v1.1l2.6,0.4l0.4,9.3l-0.3,1.2h3.3l4.9-8.9l0.6,8.9h3.1c3.1-3.7,5.1-6.2,5.9-7.6
		c0.9-1.4,1.3-2.5,1.3-3.4c0-0.6-0.2-1.1-0.6-1.5s-0.9-0.6-1.6-0.6c-0.3,0-0.7,0.1-1,0.2c-0.3,0.1-0.6,0.3-0.9,0.6l0.7,4.8l-3.4,4.6
		l-0.5-9.8L97.7,12v0.7l-3.8,7.1l-0.3-6.3c0-0.3-0.1-0.6-0.1-1c-0.1-0.4-0.1-0.8-0.2-1.3h-1.5L87.1,12.4z"/>
	<path class="st0" d="M117.2,12.4v1.1l2.6,0.4l0.4,9.3l-0.3,1.2h3.3l4.9-8.9l0.6,8.9h3.1c3.1-3.7,5.1-6.2,5.9-7.6
		c0.9-1.4,1.3-2.5,1.3-3.4c0-0.6-0.2-1.1-0.6-1.5c-0.4-0.4-0.9-0.6-1.6-0.6c-0.3,0-0.7,0.1-1,0.2c-0.3,0.1-0.6,0.3-0.9,0.6l0.7,4.8
		l-3.4,4.6l-0.5-9.8l-3.9,0.3v0.7l-3.8,7.1l-0.3-6.3c0-0.3-0.1-0.6-0.1-1c-0.1-0.4-0.1-0.8-0.2-1.3h-1.5L117.2,12.4z"/>
	<path class="st0" d="M145,14c0.6-0.8,1.2-1.2,2-1.2c0.4,0,0.7,0.1,0.9,0.3s0.3,0.5,0.3,0.9c0,0.7-0.4,1.4-1.3,2s-1.9,1-3.2,1.1
		C144,15.9,144.4,14.8,145,14z M143.9,18.6c2.5,0,4.4-0.4,5.7-1.1c1.4-0.7,2-1.8,2-3.1c0-0.9-0.3-1.7-1-2.2s-1.6-0.8-2.7-0.8
		c-1.1,0-2.1,0.2-3.1,0.5s-1.8,0.8-2.6,1.4c-1,0.8-1.7,1.7-2.2,2.7s-0.7,2.1-0.7,3.3c0,1.7,0.5,3,1.4,4s2.2,1.5,3.8,1.5
		c0.9,0,1.9-0.2,3-0.6s2.2-1,3.4-1.8v-2c-0.8,0.6-1.6,1-2.3,1.3s-1.4,0.5-2.1,0.5c-1,0-1.7-0.3-2.2-0.9s-0.8-1.4-0.8-2.5v-0.2
		C143.5,18.6,143.9,18.6,143.9,18.6z"/>
	<path class="st0" d="M161.9,6.4v1l2.3,0.3l-3.4,16.7h4.3l1.6-8.9c0.7-0.5,1.3-0.8,1.8-1s0.8-0.3,1.2-0.3s0.7,0.1,0.9,0.4
		c0.2,0.3,0.3,0.6,0.3,1c0,0.2,0,0.4-0.1,0.7c0,0.3-0.1,0.6-0.2,1l-0.8,3.8c0,0,0,0.1,0,0.2c-0.1,0.6-0.2,1-0.2,1.3
		c0,0.7,0.2,1.2,0.6,1.5c0.4,0.4,1,0.5,1.8,0.5c0.6,0,1.2-0.1,2.1-0.3c0.8-0.2,1.8-0.4,2.8-0.8v-1.2c-0.4,0.1-0.7,0.2-1,0.3
		c-0.3,0.1-0.5,0.1-0.7,0.1c-0.5,0-0.8-0.1-1-0.4c-0.2-0.2-0.3-0.6-0.3-1.1c0-0.2,0-0.5,0.1-0.8c0.1-0.4,0.1-0.8,0.2-1.2l0.7-3.1
		c0.1-0.4,0.2-0.8,0.2-1.1c0.1-0.3,0.1-0.6,0.1-0.8c0-0.8-0.3-1.5-0.8-2c-0.6-0.5-1.3-0.8-2.1-0.8c-0.7,0-1.4,0.2-2.3,0.7
		c-0.9,0.4-1.9,1.1-3,2l1.9-8.8h-1.5L161.9,6.4z"/>
	<path class="st0" d="M183.4,14c0.6-0.8,1.2-1.2,2-1.2c0.4,0,0.7,0.1,0.9,0.3s0.3,0.5,0.3,0.9c0,0.7-0.4,1.4-1.3,2
		c-0.8,0.6-1.9,1-3.2,1.1C182.4,15.9,182.8,14.8,183.4,14z M182.3,18.6c2.5,0,4.4-0.4,5.7-1.1c1.4-0.7,2-1.8,2-3.1
		c0-0.9-0.3-1.7-1-2.2s-1.6-0.8-2.7-0.8c-1.1,0-2.1,0.2-3.1,0.5s-1.8,0.8-2.6,1.4c-1,0.8-1.7,1.7-2.2,2.7s-0.7,2.1-0.7,3.3
		c0,1.7,0.5,3,1.4,4s2.2,1.5,3.8,1.5c0.9,0,1.9-0.2,3-0.6s2.2-1,3.4-1.8v-2c-0.8,0.6-1.6,1-2.3,1.3s-1.4,0.5-2.1,0.5
		c-1,0-1.7-0.3-2.2-0.9s-0.8-1.4-0.8-2.5v-0.2C181.9,18.6,182.3,18.6,182.3,18.6z"/>
	<path class="st0" d="M191.9,6.5v1.1l2.3,0.3l-2.4,11.9c-0.1,0.5-0.2,1-0.2,1.5c-0.1,0.5-0.1,0.8-0.1,1.1c0,0.7,0.2,1.3,0.7,1.7
		c0.5,0.4,1.1,0.6,1.9,0.6c0.5,0,1.2-0.1,2-0.3c0.8-0.2,1.8-0.5,3.1-0.9v-1.2c-0.4,0.1-0.8,0.2-1.2,0.3c-0.3,0.1-0.6,0.1-0.9,0.1
		c-0.4,0-0.7-0.1-0.9-0.3c-0.2-0.2-0.3-0.5-0.3-0.9c0-0.2,0-0.5,0.1-0.8s0.1-0.8,0.3-1.5l2.6-13.8h-1.6L191.9,6.5z"/>
	<path class="st0" d="M205.8,24.4c0.3,0.1,0.6,0.1,0.9,0.1c2.4,0,4.3-0.8,5.9-2.4c1.6-1.6,2.3-3.6,2.3-6c0-1.4-0.4-2.6-1.1-3.4
		c-0.7-0.9-1.7-1.3-2.9-1.3c-0.7,0-1.5,0.2-2.2,0.5s-1.5,0.8-2.3,1.5l0.4-2h-1.6l-5.2,1.2v1.2l2.1,0.2l-2.4,13.9l-0.2,0.4l-1.7,0.5
		v1.3h8.5v-1.2l-2.5-0.5l0.7-4.2C205,24.2,205.4,24.3,205.8,24.4z M206.2,14.7c0.5-0.3,0.9-0.5,1.3-0.7c0.4-0.2,0.7-0.2,1.1-0.2
		c0.6,0,1.1,0.2,1.4,0.7c0.3,0.4,0.5,1.1,0.5,1.9c0,1.8-0.4,3.4-1.2,4.6s-1.9,1.8-3.1,1.8c-0.2,0-0.5,0-0.7-0.1
		c-0.2,0-0.4-0.1-0.7-0.2L206.2,14.7z"/>
	<path class="st0" d="M221.7,14c0.6-0.8,1.2-1.2,2-1.2c0.4,0,0.7,0.1,0.9,0.3s0.3,0.5,0.3,0.9c0,0.7-0.4,1.4-1.3,2
		c-0.8,0.6-1.9,1-3.2,1.1C220.7,15.9,221.1,14.8,221.7,14z M220.6,18.6c2.5,0,4.4-0.4,5.7-1.1c1.4-0.7,2-1.8,2-3.1
		c0-0.9-0.3-1.7-1-2.2s-1.6-0.8-2.7-0.8c-1.1,0-2.1,0.2-3.1,0.5s-1.8,0.8-2.6,1.4c-1,0.8-1.7,1.7-2.2,2.7s-0.7,2.1-0.7,3.3
		c0,1.7,0.5,3,1.4,4s2.2,1.5,3.8,1.5c0.9,0,1.9-0.2,3-0.6s2.2-1,3.4-1.8v-2c-0.8,0.6-1.6,1-2.3,1.3s-1.4,0.5-2.1,0.5
		c-1,0-1.7-0.3-2.2-0.9s-0.8-1.4-0.8-2.5v-0.2C220.2,18.6,220.6,18.6,220.6,18.6z"/>
	<path class="st0" d="M239.6,14.3l-1.2,6.9c-0.5,0.3-0.9,0.5-1.3,0.6c-0.4,0.1-0.7,0.2-1,0.2c-0.7,0-1.2-0.2-1.5-0.7
		s-0.5-1.1-0.5-2.1c0-1.1,0.2-2.2,0.6-3.3c0.4-1.1,0.9-1.9,1.6-2.6c0.3-0.3,0.5-0.4,0.9-0.6c0.3-0.1,0.7-0.2,1-0.2
		c0.1,0,0.2,0,0.3,0s0.1,0,0.2,0L239.6,14.3z M238.3,6.5v1l2.3,0.4l-0.7,3.8c-0.5-0.1-1-0.2-1.4-0.3c-0.5-0.1-0.9-0.1-1.3-0.1
		c-1,0-1.9,0.2-2.8,0.5c-0.9,0.4-1.7,0.9-2.3,1.6c-0.8,0.8-1.4,1.7-1.9,2.8c-0.4,1.1-0.7,2.2-0.7,3.4c0,1.5,0.4,2.7,1.2,3.6
		s1.8,1.4,3,1.4c0.6,0,1.3-0.2,2-0.5s1.6-0.8,2.6-1.6c0.1,0.7,0.3,1.2,0.7,1.5s1,0.5,1.8,0.5c0.6,0,1.3-0.1,2.2-0.3
		c0.8-0.2,1.7-0.5,2.6-0.9V22c-0.4,0.1-0.8,0.2-1.1,0.3c-0.3,0.1-0.5,0.1-0.7,0.1c-0.4,0-0.8-0.1-1-0.3c-0.2-0.2-0.3-0.6-0.3-1
		c0-0.2,0-0.5,0.1-1c0-0.1,0-0.2,0-0.2l2.6-14.7h-1.5L238.3,6.5z"/>
	<path class="st0" d="M264.6,14.4l-1.2,6.8c-0.6,0.3-1,0.5-1.4,0.6s-0.7,0.2-1,0.2c-0.7,0-1.2-0.2-1.5-0.7s-0.5-1.2-0.5-2.2
		c0-1.8,0.4-3.3,1.2-4.5c0.8-1.2,1.8-1.8,2.9-1.8c0.1,0,0.2,0,0.2,0h0.1L264.6,14.4z M264,11.5c-0.6-0.1-1.1-0.2-1.7-0.2
		c-1,0-1.9,0.2-2.8,0.5s-1.6,0.7-2.3,1.3c-1,0.9-1.7,1.9-2.2,2.9c-0.5,1.1-0.7,2.3-0.7,3.6c0,1.5,0.4,2.8,1.1,3.7
		c0.7,0.9,1.7,1.3,3,1.3c0.8,0,1.5-0.2,2.3-0.5s1.6-0.8,2.5-1.5c0,0.7,0.2,1.1,0.6,1.5c0.4,0.3,1,0.5,1.8,0.5c0.7,0,1.5-0.1,2.3-0.3
		c0.8-0.2,1.7-0.4,2.5-0.8l0.1-1.3c-0.4,0.2-0.8,0.3-1.1,0.3c-0.3,0.1-0.6,0.1-0.8,0.1c-0.4,0-0.7-0.1-0.9-0.4
		c-0.2-0.3-0.3-0.6-0.3-1.1c0-0.2,0-0.4,0-0.7c0-0.2,0.1-0.5,0.1-0.8l1.7-8.4h-1.8l-1.5,0.7C265.3,11.8,264.6,11.6,264,11.5z"/>
	<path class="st0" d="M284.9,24.4c0.3,0.1,0.6,0.1,0.9,0.1c2.4,0,4.3-0.8,5.9-2.4s2.3-3.6,2.3-6c0-1.4-0.4-2.6-1.1-3.4
		c-0.7-0.9-1.7-1.3-2.9-1.3c-0.7,0-1.5,0.2-2.2,0.5s-1.5,0.8-2.3,1.5l0.4-2h-1.6l-5.2,1.2v1.2l2.1,0.2l-2.4,13.9l-0.2,0.4l-1.7,0.5
		v1.3h8.5v-1.2l-2.5-0.5l0.7-4.2C284.2,24.2,284.6,24.3,284.9,24.4z M285.4,14.7c0.5-0.3,0.9-0.5,1.3-0.7s0.7-0.2,1.1-0.2
		c0.6,0,1.1,0.2,1.4,0.7c0.3,0.4,0.5,1.1,0.5,1.9c0,1.8-0.4,3.4-1.2,4.6c-0.8,1.2-1.9,1.8-3.1,1.8c-0.2,0-0.5,0-0.7-0.1
		c-0.2,0-0.4-0.1-0.7-0.2L285.4,14.7z"/>
	<path class="st0" d="M307.5,15.7c0.6-0.5,0.9-1.3,0.9-2.2c0-0.7-0.2-1.3-0.6-1.7s-0.9-0.7-1.6-0.7s-1.4,0.3-2.2,0.8
		c-0.8,0.6-1.7,1.5-2.8,2.9l0.7-3.6h-1.2l-5.3,1.3v1.1l2.3,0.2l-2.1,10.5h4.3l1-5.9c0.2-1.1,0.6-2,1.1-2.8c0.6-0.7,1.3-1.3,2.2-1.7
		l0.8,2.5C306,16.5,306.9,16.3,307.5,15.7z"/>
	<path class="st0" d="M309.2,12.4v1.2l2.2,0.3l-1.3,6.2c-0.1,0.5-0.2,1-0.3,1.4c-0.1,0.4-0.1,0.7-0.1,0.9c0,0.8,0.2,1.3,0.6,1.7
		c0.4,0.4,1.1,0.6,1.9,0.6c0.6,0,1.4-0.1,2.2-0.3c0.8-0.2,1.8-0.5,2.9-0.9v-1.3c-0.5,0.1-1,0.2-1.3,0.3c-0.3,0.1-0.6,0.1-0.8,0.1
		c-0.4,0-0.6-0.1-0.8-0.3c-0.2-0.2-0.3-0.5-0.3-0.9c0-0.3,0-0.6,0.1-1c0-0.4,0.1-0.8,0.2-1.2l1.6-7.8h-1.6L309.2,12.4z M313,5.7
		c-0.5,0.5-0.8,1.1-0.8,1.8c0,0.6,0.2,1,0.6,1.4s0.9,0.5,1.5,0.5c0.8,0,1.5-0.2,2-0.7s0.8-1.1,0.8-1.8c0-0.6-0.2-1.1-0.6-1.4
		S315.6,5,314.9,5C314.2,5,313.5,5.2,313,5.7z"/>
	<path class="st0" d="M329.2,17.8c1.4-2,2.1-3.5,2.1-4.5c0-0.6-0.2-1.1-0.5-1.4c-0.4-0.3-0.9-0.5-1.5-0.5c-0.3,0-0.7,0.1-1.1,0.2
		c-0.4,0.1-0.7,0.3-1.1,0.6l0.7,4.5c-0.6,0.8-1.1,1.6-1.7,2.4s-1.2,1.5-1.8,2.2l-0.7-7.6c-0.1-0.7-0.1-1.2-0.2-1.5s-0.2-0.6-0.4-0.9
		h-1.2l-4.6,1.1v1l2.3,0.3l0.9,9.5l-0.2,1.1h3.3C325.9,22,327.8,19.8,329.2,17.8z"/>
	<path class="st0" d="M341.7,14.4l-1.2,6.8c-0.6,0.3-1,0.5-1.4,0.6s-0.7,0.2-1,0.2c-0.7,0-1.2-0.2-1.5-0.7s-0.5-1.2-0.5-2.2
		c0-1.8,0.4-3.3,1.2-4.5c0.8-1.2,1.8-1.8,2.9-1.8c0.1,0,0.2,0,0.2,0h0.1L341.7,14.4z M341.2,11.5c-0.6-0.1-1.1-0.2-1.7-0.2
		c-1,0-1.9,0.2-2.8,0.5s-1.6,0.7-2.3,1.3c-1,0.9-1.7,1.9-2.2,2.9c-0.5,1.1-0.7,2.3-0.7,3.6c0,1.5,0.4,2.8,1.1,3.7
		c0.7,0.9,1.7,1.3,3,1.3c0.8,0,1.5-0.2,2.3-0.5s1.6-0.8,2.5-1.5c0,0.7,0.2,1.1,0.6,1.5c0.4,0.3,1,0.5,1.8,0.5c0.7,0,1.5-0.1,2.3-0.3
		c0.8-0.2,1.7-0.4,2.5-0.8l0.1-1.3c-0.4,0.2-0.8,0.3-1.1,0.3c-0.3,0.1-0.6,0.1-0.8,0.1c-0.4,0-0.7-0.1-0.9-0.4
		c-0.2-0.3-0.3-0.6-0.3-1.1c0-0.2,0-0.4,0-0.7c0-0.2,0.1-0.5,0.1-0.8l1.7-8.4h-1.8l-1.5,0.7C342.5,11.8,341.8,11.6,341.2,11.5z"/>
	<path class="st0" d="M351.3,11.3l-2.7,1.4v1.1h1.9l-1.2,6.7c-0.1,0.4-0.1,0.7-0.1,0.9c0,0.2,0,0.5,0,0.7c0,0.8,0.3,1.5,0.8,1.9
		s1.2,0.7,2.2,0.7c0.5,0,1.2-0.1,2-0.3c0.8-0.2,1.9-0.5,3.2-0.8v-1.5c-0.6,0.2-1.1,0.3-1.5,0.4s-0.7,0.1-0.9,0.1
		c-0.4,0-0.8-0.1-1-0.3c-0.2-0.2-0.4-0.5-0.4-0.9c0-0.2,0-0.5,0-0.8s0.1-0.6,0.1-0.9l1.1-5.8h3.9V12H355l0.7-3.7h-2.2L351.3,11.3z"
		/>
	<path class="st0" d="M363.9,14c0.6-0.8,1.2-1.2,2-1.2c0.4,0,0.7,0.1,0.9,0.3c0.2,0.2,0.3,0.5,0.3,0.9c0,0.7-0.4,1.4-1.3,2
		c-0.8,0.6-1.9,1-3.2,1.1C362.9,15.9,363.3,14.8,363.9,14z M362.8,18.6c2.5,0,4.4-0.4,5.7-1.1c1.4-0.7,2-1.8,2-3.1
		c0-0.9-0.3-1.7-1-2.2s-1.6-0.8-2.7-0.8s-2.1,0.2-3.1,0.5s-1.8,0.8-2.6,1.4c-1,0.8-1.7,1.7-2.2,2.7s-0.7,2.1-0.7,3.3
		c0,1.7,0.5,3,1.4,4s2.2,1.5,3.8,1.5c0.9,0,1.9-0.2,3-0.6s2.2-1,3.4-1.8v-2c-0.8,0.6-1.6,1-2.3,1.3c-0.7,0.3-1.4,0.5-2.1,0.5
		c-1,0-1.7-0.3-2.2-0.9s-0.8-1.4-0.8-2.5v-0.2C362.4,18.6,362.8,18.6,362.8,18.6z"/>
	<path class="st0" d="M392.1,8.6c0.4-0.4,0.6-0.8,0.6-1.3c0-0.6-0.3-1.1-0.9-1.5s-1.4-0.6-2.3-0.6c-1.7,0-3.3,0.6-4.5,1.7
		c-1.3,1.2-2.1,2.7-2.4,4.7l-2.2,1V14l1.8-0.2l-1.2,8.4v0.3c-0.4,2.7-0.8,4.6-1.3,5.6l-3-2.2c-0.6,0.2-1,0.5-1.3,0.8
		c-0.3,0.4-0.4,0.8-0.4,1.3c0,0.7,0.2,1.2,0.7,1.6c0.4,0.4,1,0.6,1.7,0.6c0.8,0,1.6-0.2,2.4-0.6s1.5-1,2.3-1.8
		c0.9-1,1.7-2.1,2.2-3.4s0.9-2.7,1.2-4.3l0.9-6.2h3.9V12h-3.6c0.2-0.9,0.4-1.8,0.7-2.6c0.3-0.9,0.6-1.8,1-2.7l2.4,2.9
		C391.1,9.2,391.7,9,392.1,8.6z"/>
	<path class="st0" d="M398.8,13.8c0.3,0.6,0.5,1.4,0.5,2.6c0,1.9-0.3,3.5-0.9,4.8c-0.6,1.2-1.4,1.9-2.3,1.9c-0.7,0-1.2-0.3-1.6-0.8
		c-0.3-0.6-0.5-1.4-0.5-2.6c0-2,0.3-3.6,0.9-4.8s1.4-1.8,2.4-1.8C397.9,13,398.4,13.3,398.8,13.8z M394.5,11.8
		c-1,0.3-1.8,0.8-2.5,1.4c-0.9,0.7-1.5,1.6-2,2.6c-0.4,1-0.7,2-0.7,3.1c0,1.8,0.5,3.3,1.6,4.3c1.1,1,2.6,1.5,4.5,1.5
		c2.4,0,4.4-0.7,6-2.2s2.3-3.4,2.3-5.7c0-1.8-0.6-3.1-1.7-4.1s-2.7-1.5-4.7-1.5C396.5,11.3,395.5,11.5,394.5,11.8z"/>
	<path class="st0" d="M414.6,13.8c0.3,0.6,0.5,1.4,0.5,2.6c0,1.9-0.3,3.5-0.9,4.8c-0.6,1.2-1.4,1.9-2.3,1.9c-0.7,0-1.2-0.3-1.6-0.8
		c-0.3-0.6-0.5-1.4-0.5-2.6c0-2,0.3-3.6,0.9-4.8s1.4-1.8,2.4-1.8C413.7,13,414.2,13.3,414.6,13.8z M410.3,11.8
		c-1,0.3-1.8,0.8-2.5,1.4c-0.9,0.7-1.5,1.6-2,2.6c-0.4,1-0.7,2-0.7,3.1c0,1.8,0.5,3.3,1.6,4.3c1.1,1,2.6,1.5,4.5,1.5
		c2.4,0,4.4-0.7,6-2.2s2.3-3.4,2.3-5.7c0-1.8-0.6-3.1-1.7-4.1s-2.7-1.5-4.7-1.5C412.2,11.3,411.2,11.5,410.3,11.8z"/>
	<path class="st0" d="M431,14.3l-1.2,6.9c-0.5,0.3-0.9,0.5-1.3,0.6s-0.7,0.2-1,0.2c-0.7,0-1.2-0.2-1.5-0.7s-0.5-1.1-0.5-2.1
		c0-1.1,0.2-2.2,0.6-3.3s0.9-1.9,1.6-2.6c0.3-0.3,0.5-0.4,0.9-0.6c0.3-0.1,0.7-0.2,1-0.2c0.1,0,0.2,0,0.3,0c0.1,0,0.1,0,0.2,0
		L431,14.3z M429.8,6.5v1l2.3,0.4l-0.7,3.8c-0.5-0.1-1-0.2-1.4-0.3c-0.5-0.1-0.9-0.1-1.3-0.1c-1,0-1.9,0.2-2.8,0.5
		c-0.9,0.4-1.7,0.9-2.3,1.6c-0.8,0.8-1.4,1.7-1.9,2.8c-0.4,1.1-0.7,2.2-0.7,3.4c0,1.5,0.4,2.7,1.2,3.6c0.8,0.9,1.8,1.4,3,1.4
		c0.6,0,1.3-0.2,2-0.5s1.6-0.8,2.6-1.6c0.1,0.7,0.3,1.2,0.7,1.5c0.4,0.3,1,0.5,1.8,0.5c0.6,0,1.3-0.1,2.2-0.3
		c0.8-0.2,1.7-0.5,2.6-0.9V22c-0.4,0.1-0.8,0.2-1.1,0.3c-0.3,0.1-0.5,0.1-0.7,0.1c-0.4,0-0.8-0.1-1-0.3c-0.2-0.2-0.3-0.6-0.3-1
		c0-0.2,0-0.5,0.1-1c0-0.1,0-0.2,0-0.2l2.6-14.7h-1.5L429.8,6.5z"/>
	<path class="st0" d="M455.9,21.2c-0.4,0.2-0.7,0.4-1,0.5c-0.4,0.1-0.7,0.2-1,0.3c-0.3,0.1-0.6,0.1-0.9,0.1c-0.8,0-1.5-0.3-2-0.9
		s-0.7-1.4-0.7-2.5c0-1.2,0.2-2.4,0.7-3.5s1.1-1.9,1.8-2.4l1.9,3.4c0.9-0.1,1.6-0.3,2.1-0.8c0.5-0.4,0.8-1,0.8-1.7
		c0-0.8-0.3-1.4-0.9-1.8c-0.6-0.4-1.5-0.6-2.7-0.6s-2.3,0.2-3.4,0.7s-2,1.1-2.8,1.9c-0.7,0.7-1.2,1.5-1.5,2.4
		c-0.4,0.9-0.5,1.9-0.5,2.9c0,1.6,0.5,2.9,1.4,3.9s2.1,1.5,3.6,1.5c1,0,2-0.2,3.1-0.6c1-0.4,2.1-1,3.2-1.8v-1.8
		C456.8,20.7,456.3,21,455.9,21.2z"/>
	<path class="st0" d="M468,13.8c0.3,0.6,0.5,1.4,0.5,2.6c0,1.9-0.3,3.5-0.9,4.8c-0.6,1.2-1.4,1.9-2.3,1.9c-0.7,0-1.2-0.3-1.6-0.8
		c-0.3-0.6-0.5-1.4-0.5-2.6c0-2,0.3-3.6,0.9-4.8s1.4-1.8,2.4-1.8C467.2,13,467.7,13.3,468,13.8z M463.8,11.8c-1,0.3-1.8,0.8-2.5,1.4
		c-0.9,0.7-1.5,1.6-2,2.6c-0.4,1-0.7,2-0.7,3.1c0,1.8,0.5,3.3,1.6,4.3c1.1,1,2.6,1.5,4.5,1.5c2.4,0,4.4-0.7,6-2.2s2.3-3.4,2.3-5.7
		c0-1.8-0.6-3.1-1.7-4.1s-2.7-1.5-4.7-1.5C465.7,11.3,464.7,11.5,463.8,11.8z"/>
	<path class="st0" d="M474.5,12.6v1.2l2.1,0.2l-2,10.4h4.2l1.6-9.2c0.5-0.4,1-0.6,1.5-0.8s0.9-0.3,1.3-0.3s0.8,0.1,1,0.3
		s0.4,0.6,0.4,1c0,0.1,0,0.2,0,0.3s-0.1,0.4-0.1,0.7l-1.5,8h4.3l1.5-9.1c0.5-0.4,1-0.6,1.5-0.8s0.9-0.3,1.3-0.3
		c0.5,0,0.8,0.1,1.1,0.3c0.2,0.2,0.3,0.6,0.3,1.1c0,0.1,0,0.3,0,0.5c0,0.2-0.1,0.4-0.1,0.7l-1,4.3c-0.1,0.2-0.1,0.5-0.1,0.7
		s0,0.5,0,0.7c0,0.7,0.2,1.2,0.6,1.6s1,0.6,1.7,0.6c0.6,0,1.4-0.1,2.2-0.3c0.9-0.2,1.8-0.5,2.9-0.9v-1.3c-0.4,0.1-0.8,0.2-1.1,0.3
		c-0.3,0.1-0.5,0.1-0.7,0.1c-0.5,0-0.8-0.1-1-0.3c-0.2-0.2-0.3-0.5-0.3-1c0-0.3,0-0.6,0.1-1.1s0.2-1,0.3-1.6l0.7-3.1
		c0.1-0.2,0.1-0.5,0.1-0.7s0-0.4,0-0.5c0-0.9-0.3-1.6-0.8-2.1c-0.5-0.5-1.2-0.8-2.1-0.8c-0.8,0-1.6,0.2-2.5,0.7
		c-0.9,0.4-1.9,1.1-2.9,2c-0.1-0.9-0.3-1.5-0.8-2c-0.5-0.4-1.2-0.7-2.1-0.7c-0.8,0-1.6,0.2-2.5,0.7s-1.9,1.1-2.8,2l0.6-2.7H480
		L474.5,12.6z"/>
	<path class="st0" d="M505.5,24.4c0.3,0.1,0.6,0.1,0.9,0.1c2.4,0,4.3-0.8,5.9-2.4c1.6-1.6,2.3-3.6,2.3-6c0-1.4-0.4-2.6-1.1-3.4
		c-0.7-0.9-1.7-1.3-2.9-1.3c-0.7,0-1.5,0.2-2.2,0.5s-1.5,0.8-2.3,1.5l0.4-2h-1.6l-5.2,1.2v1.2l2.1,0.2l-2.4,13.9l-0.2,0.4l-1.7,0.5
		v1.3h8.5v-1.2l-2.5-0.5l0.7-4.2C504.7,24.2,505.2,24.3,505.5,24.4z M505.9,14.7c0.5-0.3,0.9-0.5,1.3-0.7s0.7-0.2,1.1-0.2
		c0.6,0,1.1,0.2,1.4,0.7c0.3,0.4,0.5,1.1,0.5,1.9c0,1.8-0.4,3.4-1.2,4.6c-0.8,1.2-1.9,1.8-3.1,1.8c-0.2,0-0.5,0-0.7-0.1
		c-0.2,0-0.4-0.1-0.7-0.2L505.9,14.7z"/>
	<path class="st0" d="M526.1,14.4l-1.2,6.8c-0.6,0.3-1,0.5-1.4,0.6s-0.7,0.2-1,0.2c-0.7,0-1.2-0.2-1.5-0.7s-0.5-1.2-0.5-2.2
		c0-1.8,0.4-3.3,1.2-4.5s1.8-1.8,2.9-1.8c0.1,0,0.2,0,0.2,0h0.1L526.1,14.4z M525.5,11.5c-0.6-0.1-1.1-0.2-1.7-0.2
		c-1,0-1.9,0.2-2.8,0.5c-0.9,0.3-1.6,0.7-2.3,1.3c-1,0.9-1.7,1.9-2.2,2.9c-0.5,1.1-0.7,2.3-0.7,3.6c0,1.5,0.4,2.8,1.1,3.7
		c0.7,0.9,1.7,1.3,3,1.3c0.8,0,1.5-0.2,2.3-0.5s1.6-0.8,2.5-1.5c0,0.7,0.2,1.1,0.6,1.5c0.4,0.3,1,0.5,1.8,0.5c0.7,0,1.5-0.1,2.3-0.3
		c0.8-0.2,1.7-0.4,2.5-0.8l0.1-1.3c-0.4,0.2-0.8,0.3-1.1,0.3c-0.3,0.1-0.6,0.1-0.8,0.1c-0.4,0-0.7-0.1-0.9-0.4s-0.3-0.6-0.3-1.1
		c0-0.2,0-0.4,0-0.7c0-0.2,0.1-0.5,0.1-0.8l1.7-8.4h-1.8l-1.5,0.7C526.8,11.8,526.1,11.6,525.5,11.5z"/>
	<path class="st0" d="M532.8,12.7v1.1L535,14l-2,10.4h4.5l1.5-9c0.7-0.5,1.3-0.8,1.8-1c0.4-0.2,0.8-0.3,1.1-0.3
		c0.4,0,0.7,0.1,0.9,0.4c0.2,0.2,0.3,0.6,0.3,1c0,0.2,0,0.5-0.1,0.8c0,0.3-0.1,0.6-0.2,1l-0.8,3.8c0,0,0,0.1,0,0.2
		c-0.1,0.6-0.2,1.1-0.2,1.3c0,0.7,0.2,1.2,0.6,1.5c0.4,0.4,1,0.5,1.8,0.5c0.6,0,1.2-0.1,2.1-0.3c0.8-0.2,1.8-0.4,2.8-0.8v-1.2
		c-0.4,0.1-0.7,0.2-1,0.3c-0.3,0.1-0.5,0.1-0.7,0.1c-0.5,0-0.8-0.1-1-0.4c-0.2-0.2-0.3-0.6-0.3-1.1c0-0.2,0-0.5,0.1-0.8
		c0.1-0.4,0.1-0.8,0.2-1.2l0.7-3.1c0.1-0.4,0.2-0.7,0.2-1.1c0-0.3,0.1-0.6,0.1-0.9c0-0.8-0.3-1.5-0.8-2c-0.6-0.5-1.3-0.8-2.1-0.8
		c-0.7,0-1.4,0.2-2.3,0.7c-0.9,0.4-1.9,1.1-3.1,2.1l0.6-2.7h-1.4L532.8,12.7z"/>
	<path class="st0" d="M548.8,12.3v1.1l2.5,0.3l1.8,9.8h2c-0.7,1.2-1.3,2.2-1.9,2.8c-0.6,0.6-1.1,1-1.6,1.1l-2-1.8
		c-0.6,0.2-1,0.5-1.3,0.9s-0.5,0.9-0.5,1.5s0.2,1.1,0.6,1.6c0.4,0.4,1,0.6,1.7,0.6c1,0,2-0.4,3-1.3s2.1-2.1,3.1-3.8
		c0.7-1.1,1.6-2.9,2.8-5.5s2.2-4.5,3.1-5.8l1.8-0.9V12l-2.2-0.7h-1.1c-1,2.3-2.2,5.1-3.7,8.6l-0.4,1l-1-7.1c-0.1-0.5-0.2-1-0.3-1.4
		s-0.3-0.8-0.6-1.1h-1.5L548.8,12.3z"/>
	<path class="st0" d="M113.5,47.1c0.6-0.8,1.2-1.2,2-1.2c0.4,0,0.7,0.1,0.9,0.3c0.2,0.2,0.3,0.5,0.3,0.9c0,0.7-0.4,1.4-1.3,2
		c-0.8,0.6-1.9,1-3.2,1.1C112.5,48.9,112.9,47.8,113.5,47.1z M112.4,51.6c2.5,0,4.4-0.4,5.7-1.1c1.4-0.7,2-1.8,2-3.1
		c0-0.9-0.3-1.7-1-2.2s-1.6-0.8-2.7-0.8s-2.1,0.2-3.1,0.5s-1.8,0.8-2.6,1.4c-1,0.8-1.7,1.7-2.2,2.7s-0.7,2.1-0.7,3.3
		c0,1.7,0.5,3,1.4,4s2.2,1.5,3.8,1.5c0.9,0,1.9-0.2,3-0.6c1.1-0.4,2.2-1,3.4-1.8v-2c-0.8,0.6-1.6,1-2.3,1.3
		c-0.7,0.3-1.4,0.5-2.1,0.5c-1,0-1.7-0.3-2.2-0.9c-0.5-0.6-0.8-1.4-0.8-2.5v-0.2C112,51.6,112.4,51.6,112.4,51.6z"/>
	<path class="st0" d="M135.3,48c0.4-0.5,0.6-1.1,0.6-1.8c0-0.6-0.2-1-0.5-1.4s-0.8-0.5-1.3-0.5c-0.8,0-1.5,0.3-2.2,1
		s-1.5,1.7-2.4,3.3c-0.2-0.8-0.5-1.5-0.7-2.2c-0.3-0.7-0.6-1.4-0.9-2h-1.3l-4.6,1.4V47l2.7,0.1c0.3,0.7,0.6,1.5,0.9,2.3
		s0.6,1.6,0.9,2.4c-0.4,0.5-0.8,1.1-1.2,1.5c-0.4,0.5-0.9,0.9-1.4,1.3l-1.1-1.6c-0.8,0.3-1.3,0.6-1.7,1.1c-0.4,0.4-0.6,1-0.6,1.6
		s0.2,1.1,0.6,1.4c0.4,0.4,0.8,0.6,1.4,0.6c0.7,0,1.3-0.3,2-0.9c0.7-0.6,1.6-1.8,2.8-3.6c0.4,1.8,0.9,3,1.4,3.6s1.3,0.9,2.3,0.9
		c0.5,0,1.1-0.1,1.9-0.2c0.8-0.1,1.7-0.3,2.8-0.5v-1.3c-0.2,0-0.4,0.1-0.7,0.1c-0.2,0-0.4,0-0.6,0c-0.7,0-1.3-0.2-1.7-0.5
		s-0.7-0.8-1-1.6L130,50c0.3-0.5,0.7-1,1.1-1.4c0.4-0.4,0.9-0.8,1.4-1.2l1,1.8C134.2,48.9,134.8,48.5,135.3,48z"/>
	<path class="st0" d="M142.5,57.4c0.3,0.1,0.6,0.1,0.9,0.1c2.4,0,4.3-0.8,5.9-2.4c1.6-1.6,2.3-3.6,2.3-6c0-1.4-0.4-2.6-1.1-3.4
		c-0.7-0.9-1.7-1.3-2.9-1.3c-0.7,0-1.5,0.2-2.2,0.5s-1.5,0.8-2.3,1.5l0.4-2h-1.6l-5.2,1.2v1.2l2.1,0.2l-2.4,13.9l-0.2,0.4l-1.7,0.5
		v1.3h8.5v-1.2l-2.5-0.5l0.7-4.2C141.7,57.2,142.1,57.3,142.5,57.4z M142.9,47.8c0.5-0.3,0.9-0.5,1.3-0.7c0.4-0.2,0.7-0.2,1.1-0.2
		c0.6,0,1.1,0.2,1.4,0.7c0.3,0.4,0.5,1.1,0.5,1.9c0,1.8-0.4,3.4-1.2,4.6c-0.8,1.2-1.9,1.8-3.1,1.8c-0.2,0-0.5,0-0.7-0.1
		c-0.2,0-0.4-0.1-0.7-0.2L142.9,47.8z"/>
	<path class="st0" d="M158.4,47.1c0.6-0.8,1.2-1.2,2-1.2c0.4,0,0.7,0.1,0.9,0.3s0.3,0.5,0.3,0.9c0,0.7-0.4,1.4-1.3,2
		c-0.8,0.6-1.9,1-3.2,1.1C157.4,48.9,157.8,47.8,158.4,47.1z M157.3,51.6c2.5,0,4.4-0.4,5.7-1.1c1.4-0.7,2-1.8,2-3.1
		c0-0.9-0.3-1.7-1-2.2s-1.6-0.8-2.7-0.8c-1.1,0-2.1,0.2-3.1,0.5s-1.8,0.8-2.6,1.4c-1,0.8-1.7,1.7-2.2,2.7s-0.7,2.1-0.7,3.3
		c0,1.7,0.5,3,1.4,4s2.2,1.5,3.8,1.5c0.9,0,1.9-0.2,3-0.6c1.1-0.4,2.2-1,3.4-1.8v-2c-0.8,0.6-1.6,1-2.3,1.3s-1.4,0.5-2.1,0.5
		c-1,0-1.7-0.3-2.2-0.9c-0.5-0.6-0.8-1.4-0.8-2.5v-0.2C156.9,51.6,157.3,51.6,157.3,51.6z"/>
	<path class="st0" d="M178.4,48.7c0.6-0.5,0.9-1.3,0.9-2.2c0-0.7-0.2-1.3-0.6-1.7c-0.4-0.4-0.9-0.7-1.6-0.7c-0.7,0-1.4,0.3-2.2,0.8
		c-0.8,0.6-1.7,1.5-2.8,2.9l0.7-3.6h-1.2l-5.3,1.3v1.1l2.3,0.2l-2.1,10.5h4.3l1-5.9c0.2-1.1,0.6-2,1.1-2.8c0.6-0.7,1.3-1.3,2.2-1.7
		l0.8,2.5C177,49.6,177.8,49.3,178.4,48.7z"/>
	<path class="st0" d="M180.1,45.4v1.2l2.2,0.3l-1.3,6.2c-0.1,0.5-0.2,1-0.3,1.4s-0.1,0.7-0.1,0.9c0,0.8,0.2,1.3,0.6,1.7
		c0.4,0.4,1.1,0.6,1.9,0.6c0.6,0,1.4-0.1,2.2-0.3s1.8-0.5,2.9-0.9v-1.3c-0.5,0.1-1,0.2-1.3,0.3s-0.6,0.1-0.8,0.1
		c-0.4,0-0.6-0.1-0.8-0.3s-0.3-0.5-0.3-0.9c0-0.3,0-0.6,0.1-1c0-0.4,0.1-0.8,0.2-1.2l1.6-7.8h-1.6L180.1,45.4z M184,38.7
		c-0.5,0.5-0.8,1.1-0.8,1.8c0,0.6,0.2,1,0.6,1.4c0.4,0.4,0.9,0.5,1.5,0.5c0.8,0,1.5-0.2,2-0.7s0.8-1.1,0.8-1.8
		c0-0.6-0.2-1.1-0.6-1.4c-0.4-0.3-0.9-0.5-1.6-0.5C185.1,38,184.5,38.3,184,38.7z"/>
	<path class="st0" d="M194.7,47.1c0.6-0.8,1.2-1.2,2-1.2c0.4,0,0.7,0.1,0.9,0.3s0.3,0.5,0.3,0.9c0,0.7-0.4,1.4-1.3,2
		c-0.8,0.6-1.9,1-3.2,1.1C193.7,48.9,194.1,47.8,194.7,47.1z M193.6,51.6c2.5,0,4.4-0.4,5.7-1.1c1.4-0.7,2-1.8,2-3.1
		c0-0.9-0.3-1.7-1-2.2s-1.6-0.8-2.7-0.8c-1.1,0-2.1,0.2-3.1,0.5s-1.8,0.8-2.6,1.4c-1,0.8-1.7,1.7-2.2,2.7s-0.7,2.1-0.7,3.3
		c0,1.7,0.5,3,1.4,4s2.2,1.5,3.8,1.5c0.9,0,1.9-0.2,3-0.6c1.1-0.4,2.2-1,3.4-1.8v-2c-0.8,0.6-1.6,1-2.3,1.3s-1.4,0.5-2.1,0.5
		c-1,0-1.7-0.3-2.2-0.9c-0.5-0.6-0.8-1.4-0.8-2.5v-0.2C193.2,51.6,193.6,51.6,193.6,51.6z"/>
	<path class="st0" d="M202.6,45.7v1.1l2.2,0.2l-2.1,10.4h4.5l1.5-9c0.7-0.5,1.3-0.8,1.8-1c0.4-0.2,0.8-0.3,1.1-0.3
		c0.4,0,0.7,0.1,0.9,0.4c0.2,0.2,0.3,0.6,0.3,1c0,0.2,0,0.5-0.1,0.8c0,0.3-0.1,0.6-0.2,1l-0.8,3.8c0,0,0,0.1,0,0.2
		c-0.1,0.6-0.2,1.1-0.2,1.3c0,0.7,0.2,1.2,0.6,1.5c0.4,0.4,1,0.5,1.8,0.5c0.6,0,1.2-0.1,2.1-0.3c0.8-0.2,1.8-0.4,2.8-0.8v-1.2
		c-0.4,0.1-0.7,0.2-1,0.3s-0.5,0.1-0.7,0.1c-0.5,0-0.8-0.1-1-0.4c-0.2-0.2-0.3-0.6-0.3-1.1c0-0.2,0-0.5,0.1-0.8
		c0.1-0.4,0.1-0.8,0.2-1.2l0.7-3.1c0.1-0.4,0.2-0.7,0.2-1.1c0-0.3,0.1-0.6,0.1-0.9c0-0.8-0.3-1.5-0.8-2c-0.6-0.5-1.3-0.8-2.1-0.8
		c-0.7,0-1.4,0.2-2.3,0.7c-0.9,0.4-1.9,1.1-3.1,2.1l0.6-2.7H208L202.6,45.7z"/>
	<path class="st0" d="M229.8,54.2c-0.4,0.2-0.7,0.4-1,0.5c-0.4,0.1-0.7,0.2-1,0.3s-0.6,0.1-0.9,0.1c-0.8,0-1.5-0.3-2-0.9
		c-0.5-0.6-0.7-1.4-0.7-2.5c0-1.2,0.2-2.4,0.7-3.5s1.1-1.9,1.8-2.4l1.9,3.4c0.9-0.1,1.6-0.3,2.1-0.8c0.5-0.4,0.8-1,0.8-1.7
		c0-0.8-0.3-1.4-0.9-1.8c-0.6-0.4-1.5-0.6-2.7-0.6s-2.3,0.2-3.4,0.7c-1.1,0.5-2,1.1-2.8,1.9c-0.7,0.7-1.2,1.5-1.5,2.4
		c-0.4,0.9-0.5,1.9-0.5,2.9c0,1.6,0.5,2.9,1.4,3.9s2.1,1.5,3.6,1.5c1,0,2-0.2,3.1-0.6c1-0.4,2.1-1,3.2-1.8v-1.8
		C230.6,53.7,230.2,54,229.8,54.2z"/>
	<path class="st0" d="M238,47.1c0.6-0.8,1.2-1.2,2-1.2c0.4,0,0.7,0.1,0.9,0.3s0.3,0.5,0.3,0.9c0,0.7-0.4,1.4-1.3,2
		c-0.8,0.6-1.9,1-3.2,1.1C237,48.9,237.4,47.8,238,47.1z M236.9,51.6c2.5,0,4.4-0.4,5.7-1.1c1.4-0.7,2-1.8,2-3.1
		c0-0.9-0.3-1.7-1-2.2s-1.6-0.8-2.7-0.8c-1.1,0-2.1,0.2-3.1,0.5s-1.8,0.8-2.6,1.4c-1,0.8-1.7,1.7-2.2,2.7s-0.7,2.1-0.7,3.3
		c0,1.7,0.5,3,1.4,4s2.2,1.5,3.8,1.5c0.9,0,1.9-0.2,3-0.6c1.1-0.4,2.2-1,3.4-1.8v-2c-0.8,0.6-1.6,1-2.3,1.3s-1.4,0.5-2.1,0.5
		c-1,0-1.7-0.3-2.2-0.9c-0.5-0.6-0.8-1.4-0.8-2.5v-0.2C236.5,51.6,236.9,51.6,236.9,51.6z"/>
	<path class="st0" d="M255,39.5v1l2.3,0.3l-3.4,16.7h4.3l1.6-8.9c0.7-0.5,1.3-0.8,1.8-1s0.8-0.3,1.2-0.3c0.4,0,0.7,0.1,0.9,0.4
		c0.2,0.3,0.3,0.6,0.3,1c0,0.2,0,0.4-0.1,0.7c0,0.3-0.1,0.6-0.2,1l-0.8,3.8c0,0,0,0.1,0,0.2c-0.1,0.6-0.2,1-0.2,1.3
		c0,0.7,0.2,1.2,0.6,1.5c0.4,0.4,1,0.5,1.8,0.5c0.6,0,1.2-0.1,2.1-0.3c0.8-0.2,1.8-0.4,2.8-0.8v-1.2c-0.4,0.1-0.7,0.2-1,0.3
		s-0.5,0.1-0.7,0.1c-0.5,0-0.8-0.1-1-0.4c-0.2-0.2-0.3-0.6-0.3-1.1c0-0.2,0-0.5,0.1-0.8c0.1-0.4,0.1-0.8,0.2-1.2l0.7-3.1
		c0.1-0.4,0.2-0.8,0.2-1.1c0.1-0.3,0.1-0.6,0.1-0.8c0-0.8-0.3-1.5-0.8-2c-0.6-0.5-1.3-0.8-2.1-0.8c-0.7,0-1.4,0.2-2.3,0.7
		c-0.9,0.4-1.9,1.1-3,2l1.9-8.8h-1.5L255,39.5z"/>
	<path class="st0" d="M276.4,47.1c0.6-0.8,1.2-1.2,2-1.2c0.4,0,0.7,0.1,0.9,0.3c0.2,0.2,0.3,0.5,0.3,0.9c0,0.7-0.4,1.4-1.3,2
		c-0.8,0.6-1.9,1-3.2,1.1C275.4,48.9,275.8,47.8,276.4,47.1z M275.3,51.6c2.5,0,4.4-0.4,5.7-1.1c1.4-0.7,2-1.8,2-3.1
		c0-0.9-0.3-1.7-1-2.2s-1.6-0.8-2.7-0.8s-2.1,0.2-3.1,0.5s-1.8,0.8-2.6,1.4c-1,0.8-1.7,1.7-2.2,2.7s-0.7,2.1-0.7,3.3
		c0,1.7,0.5,3,1.4,4s2.2,1.5,3.8,1.5c0.9,0,1.9-0.2,3-0.6c1.1-0.4,2.2-1,3.4-1.8v-2c-0.8,0.6-1.6,1-2.3,1.3
		c-0.7,0.3-1.4,0.5-2.1,0.5c-1,0-1.7-0.3-2.2-0.9c-0.5-0.6-0.8-1.4-0.8-2.5v-0.2C274.9,51.6,275.3,51.6,275.3,51.6z"/>
	<path class="st0" d="M294.3,47.4l-1.2,6.8c-0.6,0.3-1,0.5-1.4,0.6s-0.7,0.2-1,0.2c-0.7,0-1.2-0.2-1.5-0.7s-0.5-1.2-0.5-2.2
		c0-1.8,0.4-3.3,1.2-4.5c0.8-1.2,1.8-1.8,2.9-1.8c0.1,0,0.2,0,0.2,0h0.1L294.3,47.4z M293.8,44.5c-0.6-0.1-1.1-0.2-1.7-0.2
		c-1,0-1.9,0.2-2.8,0.5s-1.6,0.7-2.3,1.3c-1,0.9-1.7,1.9-2.2,2.9c-0.5,1.1-0.7,2.3-0.7,3.6c0,1.5,0.4,2.8,1.1,3.7s1.7,1.3,3,1.3
		c0.8,0,1.5-0.2,2.3-0.5s1.6-0.8,2.5-1.5c0,0.7,0.2,1.1,0.6,1.5c0.4,0.3,1,0.5,1.8,0.5c0.7,0,1.5-0.1,2.3-0.3s1.7-0.4,2.5-0.8
		l0.1-1.3c-0.4,0.2-0.8,0.3-1.1,0.3c-0.3,0.1-0.6,0.1-0.8,0.1c-0.4,0-0.7-0.1-0.9-0.4c-0.2-0.3-0.3-0.6-0.3-1.1c0-0.2,0-0.4,0-0.7
		c0-0.2,0.1-0.5,0.1-0.8l1.7-8.4h-1.8l-1.5,0.7C295.1,44.8,294.4,44.6,293.8,44.5z"/>
	<path class="st0" d="M301.8,39.5v1.1l2.3,0.3l-2.4,11.9c-0.1,0.5-0.2,1-0.2,1.5c-0.1,0.5-0.1,0.8-0.1,1.1c0,0.7,0.2,1.3,0.7,1.7
		s1.1,0.6,1.9,0.6c0.5,0,1.2-0.1,2-0.3s1.8-0.5,3.1-0.9v-1.2c-0.4,0.1-0.8,0.2-1.2,0.3c-0.3,0.1-0.6,0.1-0.9,0.1
		c-0.4,0-0.7-0.1-0.9-0.3c-0.2-0.2-0.3-0.5-0.3-0.9c0-0.2,0-0.5,0.1-0.8s0.1-0.8,0.3-1.5l2.6-13.8h-1.6L301.8,39.5z"/>
	<path class="st0" d="M312.8,44.3l-2.7,1.4v1.1h1.9l-1.2,6.7c-0.1,0.4-0.1,0.7-0.1,0.9s0,0.5,0,0.7c0,0.8,0.3,1.5,0.8,1.9
		s1.2,0.7,2.2,0.7c0.5,0,1.2-0.1,2-0.3s1.9-0.5,3.2-0.8v-1.5c-0.6,0.2-1.1,0.3-1.5,0.4c-0.4,0.1-0.7,0.1-0.9,0.1
		c-0.4,0-0.8-0.1-1-0.3s-0.4-0.5-0.4-0.9c0-0.2,0-0.5,0-0.8s0.1-0.6,0.1-0.9l1.1-5.8h3.9V45h-3.5l0.7-3.7H315L312.8,44.3z"/>
	<path class="st0" d="M321.1,39.5v1l2.3,0.3L320,57.5h4.3l1.6-8.9c0.7-0.5,1.3-0.8,1.8-1s0.8-0.3,1.2-0.3c0.4,0,0.7,0.1,0.9,0.4
		c0.2,0.3,0.3,0.6,0.3,1c0,0.2,0,0.4-0.1,0.7c0,0.3-0.1,0.6-0.2,1l-0.8,3.8c0,0,0,0.1,0,0.2c-0.1,0.6-0.2,1-0.2,1.3
		c0,0.7,0.2,1.2,0.6,1.5c0.4,0.4,1,0.5,1.8,0.5c0.6,0,1.2-0.1,2.1-0.3c0.8-0.2,1.8-0.4,2.8-0.8v-1.2c-0.4,0.1-0.7,0.2-1,0.3
		s-0.5,0.1-0.7,0.1c-0.5,0-0.8-0.1-1-0.4c-0.2-0.2-0.3-0.6-0.3-1.1c0-0.2,0-0.5,0.1-0.8c0.1-0.4,0.1-0.8,0.2-1.2l0.7-3.1
		c0.1-0.4,0.2-0.8,0.2-1.1c0.1-0.3,0.1-0.6,0.1-0.8c0-0.8-0.3-1.5-0.8-2c-0.6-0.5-1.3-0.8-2.1-0.8c-0.7,0-1.4,0.2-2.3,0.7
		c-0.9,0.4-1.9,1.1-3,2l1.9-8.8h-1.5L321.1,39.5z"/>
	<path class="st0" d="M335.9,45.4v1.1l2.5,0.3l1.8,9.8h2c-0.7,1.2-1.3,2.2-1.9,2.8s-1.1,1-1.6,1.1l-2-1.8c-0.6,0.2-1,0.5-1.3,0.9
		s-0.5,0.9-0.5,1.5s0.2,1.1,0.6,1.6c0.4,0.4,1,0.6,1.7,0.6c1,0,2-0.4,3-1.3c1-0.9,2.1-2.1,3.1-3.8c0.7-1.1,1.6-2.9,2.8-5.5
		c1.2-2.6,2.2-4.5,3.1-5.8L351,46v-0.9l-2.2-0.7h-1.1c-1,2.3-2.2,5.1-3.7,8.6l-0.4,1l-1-7.1c-0.1-0.5-0.2-1-0.3-1.4
		c-0.1-0.4-0.3-0.8-0.6-1.1h-1.5L335.9,45.4z"/>
	<path class="st0" d="M364.9,58.2c0.6,0.3,1.1,0.5,1.4,0.8s0.4,0.5,0.4,0.9c0,0.5-0.3,0.9-0.8,1.3c-0.5,0.3-1.1,0.5-1.9,0.5
		c-0.9,0-1.7-0.3-2.3-0.8c-0.6-0.5-1-1.2-1-1.9c0-0.4,0.1-0.7,0.3-1.1c0.2-0.3,0.5-0.7,0.8-1.1L364.9,58.2z M366.2,50.3
		c-0.5,0.9-1,1.3-1.7,1.3c-0.4,0-0.7-0.1-0.9-0.4c-0.2-0.3-0.3-0.7-0.3-1.2c0-1.2,0.2-2.2,0.7-3c0.5-0.9,1-1.3,1.6-1.3
		c0.4,0,0.7,0.1,0.9,0.4c0.2,0.3,0.3,0.6,0.3,1.1C366.9,48.4,366.7,49.5,366.2,50.3z M367.8,44.6c-0.7-0.1-1.4-0.2-2.2-0.2
		c-2,0-3.6,0.5-4.8,1.4c-1.2,0.9-1.8,2.1-1.8,3.6c0,1,0.3,1.9,1,2.5c0.6,0.7,1.6,1.1,2.8,1.2c-0.4,0.4-0.6,0.8-0.8,1.2
		c-0.2,0.4-0.3,0.9-0.4,1.4c-1.5,0.6-2.6,1.2-3.3,1.9c-0.7,0.6-1,1.4-1,2.2c0,1.1,0.5,2,1.6,2.5c1.1,0.6,2.6,0.9,4.7,0.9
		c1.1,0,2.3-0.2,3.3-0.5c1.1-0.3,2-0.8,2.8-1.4c0.4-0.3,0.8-0.7,1-1.1c0.2-0.4,0.4-0.9,0.4-1.4c0-0.6-0.2-1.2-0.6-1.6
		c-0.4-0.4-1.1-0.9-2.2-1.5l-4-1.9l0.3-0.7c2-0.1,3.5-0.6,4.7-1.6c1.1-0.9,1.7-2.1,1.7-3.6c0-0.2,0-0.4,0-0.6c0-0.2-0.1-0.4-0.1-0.6
		h2.8v-1.6h-3.6C369.2,44.9,368.5,44.7,367.8,44.6z"/>
	<path class="st0" d="M386.2,48.7c0.6-0.5,0.9-1.3,0.9-2.2c0-0.7-0.2-1.3-0.6-1.7s-0.9-0.7-1.6-0.7s-1.4,0.3-2.2,0.8
		c-0.8,0.6-1.7,1.5-2.8,2.9l0.7-3.6h-1.2l-5.3,1.3v1.1l2.3,0.2l-2.1,10.5h4.3l1-5.9c0.2-1.1,0.6-2,1.1-2.8c0.6-0.7,1.3-1.3,2.2-1.7
		l0.8,2.5C384.7,49.6,385.6,49.3,386.2,48.7z"/>
	<path class="st0" d="M396.5,46.9c0.3,0.6,0.5,1.4,0.5,2.6c0,1.9-0.3,3.5-0.9,4.8c-0.6,1.2-1.4,1.9-2.3,1.9c-0.7,0-1.2-0.3-1.6-0.8
		c-0.3-0.6-0.5-1.4-0.5-2.6c0-2,0.3-3.6,0.9-4.8s1.4-1.8,2.4-1.8C395.7,46,396.2,46.3,396.5,46.9z M392.3,44.9
		c-1,0.3-1.8,0.8-2.5,1.4c-0.9,0.7-1.5,1.6-2,2.6c-0.4,1-0.7,2-0.7,3.1c0,1.8,0.5,3.3,1.6,4.3s2.6,1.5,4.5,1.5c2.4,0,4.4-0.7,6-2.2
		s2.3-3.4,2.3-5.7c0-1.8-0.6-3.1-1.7-4.1s-2.7-1.5-4.7-1.5C394.2,44.4,393.2,44.5,392.3,44.9z"/>
	<path class="st0" d="M402.3,45.4v1.1l2.6,0.4l0.4,9.3l-0.3,1.2h3.3l4.9-8.9l0.6,8.9h3.1c3.1-3.7,5.1-6.2,5.9-7.6
		c0.9-1.4,1.3-2.5,1.3-3.4c0-0.6-0.2-1.1-0.6-1.5s-0.9-0.6-1.6-0.6c-0.3,0-0.7,0.1-1,0.2c-0.3,0.1-0.6,0.3-0.9,0.6l0.7,4.8l-3.4,4.6
		l-0.5-9.8l-3.9,0.3v0.7l-3.8,7.1l-0.3-6.3c0-0.3-0.1-0.6-0.1-1c-0.1-0.4-0.1-0.8-0.2-1.3H407L402.3,45.4z"/>
	<path class="st0" d="M428.1,44.3l-2.7,1.4v1.1h1.9l-1.2,6.7c-0.1,0.4-0.1,0.7-0.1,0.9s0,0.5,0,0.7c0,0.8,0.3,1.5,0.8,1.9
		s1.2,0.7,2.2,0.7c0.5,0,1.2-0.1,2-0.3s1.9-0.5,3.2-0.8v-1.5c-0.6,0.2-1.1,0.3-1.5,0.4c-0.4,0.1-0.7,0.1-0.9,0.1
		c-0.4,0-0.8-0.1-1-0.3s-0.4-0.5-0.4-0.9c0-0.2,0-0.5,0-0.8s0.1-0.6,0.1-0.9l1.1-5.8h3.9V45H432l0.7-3.7h-2.2L428.1,44.3z"/>
	<path class="st0" d="M436.4,39.5v1l2.3,0.3l-3.4,16.7h4.3l1.6-8.9c0.7-0.5,1.3-0.8,1.8-1s0.8-0.3,1.2-0.3c0.4,0,0.7,0.1,0.9,0.4
		c0.2,0.3,0.3,0.6,0.3,1c0,0.2,0,0.4-0.1,0.7c0,0.3-0.1,0.6-0.2,1l-0.8,3.8c0,0,0,0.1,0,0.2c-0.1,0.6-0.2,1-0.2,1.3
		c0,0.7,0.2,1.2,0.6,1.5c0.4,0.4,1,0.5,1.8,0.5c0.6,0,1.2-0.1,2.1-0.3c0.8-0.2,1.8-0.4,2.8-0.8v-1.2c-0.4,0.1-0.7,0.2-1,0.3
		s-0.5,0.1-0.7,0.1c-0.5,0-0.8-0.1-1-0.4c-0.2-0.2-0.3-0.6-0.3-1.1c0-0.2,0-0.5,0.1-0.8c0.1-0.4,0.1-0.8,0.2-1.2l0.7-3.1
		c0.1-0.4,0.2-0.8,0.2-1.1c0.1-0.3,0.1-0.6,0.1-0.8c0-0.8-0.3-1.5-0.8-2c-0.6-0.5-1.3-0.8-2.1-0.8c-0.7,0-1.4,0.2-2.3,0.7
		c-0.9,0.4-1.9,1.1-3,2l1.9-8.8h-1.5L436.4,39.5z"/>
	<path class="st0" d="M453.5,53.4c-0.5,0.5-0.7,1.1-0.7,1.8s0.2,1.3,0.7,1.7c0.5,0.5,1.1,0.7,1.7,0.7c0.7,0,1.3-0.2,1.7-0.7
		c0.5-0.5,0.7-1.1,0.7-1.7c0-0.7-0.2-1.3-0.7-1.8s-1.1-0.7-1.7-0.7S454,52.9,453.5,53.4z"/>
</g>
</svg>
