<?xml version="1.0" encoding="utf-8"?>
<!-- Generator: Adobe Illustrator 19.2.0, SVG Export Plug-In . SVG Version: 6.00 Build 0)  -->
<svg version="1.1" id="Layer_1" xmlns="http://www.w3.org/2000/svg" xmlns:xlink="http://www.w3.org/1999/xlink" x="0px" y="0px"
	 width="32px" height="32px" viewBox="0 0 32 32" style="enable-background:new 0 0 32 32;" xml:space="preserve">
<style type="text/css">
	.st0{fill:#231F20;}
</style>
<g>
	<circle class="st0" cx="16.1" cy="1.8" r="1.8"/>
	<path class="st0" d="M1.8,14.2L1.8,14.2c-1,0-1.8,0.7-1.8,1.8c0,1,0.8,1.8,1.8,1.8l0,0c1,0,1.8-0.8,1.8-1.8
		C3.7,14.9,2.9,14.2,1.8,14.2z"/>
	<circle class="st0" cx="16.1" cy="30.2" r="1.8"/>
	<path class="st0" d="M30.2,14.2L30.2,14.2c-1,0-1.8,0.8-1.8,1.8s0.8,1.8,1.8,1.8l0,0c1,0,1.8-0.8,1.8-1.8
		C32,14.9,31.2,14.2,30.2,14.2z"/>
	<ellipse transform="matrix(0.7071 -0.7071 0.7071 0.7071 -2.4554 6.0255)" class="st0" cx="6" cy="6" rx="1.8" ry="1.8"/>
	<ellipse transform="matrix(0.7071 -0.7071 0.7071 0.7071 -16.6129 11.801)" class="st0" cx="5.9" cy="26" rx="1.8" ry="1.8"/>
	<ellipse transform="matrix(0.7071 -0.7071 0.7071 0.7071 -10.712 26.0077)" class="st0" cx="26" cy="25.9" rx="1.8" ry="1.8"/>
	<ellipse transform="matrix(0.7071 -0.7071 0.7071 0.7071 3.3362 20.1385)" class="st0" cx="26" cy="6" rx="1.8" ry="1.8"/>
</g>
</svg>
